<?xml version="1.0" encoding="UTF-8" standalone="no"?>
<!-- Created with Inkscape (http://www.inkscape.org/) -->

<svg
   width="100"
   height="100"
   viewBox="0 0 26.458333 26.458333"
   version="1.1"
   id="svg1"
   inkscape:version="1.4.2 (ebf0e940d0, 2025-05-08)"
   sodipodi:docname="logo.svg"
   xmlns:inkscape="http://www.inkscape.org/namespaces/inkscape"
   xmlns:sodipodi="http://sodipodi.sourceforge.net/DTD/sodipodi-0.dtd"
   xmlns="http://www.w3.org/2000/svg"
   xmlns:svg="http://www.w3.org/2000/svg">
  <sodipodi:namedview
     id="namedview1"
     pagecolor="#ffffff"
     bordercolor="#000000"
     borderopacity="0.25"
     inkscape:showpageshadow="2"
     inkscape:pageopacity="0.0"
     inkscape:pagecheckerboard="0"
     inkscape:deskcolor="#d1d1d1"
     inkscape:document-units="px"
     inkscape:zoom="2.920347"
     inkscape:cx="-38.009182"
     inkscape:cy="26.880367"
     inkscape:window-width="2560"
     inkscape:window-height="1368"
     inkscape:window-x="0"
     inkscape:window-y="0"
     inkscape:window-maximized="1"
     inkscape:current-layer="layer1" />
  <defs
     id="defs1" />
  <g
     inkscape:label="Layer 1"
     inkscape:groupmode="layer"
     id="layer1">
    <rect
       style="opacity:1;fill:#22223b;fill-opacity:1;stroke:none;stroke-width:0.00834232"
       id="rect11"
       width="26.458334"
       height="26.458334"
       x="-3.3455851e-07"
       y="1.6544189e-07" />
    <path
       id="path11"
       style="fill:#c9ada7;fill-opacity:1;stroke:none;stroke-width:0.0261505"
       d="m 13.229163,3.3072933 a 4.6148284,4.6148247 0 0 0 -4.6148237,4.6148225 4.6148284,4.6148247 0 0 0 0.111423,0.9640841 4.6148284,4.6148247 0 0 0 0.766651,1.7321481 4.6148284,4.6148247 0 0 0 0.473582,0.566936 v 2e-5 a 4.6148284,4.6148247 0 0 0 0.4997347,0.428691 4.6148284,4.6148247 0 0 0 2.763433,0.922948 2.7688971,2.768895 0 0 1 1.748928,0.627725 2.7688971,2.768895 0 0 1 1.019965,2.14117 2.7688971,2.768895 0 0 1 -0.0043,0.154056 l 0.801485,0.801484 0.729938,0.729937 a 4.6148284,4.6148247 0 0 0 0.161552,-0.491065 4.6148284,4.6148247 0 0 0 0.157249,-1.194412 4.6148284,4.6148247 0 0 0 -1.171393,-3.057645 4.6148284,4.6148247 0 0 0 -0.680004,-0.634198 4.6148284,4.6148247 0 0 0 -2.763431,-0.922984 4.6148284,4.6148247 0 0 0 -1.7e-5,0 2.7688971,2.768895 0 0 1 -1.95788,-0.8109838 v -1.73e-5 a 2.7688971,2.768895 0 0 1 -0.155587,-0.1774005 2.7688971,2.768895 0 0 1 -0.652295,-1.7330272 2.7688971,2.768895 0 0 1 -0.0031,-0.047466 2.7688971,2.768895 0 0 1 2.768898,-2.7688947 2.7688971,2.768895 0 0 1 1.957891,0.8110005 h 1.5e-5 a 0.92296568,0.92296491 0 0 0 1.30528,0 0.92296568,0.92296491 0 0 0 0,-1.3052719 0.92296568,0.92296491 0 0 0 -0.04651,-0.040796 0.92296568,0.92296491 0 0 1 0.04536,0.039641 4.6148284,4.6148247 0 0 0 -3.262032,-1.3505014 z m 2.609736,1.0813286 a 0.92296568,0.92296491 0 0 1 3.97e-4,1.7e-5 0.92296568,0.92296491 0 0 0 -0.06466,0.00425 0.92296568,0.92296491 0 0 1 0.06424,-0.00427 z m 0.05426,0.0035 a 0.92296568,0.92296491 0 0 1 0.06658,0.00436 0.92296568,0.92296491 0 0 0 -0.06658,-0.00436 z m -0.174264,0.00447 a 0.92296568,0.92296491 0 0 0 -0.06102,0.012133 0.92296568,0.92296491 0 0 1 0.06102,-0.012133 z M 16.019,4.4082189 a 0.92296568,0.92296491 0 0 1 0.05897,0.011718 0.92296568,0.92296491 0 0 0 -0.05897,-0.011718 z m -0.418471,0.011934 a 0.92296568,0.92296491 0 0 0 -0.05696,0.019343 0.92296568,0.92296491 0 0 1 0.05696,-0.019343 z m 0.534617,0.01911 a 0.92296568,0.92296491 0 0 1 0.05723,0.019429 0.92296568,0.92296491 0 0 0 -0.05723,-0.019429 z m -0.648851,0.019718 a 0.92296568,0.92296491 0 0 0 -0.04991,0.024609 0.92296568,0.92296491 0 0 1 0.04991,-0.024609 z m 0.757461,0.024966 a 0.92296568,0.92296491 0 0 1 0.05678,0.027999 0.92296568,0.92296491 0 0 0 -0.05678,-0.027999 z m 0.108615,0.06252 a 0.92296568,0.92296491 0 0 1 0.04855,0.032428 0.92296568,0.92296491 0 0 0 -0.04855,-0.032428 z m -3.12321,2.9141719 a 7.8452088,7.8452018 0 0 0 -1.830229,0.2219614 1.8459313,1.8459299 0 0 0 -0.0157,0.2395178 1.8459313,1.8459299 0 0 0 0.540675,1.3052571 v 1.92e-5 a 1.8459313,1.8459299 0 0 0 0.226738,0.1894242 5.999277,5.9992722 0 0 1 1.078518,-0.1102519 5.999277,5.9992722 0 0 1 1.078696,0.1101236 5.999277,5.9992722 0 0 1 1.035649,0.2849483 5.999277,5.9992722 0 0 1 1.621504,0.9180795 5.999277,5.9992722 0 0 1 0.67549,0.636956 5.999277,5.9992722 0 0 1 1.587937,4.049166 5.999277,5.9992722 0 0 1 -0.204423,1.552727 5.999277,5.9992722 0 0 1 -0.453245,1.178329 5.999277,5.9992722 0 0 1 -0.497336,0.807938 L 17.07905,17.85045 15.727733,16.499135 15.012218,15.78362 13.881822,14.65322 a 0.92296568,0.92296491 0 0 0 -1.8e-5,-1.7e-5 0.92296568,0.92296491 0 0 0 -1.305253,0 0.92296568,0.92296491 0 0 0 -0.238891,0.413766 0.92296568,0.92296491 0 0 0 0.238891,0.89151 0.92296568,0.92296491 0 0 0 0.04694,0.04117 0.92296568,0.92296491 0 0 1 -0.0455,-0.03973 l 1.844488,1.844488 1.351317,1.351314 0.994368,0.994387 a 5.999277,5.9992722 0 0 1 -0.807938,0.497317 5.999277,5.9992722 0 0 1 -2.731055,0.657684 5.999277,5.9992722 0 0 1 -5.9992727,-5.999273 5.999277,5.9992722 0 0 1 0.204421,-1.552727 5.999277,5.9992722 0 0 1 1.38079,-2.494476 5.5377943,5.5377899 0 0 1 -0.88686,-1.7353355 7.8452088,7.8452018 0 0 0 -2.276966,3.7520505 7.8452088,7.8452018 0 0 0 -0.267318,2.030488 7.8452088,7.8452018 0 0 0 7.8452057,7.845205 7.8452088,7.8452018 0 0 0 4.086373,-1.148282 h 2.3e-5 a 7.8452088,7.8452018 0 0 0 0.769843,-0.53541 l 0.6897,0.6897 a 0.92296568,0.92296491 0 0 1 -0.04016,-0.04598 0.92296568,0.92296491 0 0 0 0.04162,0.04744 0.92296568,0.92296491 0 0 0 1.305271,0 0.92296568,0.92296491 0 0 0 7.72e-4,-7.72e-4 0.92296568,0.92296491 0 0 0 -7.72e-4,-1.30448 0.92296568,0.92296491 0 0 0 -8.49e-4,-8.49e-4 L 19.390678,20.162072 A 7.8452088,7.8452018 0 0 0 19.926087,19.392208 7.8452088,7.8452018 0 0 0 20.80705,17.336319 7.8452088,7.8452018 0 0 0 21.074368,15.305833 7.8452088,7.8452018 0 0 0 18.530084,9.5233676 7.8452088,7.8452018 0 0 0 17.732674,8.8855632 7.8452088,7.8452018 0 0 0 15.99443,7.9773626 7.8452088,7.8452018 0 0 0 15.060092,7.6933184 7.8452088,7.8452018 0 0 0 13.677811,7.4734827 h -2e-5 A 7.8452088,7.8452018 0 0 0 13.229163,7.4606297 Z M 9.6630953,13.427356 a 0.92296568,0.92296491 0 0 0 -0.891509,0.684092 0.92296568,0.92296491 0 0 0 -0.02355,0.118399 4.6148284,4.6148247 0 0 0 -0.133701,1.075993 4.6148284,4.6148247 0 0 0 4.6148237,4.614825 4.6148284,4.6148247 0 0 0 1.685493,-0.318802 l -1.531416,-1.531421 a 2.7688971,2.768895 0 0 1 -0.154077,0.0043 2.7688971,2.768895 0 0 1 -2.768895,-2.768896 2.7688971,2.768895 0 0 1 0.09406,-0.715531 0.92296568,0.92296491 0 0 1 -0.02102,0.06169 0.92296568,0.92296491 0 0 0 0.02131,-0.06278 0.92296568,0.92296491 0 0 0 3.32e-4,-0.0011 0.92296568,0.92296491 0 0 0 -0.6529437,-1.12928 0.92296568,0.92296491 0 0 0 -0.238886,-0.03145 z m 0.8524787,1.276645 a 0.92296568,0.92296491 0 0 1 -0.02798,0.05675 0.92296568,0.92296491 0 0 0 0.02798,-0.05675 z m -0.05341,0.108217 a 0.92296568,0.92296491 0 0 1 -0.04116,0.06156 0.92296568,0.92296491 0 0 0 0.04116,-0.06156 z m -0.06702,0.100194 a 0.92296568,0.92296491 0 0 1 -0.05323,0.06069 0.92296568,0.92296491 0 0 0 0.05323,-0.06069 z m -0.07962,0.09072 a 0.92296568,0.92296491 0 0 1 -0.0595,0.05219 0.92296568,0.92296491 0 0 0 0.0595,-0.05219 z m -0.09076,0.07957 a 0.92296568,0.92296491 0 0 1 -0.05769,0.03854 0.92296568,0.92296491 0 0 0 0.05769,-0.03854 z m -0.100427,0.06708 a 0.92296568,0.92296491 0 0 1 -0.05916,0.02917 0.92296568,0.92296491 0 0 0 0.05916,-0.02917 z m -0.108233,0.05333 a 0.92296568,0.92296491 0 0 1 -0.08033,0.02728 0.92296568,0.92296491 0 0 0 0.08033,-0.02728 z m -0.1142167,0.03876 a 0.92296568,0.92296491 0 0 1 -0.07487,0.01491 0.92296568,0.92296491 0 0 0 0.07487,-0.01491 z m -0.118451,0.02356 a 0.92296568,0.92296491 0 0 1 -0.06861,0.0045 0.92296568,0.92296491 0 0 0 0.06861,-0.0045 z m 2.8847177,0.773216 a 0.92296568,0.92296491 0 0 0 0.05618,0.03752 0.92296568,0.92296491 0 0 1 -0.05618,-0.03752 z m 1.08697,0.02343 a 0.92296568,0.92296491 0 0 1 -0.06441,0.04303 0.92296568,0.92296491 0 0 0 0.06441,-0.04303 z m -0.986797,0.04337 a 0.92296568,0.92296491 0 0 0 0.05881,0.029 0.92296568,0.92296491 0 0 1 -0.05881,-0.029 z m 0.895476,0.01294 a 0.92296568,0.92296491 0 0 1 -0.08116,0.04004 0.92296568,0.92296491 0 0 0 0.08116,-0.04004 z m -0.787008,0.04043 a 0.92296568,0.92296491 0 0 0 0.06014,0.02041 0.92296568,0.92296491 0 0 1 -0.06014,-0.02041 z m 0.659976,0.01522 a 0.92296568,0.92296491 0 0 1 -0.06847,0.02323 0.92296568,0.92296491 0 0 0 0.06847,-0.02323 z m -0.54585,0.02343 a 0.92296568,0.92296491 0 0 0 0.06293,0.01251 0.92296568,0.92296491 0 0 1 -0.06293,-0.01251 z m 0.435939,0.0081 a 0.92296568,0.92296491 0 0 1 -0.07681,0.01529 0.92296568,0.92296491 0 0 0 0.07681,-0.01529 z m -0.317468,0.01539 a 0.92296568,0.92296491 0 0 0 0.06068,0.004 0.92296568,0.92296491 0 0 1 -0.06068,-0.004 z m 0.188345,0.0034 a 0.92296568,0.92296491 0 0 1 -0.06805,0.0045 0.92296568,0.92296491 0 0 0 0.06805,-0.0045 z m 6.132344,4.358592 a 0.92296568,0.92296491 0 0 1 0.05907,0.0039 0.92296568,0.92296491 0 0 0 -0.05947,-0.0039 0.92296568,0.92296491 0 0 1 3.75e-4,-1.9e-5 z m -0.05457,0.0036 a 0.92296568,0.92296491 0 0 0 -0.06623,0.0043 0.92296568,0.92296491 0 0 1 0.06623,-0.0043 z m 0.174448,0.0044 a 0.92296568,0.92296491 0 0 1 0.06024,0.01197 0.92296568,0.92296491 0 0 0 -0.06024,-0.01197 z m -0.297587,0.01116 a 0.92296568,0.92296491 0 0 0 -0.06119,0.01214 0.92296568,0.92296491 0 0 1 0.06119,-0.01214 z m 0.41582,0.0124 a 0.92296568,0.92296491 0 0 1 0.06228,0.02111 0.92296568,0.92296491 0 0 0 -0.06228,-0.02111 z m -0.53402,0.01899 a 0.92296568,0.92296491 0 0 0 -0.05731,0.01942 0.92296568,0.92296491 0 0 1 0.05731,-0.01942 z m 0.64811,0.01974 a 0.92296568,0.92296491 0 0 1 0.0559,0.02751 0.92296568,0.92296491 0 0 0 -0.0559,-0.02751 z m -0.753134,0.02313 a 0.92296568,0.92296491 0 0 0 -0.06039,0.02971 0.92296568,0.92296491 0 0 1 0.06039,-0.02971 z m 0.86135,0.03021 a 0.92296568,0.92296491 0 0 1 0.05078,0.03387 0.92296568,0.92296491 0 0 0 -0.05078,-0.03387 z m -0.975494,0.0353 a 0.92296568,0.92296491 0 0 0 -0.04656,0.03102 0.92296568,0.92296491 0 0 1 0.04656,-0.03102 z m 1.075684,0.0316 a 0.92296568,0.92296491 0 0 1 0.04624,0.04046 0.92296568,0.92296491 0 0 0 -0.04624,-0.04046 z m -1.167296,0.03879 a 0.92296568,0.92296491 0 0 0 -0.04586,0.04011 7.8452088,7.8452018 0 0 0 3.3e-4,-3.42e-4 0.92296568,0.92296491 0 0 1 0.04559,-0.03984 z m -0.08247,0.08171 a 0.92296568,0.92296491 0 0 0 -0.04463,0.05105 0.92296568,0.92296491 0 0 1 0.04463,-0.05105 z m -0.05943,0.07322 a 0.92296568,0.92296491 0 0 0 -0.05204,0.07807 0.92296568,0.92296491 0 0 1 0.05204,-0.07807 z m -0.07225,0.119156 a 0.92296568,0.92296491 0 0 0 -0.03299,0.06708 0.92296568,0.92296491 0 0 1 0.03299,-0.06708 z m -0.04851,0.11285 a 0.92296568,0.92296491 0 0 0 -0.02315,0.0684 0.92296568,0.92296491 0 0 1 0.02315,-0.0684 z m -0.0336,0.12096 a 0.92296568,0.92296491 0 0 0 -0.013,0.06562 0.92296568,0.92296491 0 0 1 0.013,-0.06562 z m -0.01675,0.122796 a 0.92296568,0.92296491 0 0 0 -0.0041,0.06311 0.92296568,0.92296491 0 0 1 0.0041,-0.06311 z m -3.75e-4,0.120328 a 0.92296568,0.92296491 0 0 0 0.0042,0.06304 0.92296568,0.92296491 0 0 1 -0.0042,-0.06304 z m 0.015,0.117768 a 0.92296568,0.92296491 0 0 0 0.01269,0.06358 0.92296568,0.92296491 0 0 1 -0.01269,-0.06358 z m 0.0318,0.120093 a 0.92296568,0.92296491 0 0 0 0.01954,0.05747 0.92296568,0.92296491 0 0 1 -0.01954,-0.05747 z m 0.0457,0.110739 a 0.92296568,0.92296491 0 0 0 0.02716,0.05504 0.92296568,0.92296491 0 0 1 -0.02716,-0.05504 z m 0.05842,0.101977 a 0.92296568,0.92296491 0 0 0 0.03557,0.05323 0.92296568,0.92296491 0 0 1 -0.03557,-0.05323 z" />
    <g
       id="g5"
       transform="matrix(0.13415966,0,0,0.13415966,-7.734394,7.3075254)">
      <rect
         style="fill:#4a4e69;fill-opacity:1;stroke:none;stroke-width:1.32292;stroke-linecap:round;stroke-linejoin:round"
         id="rect1"
         width="39.443054"
         height="39.443054"
         x="97.093719"
         y="-133.35498"
         rx="0"
         ry="0" />
      <rect
         style="fill:#9a8c98;fill-opacity:1;stroke:none;stroke-width:1.32292;stroke-linecap:round;stroke-linejoin:round"
         id="rect2"
         width="39.443054"
         height="39.443054"
         x="136.53677"
         y="-133.35498"
         rx="0"
         ry="0" />
      <rect
         style="fill:#c9ada7;fill-opacity:1;stroke:none;stroke-width:1.32292;stroke-linecap:round;stroke-linejoin:round"
         id="rect3"
         width="39.443054"
         height="39.443054"
         x="175.97983"
         y="-133.35498"
         rx="0"
         ry="0" />
      <rect
         style="fill:#f2e9e4;fill-opacity:1;stroke:none;stroke-width:1.32292;stroke-linecap:round;stroke-linejoin:round"
         id="rect4"
         width="39.443054"
         height="39.443054"
         x="215.42288"
         y="-133.35498"
         rx="0"
         ry="0" />
      <rect
         style="fill:#22223b;fill-opacity:1;stroke:none;stroke-width:1.32292;stroke-linecap:round;stroke-linejoin:round"
         id="rect5"
         width="39.443054"
         height="39.443054"
         x="57.650665"
         y="-133.35498"
         rx="0"
         ry="0" />
    </g>
  </g>
</svg>
