<?xml version="1.0" encoding="UTF-8" standalone="no"?>
<!-- Created with Inkscape (http://www.inkscape.org/) -->

<svg
   width="225"
   height="100"
   viewBox="0 0 59.53125 26.458333"
   version="1.1"
   id="svg1"
   inkscape:version="1.4.2 (ebf0e940d0, 2025-05-08)"
   sodipodi:docname="name_english.svg"
   xmlns:inkscape="http://www.inkscape.org/namespaces/inkscape"
   xmlns:sodipodi="http://sodipodi.sourceforge.net/DTD/sodipodi-0.dtd"
   xmlns="http://www.w3.org/2000/svg"
   xmlns:svg="http://www.w3.org/2000/svg">
  <sodipodi:namedview
     id="namedview1"
     pagecolor="#ffffff"
     bordercolor="#000000"
     borderopacity="0.25"
     inkscape:showpageshadow="2"
     inkscape:pageopacity="0.0"
     inkscape:pagecheckerboard="0"
     inkscape:deskcolor="#d1d1d1"
     inkscape:document-units="px"
     inkscape:zoom="2.8284271"
     inkscape:cx="147.07821"
     inkscape:cy="60.280854"
     inkscape:window-width="2560"
     inkscape:window-height="1368"
     inkscape:window-x="0"
     inkscape:window-y="0"
     inkscape:window-maximized="1"
     inkscape:current-layer="layer1"
     showgrid="false" />
  <defs
     id="defs1" />
  <g
     inkscape:label="Layer 1"
     inkscape:groupmode="layer"
     id="layer1">
    <g
       id="g36648"
       transform="matrix(0.30185923,0,0,0.30185923,-17.402385,20.918291)">
      <rect
         style="fill:#4a4e69;fill-opacity:1;stroke:none;stroke-width:1.32292;stroke-linecap:round;stroke-linejoin:round"
         id="rect1877"
         width="39.443054"
         height="39.443054"
         x="97.093719"
         y="-133.35498"
         rx="0"
         ry="0" />
      <rect
         style="fill:#9a8c98;fill-opacity:1;stroke:none;stroke-width:1.32292;stroke-linecap:round;stroke-linejoin:round"
         id="rect2038"
         width="39.443054"
         height="39.443054"
         x="136.53677"
         y="-133.35498"
         rx="0"
         ry="0" />
      <rect
         style="fill:#c9ada7;fill-opacity:1;stroke:none;stroke-width:1.32292;stroke-linecap:round;stroke-linejoin:round"
         id="rect2040"
         width="39.443054"
         height="39.443054"
         x="175.97983"
         y="-133.35498"
         rx="0"
         ry="0" />
      <rect
         style="fill:#f2e9e4;fill-opacity:1;stroke:none;stroke-width:1.32292;stroke-linecap:round;stroke-linejoin:round"
         id="rect10241"
         width="39.443054"
         height="39.443054"
         x="215.42288"
         y="-133.35498"
         rx="0"
         ry="0" />
      <rect
         style="fill:#22223b;fill-opacity:1;stroke:none;stroke-width:1.32292;stroke-linecap:round;stroke-linejoin:round"
         id="rect2437"
         width="39.443054"
         height="39.443054"
         x="57.650665"
         y="-133.35498"
         rx="0"
         ry="0" />
    </g>
    <g
       id="g1"
       transform="matrix(0.636308,0,0,0.66666666,4.5101264,4.4097221)">
      <rect
         style="opacity:0;fill:#000000;stroke-width:0.50588"
         id="rect4"
         width="72.760414"
         height="19.84375"
         x="3.3072929"
         y="3.3072917" />
      <path
         style="font-weight:bold;font-size:7.40833px;line-height:1.5;font-family:Montserrat;-inkscape-font-specification:'Montserrat Bold';letter-spacing:0.3175px;fill:#f2e9e4;stroke-width:0.264583"
         d="m 5.4186669,15.359064 q -0.6223,0 -1.192741,-0.162983 -0.570442,-0.170391 -0.918633,-0.437091 l 0.407458,-0.903816 q 0.333375,0.237066 0.785283,0.392641 0.459316,0.148167 0.926041,0.148167 0.3556,0 0.570442,-0.06668 0.22225,-0.07408 0.325966,-0.200025 0.103717,-0.125942 0.103717,-0.288925 0,-0.207433 -0.162983,-0.325967 -0.162984,-0.125941 -0.429684,-0.200025 -0.2667,-0.08149 -0.592666,-0.148166 -0.318558,-0.07408 -0.644525,-0.1778 -0.318558,-0.103717 -0.585258,-0.2667 -0.2667,-0.162983 -0.437091,-0.429683 -0.162984,-0.2667 -0.162984,-0.681566 0,-0.4445 0.237067,-0.807508 0.244475,-0.370417 0.726016,-0.585258 0.48895,-0.2222498 1.222375,-0.2222498 0.48895,0 0.963083,0.1185328 0.474133,0.111125 0.837141,0.340783 l -0.370417,0.91123 q -0.363008,-0.207434 -0.726016,-0.303742 -0.363008,-0.103717 -0.7112,-0.103717 -0.348191,0 -0.570441,0.08149 -0.22225,0.08149 -0.318558,0.214842 -0.09631,0.125941 -0.09631,0.296333 0,0.200025 0.162983,0.325966 0.162983,0.118534 0.429683,0.192617 0.2667,0.07408 0.585258,0.148167 0.325967,0.07408 0.644525,0.170391 0.325966,0.09631 0.592666,0.259292 0.2667,0.162983 0.429684,0.429683 0.170391,0.2667 0.170391,0.674158 0,0.437091 -0.244475,0.8001 -0.244475,0.363008 -0.733424,0.585258 -0.481542,0.222249 -1.222375,0.222249 z m 2.658536,-0.0889 2.3113991,-5.185831 h 1.185333 l 2.318807,5.185831 h -1.259416 l -1.896533,-4.578348 h 0.474134 l -1.9039411,4.578348 z m 1.155699,-1.11125 0.318559,-0.911225 h 2.6669981 l 0.325967,0.911225 z m 5.5181541,1.11125 v -5.185831 h 2.21509 q 1.081616,0 1.681691,0.503766 0.600075,0.496358 0.600075,1.377949 0,0.57785 -0.274108,1.000125 -0.274109,0.414866 -0.777875,0.637116 -0.503766,0.22225 -1.200149,0.22225 h -1.577975 l 0.5334,-0.525991 v 1.970616 z m 3.296706,0 -1.296457,-1.881716 h 1.281641 l 1.311274,1.881716 z m -2.096557,-1.837266 -0.5334,-0.563033 h 1.5113 q 0.555624,0 0.829732,-0.237067 0.274109,-0.244475 0.274109,-0.66675 0,-0.429683 -0.274109,-0.666749 -0.274108,-0.237067 -0.829732,-0.237067 h -1.5113 l 0.5334,-0.570441 z m 4.562477,1.837266 v -5.185831 h 0.992716 l 2.207683,3.659715 h -0.525992 l 2.170641,-3.659715 h 0.985308 l 0.01482,5.185831 h -1.126067 l -0.0074,-3.459691 h 0.207433 l -1.733549,2.911474 h -0.540808 l -1.770591,-2.911474 h 0.251883 v 3.459691 z m 6.710888,0 2.311399,-5.185831 h 1.185333 l 2.318807,5.185831 H 31.780693 L 29.88416,10.691816 h 0.474134 l -1.903941,4.578348 z m 1.155699,-1.11125 0.318559,-0.911225 h 2.666998 l 0.325967,0.911225 z m 5.518154,1.11125 v -5.185831 h 2.355849 q 0.84455,0 1.489074,0.325966 0.644525,0.318558 1.007533,0.896408 0.363008,0.57785 0.363008,1.370541 0,0.785283 -0.363008,1.370541 -0.363008,0.57785 -1.007533,0.903816 -0.644524,0.318559 -1.489074,0.318559 z m 1.200149,-0.985308 h 1.096433 q 0.518583,0 0.896408,-0.192617 0.385233,-0.200025 0.592667,-0.563033 0.214841,-0.363008 0.214841,-0.851958 0,-0.496358 -0.214841,-0.851958 -0.207434,-0.363008 -0.592667,-0.555625 -0.377825,-0.200025 -0.896408,-0.200025 h -1.096433 z m 10.162122,1.074207 q -0.607483,0 -1.133474,-0.200024 -0.518583,-0.200025 -0.903817,-0.563033 -0.377824,-0.363009 -0.592666,-0.851958 -0.207433,-0.48895 -0.207433,-1.0668 0,-0.57785 0.207433,-1.066799 0.214842,-0.48895 0.600075,-0.851958 0.385233,-0.363009 0.903816,-0.563033 0.518583,-0.2000248 1.126066,-0.2000248 0.614891,0 1.126066,0.2000248 0.518583,0.200024 0.896408,0.563033 0.385233,0.355599 0.600075,0.844549 0.214841,0.48895 0.214841,1.074208 0,0.57785 -0.214841,1.074208 -0.214842,0.48895 -0.600075,0.851958 -0.377825,0.3556 -0.896408,0.555625 -0.511175,0.200024 -1.126066,0.200024 z m 1.696508,1.103842 q -0.303742,0 -0.57785,-0.06668 -0.2667,-0.06668 -0.5334,-0.214842 -0.259291,-0.148166 -0.548216,-0.40005 -0.281517,-0.251883 -0.614892,-0.622299 l 1.259416,-0.318559 q 0.200025,0.274109 0.370417,0.437092 0.170392,0.162983 0.325966,0.229658 0.162984,0.06668 0.340784,0.06668 0.474133,0 0.844549,-0.385233 l 0.5334,0.637116 q -0.525991,0.637117 -1.400174,0.637117 z m -1.696508,-2.126191 q 0.348192,0 0.637116,-0.118533 0.296334,-0.118534 0.518584,-0.340783 0.222249,-0.22225 0.340783,-0.525992 0.125941,-0.31115 0.125941,-0.674158 0,-0.370416 -0.125941,-0.674158 -0.118534,-0.303742 -0.340783,-0.525991 -0.22225,-0.22225 -0.518584,-0.340784 -0.288924,-0.118533 -0.637116,-0.118533 -0.348191,0 -0.644525,0.118533 -0.296333,0.118534 -0.518583,0.340784 -0.214841,0.222249 -0.340783,0.525991 -0.118533,0.303742 -0.118533,0.674158 0,0.363008 0.118533,0.674158 0.125942,0.303742 0.340783,0.525992 0.22225,0.222249 0.518583,0.340783 0.296334,0.118533 0.644525,0.118533 z m 3.303054,0.93345 2.311399,-5.185831 h 1.185333 l 2.318807,5.185831 h -1.259416 l -1.896532,-4.578347 h 0.474133 l -1.903941,4.578348 z m 1.1557,-1.11125 0.318558,-0.911225 h 2.666999 l 0.325966,0.911225 z m 7.222069,1.200149 q -0.6223,0 -1.192741,-0.162983 -0.570442,-0.170391 -0.918633,-0.437091 l 0.407458,-0.903816 q 0.333375,0.237066 0.785283,0.392641 0.459317,0.148167 0.926041,0.148167 0.3556,0 0.570442,-0.06668 0.22225,-0.07408 0.325966,-0.200025 0.103717,-0.125942 0.103717,-0.288925 0,-0.207433 -0.162983,-0.325967 -0.162984,-0.125941 -0.429684,-0.200025 -0.266699,-0.08149 -0.592666,-0.148166 -0.318558,-0.07408 -0.644525,-0.1778 -0.318558,-0.103717 -0.585258,-0.2667 -0.2667,-0.162983 -0.437091,-0.429683 -0.162983,-0.2667 -0.162983,-0.681566 0,-0.4445 0.237066,-0.807508 0.244475,-0.370417 0.726016,-0.585258 0.48895,-0.2222498 1.222375,-0.2222498 0.48895,0 0.963083,0.1185328 0.474133,0.111125 0.837141,0.340783 l -0.370416,0.911225 Q 58.186116,11.158535 57.823108,11.062227 57.4601,10.95851 57.111909,10.95851 q -0.348192,0 -0.570442,0.08149 -0.22225,0.08149 -0.318558,0.214842 -0.09631,0.125941 -0.09631,0.296333 0,0.200025 0.162983,0.325966 0.162983,0.118534 0.429683,0.192617 0.2667,0.07408 0.585258,0.148167 0.325967,0.07408 0.644525,0.170391 0.325966,0.09631 0.592666,0.259292 0.2667,0.162983 0.429683,0.429683 0.170392,0.2667 0.170392,0.674158 0,0.437091 -0.244475,0.8001 -0.244475,0.363008 -0.733425,0.585258 -0.481541,0.222249 -1.222374,0.222249 z m 5.044018,0 q -0.6223,0 -1.192741,-0.162983 -0.570442,-0.170391 -0.918633,-0.437091 l 0.407458,-0.903816 q 0.333375,0.237066 0.785283,0.392641 0.459316,0.148167 0.926041,0.148167 0.3556,0 0.570442,-0.06668 0.222249,-0.07408 0.325966,-0.200025 0.103717,-0.125942 0.103717,-0.288925 0,-0.207433 -0.162984,-0.325967 -0.162983,-0.125941 -0.429683,-0.200025 -0.2667,-0.08149 -0.592666,-0.148166 -0.318558,-0.07408 -0.644525,-0.1778 -0.318558,-0.103717 -0.585258,-0.2667 -0.2667,-0.162983 -0.437091,-0.429683 -0.162984,-0.2667 -0.162984,-0.681566 0,-0.4445 0.237067,-0.807508 0.244475,-0.370417 0.726016,-0.585258 0.48895,-0.2222498 1.222375,-0.2222498 0.488949,0 0.963083,0.1185328 0.474133,0.111125 0.837141,0.340783 l -0.370417,0.911225 q -0.363008,-0.207434 -0.726016,-0.303742 -0.363008,-0.103717 -0.7112,-0.103717 -0.348191,0 -0.570441,0.08149 -0.22225,0.08149 -0.318558,0.214842 -0.09631,0.125941 -0.09631,0.296333 0,0.200025 0.162984,0.325966 0.162983,0.118534 0.429683,0.192617 0.2667,0.07408 0.585258,0.148167 0.325966,0.07408 0.644525,0.170391 0.325966,0.09631 0.592666,0.259292 0.2667,0.162983 0.429683,0.429683 0.170392,0.2667 0.170392,0.674158 0,0.437091 -0.244475,0.8001 -0.244475,0.363008 -0.733425,0.585258 -0.481541,0.222249 -1.222374,0.222249 z m 2.658535,-0.0889 2.311399,-5.185831 h 1.185333 l 2.318807,5.185831 h -1.259416 l -1.896532,-4.578348 h 0.474133 l -1.903941,4.578348 z m 1.1557,-1.11125 0.318558,-0.911225 h 2.666999 l 0.325966,0.911225 z m 5.518153,1.11125 v -5.185831 h 2.533649 q 0.9779,0 1.46685,0.370416 0.496358,0.370417 0.496358,0.9779 0,0.407458 -0.200025,0.711199 -0.200025,0.296333 -0.548217,0.459317 -0.348191,0.162983 -0.800099,0.162983 l 0.140758,-0.303742 q 0.48895,0 0.866775,0.162984 0.377824,0.155575 0.585258,0.466725 0.214841,0.311149 0.214841,0.763058 0,0.666749 -0.525991,1.044574 -0.525992,0.370417 -1.548341,0.370417 z m 1.192741,-0.903817 h 1.400175 q 0.466725,0 0.703791,-0.148166 0.244475,-0.155575 0.244475,-0.48895 0,-0.325967 -0.244475,-0.481542 -0.237066,-0.162983 -0.703791,-0.162983 h -1.489074 v -0.874183 h 1.281641 q 0.437091,0 0.666749,-0.148166 0.237067,-0.155575 0.237067,-0.466725 0,-0.303742 -0.237067,-0.451908 -0.229658,-0.155575 -0.666749,-0.155575 h -1.192742 z"
         id="text3"
         aria-label="SARMAD QASSAB" />
      <path
         d="M 3.3072929,7.0432106 V 3.3390417 h 1.508126 q 0.592667,0 1.037167,0.238125 0.449792,0.232834 0.698501,0.650875 0.248708,0.4180424 0.248708,0.9630844 0,0.545042 -0.248708,0.9630839 -0.248709,0.418042 -0.698501,0.6561671 -0.4445,0.2328335 -1.037167,0.2328335 z m 0.391584,-0.3386669 h 1.095375 q 0.492126,0 0.851959,-0.1905001 0.365125,-0.1957918 0.566209,-0.5344587 0.201083,-0.3439585 0.201083,-0.7884588 0,-0.4497919 -0.201083,-0.7884584 -0.201084,-0.338667 -0.566209,-0.529167 -0.359833,-0.195792 -0.851959,-0.195792 h -1.095375 z m 7.2125481,0.3704169 q -0.418042,0 -0.777876,-0.1375834 Q 9.7790069,6.7945021 9.5144239,6.5405019 9.2551319,6.2812101 9.1069649,5.9425432 8.9640899,5.5985847 8.9640899,5.1911261 q 0,-0.4074586 0.142875,-0.7461254 0.148167,-0.343959 0.407459,-0.597959 0.264583,-0.259292 0.6191251,-0.396875 0.354542,-0.142875 0.777876,-0.142875 0.418042,0 0.772584,0.142875 0.354541,0.137583 0.613833,0.391584 0.264584,0.254 0.407459,0.597958 0.148167,0.3439588 0.148167,0.7514174 0,0.4074586 -0.148167,0.7514171 -0.142875,0.3439586 -0.407459,0.5979587 -0.259292,0.2540002 -0.613833,0.3968753 -0.354542,0.1375834 -0.772584,0.1375834 z m 0,-0.3492502 q 0.333375,0 0.613834,-0.1111251 0.28575,-0.1164167 0.492125,-0.3227918 0.211667,-0.2116668 0.328083,-0.4868337 0.116417,-0.2804585 0.116417,-0.6138337 0,-0.3333752 -0.116417,-0.6085424 -0.116416,-0.280458 -0.328083,-0.486833 -0.206375,-0.211667 -0.492125,-0.322792 -0.280459,-0.116417 -0.613834,-0.116417 -0.333375,0 -0.619126,0.116417 -0.28575,0.111125 -0.4974171,0.322792 -0.206375,0.206375 -0.328083,0.486833 -0.116417,0.2751672 -0.116417,0.6085424 0,0.3280836 0.116417,0.6085421 0.121708,0.2804585 0.328083,0.4921253 0.2116671,0.2063751 0.4974171,0.3227918 0.285751,0.1111251 0.619126,0.1111251 z m 6.043091,0.3492502 q -0.418042,0 -0.772584,-0.1375834 Q 15.82739,6.7945021 15.568099,6.5405019 15.308807,6.2865018 15.16064,5.9425432 15.017765,5.5985847 15.017765,5.1911261 q 0,-0.4074586 0.142875,-0.7514174 0.148167,-0.343958 0.407459,-0.597958 0.264583,-0.254001 0.619125,-0.391584 0.354542,-0.142875 0.772584,-0.142875 0.402167,0 0.756709,0.137583 0.354541,0.132292 0.597958,0.402167 l -0.248708,0.248709 q -0.227542,-0.232834 -0.502709,-0.333375 -0.275167,-0.105834 -0.592667,-0.105834 -0.333375,0 -0.619125,0.116417 -0.28575,0.111125 -0.497417,0.322792 -0.211667,0.206375 -0.333375,0.486833 -0.116417,0.2751672 -0.116417,0.6085424 0,0.3333752 0.116417,0.6138337 0.121708,0.2751669 0.333375,0.4868337 0.211667,0.2063751 0.497417,0.3227918 0.28575,0.1111251 0.619125,0.1111251 0.3175,0 0.592667,-0.1058334 0.275167,-0.1058334 0.502709,-0.3386669 l 0.248708,0.2487085 q -0.243417,0.2698752 -0.597958,0.4074586 -0.354542,0.1375834 -0.762001,0.1375834 z m 4.399822,-0.03175 V 3.6777087 h -1.301751 v -0.338667 h 2.995085 v 0.338667 h -1.301751 v 3.3655019 z m 5.498043,0.03175 q -0.418042,0 -0.777876,-0.1375834 Q 25.719964,6.7945021 25.45538,6.5405019 25.196088,6.2812101 25.047921,5.9425432 24.905046,5.5985847 24.905046,5.1911261 q 0,-0.4074586 0.142875,-0.7461254 0.148167,-0.343959 0.407459,-0.597959 0.264584,-0.259292 0.619125,-0.396875 0.354542,-0.142875 0.777876,-0.142875 0.418042,0 0.772584,0.142875 0.354542,0.137583 0.613833,0.391584 0.264584,0.254 0.407459,0.597958 0.148167,0.3439588 0.148167,0.7514174 0,0.4074586 -0.148167,0.7514171 -0.142875,0.3439586 -0.407459,0.5979587 -0.259291,0.2540002 -0.613833,0.3968753 -0.354542,0.1375834 -0.772584,0.1375834 z m 0,-0.3492502 q 0.333375,0 0.613834,-0.1111251 0.28575,-0.1164167 0.492125,-0.3227918 0.211667,-0.2116668 0.328083,-0.4868337 0.116417,-0.2804585 0.116417,-0.6138337 0,-0.3333752 -0.116417,-0.6085424 -0.116416,-0.280458 -0.328083,-0.486833 -0.206375,-0.211667 -0.492125,-0.322792 -0.280459,-0.116417 -0.613834,-0.116417 -0.333375,0 -0.619125,0.116417 -0.285751,0.111125 -0.497417,0.322792 -0.206376,0.206375 -0.328084,0.486833 -0.116417,0.2751672 -0.116417,0.6085424 0,0.3280836 0.116417,0.6085421 0.121708,0.2804585 0.328084,0.4921253 0.211666,0.2063751 0.497417,0.3227918 0.28575,0.1111251 0.619125,0.1111251 z m 4.434424,0.3175002 V 3.3390417 h 1.386417 q 0.703792,0 1.105959,0.338667 0.407459,0.333375 0.407459,0.9313337 0,0.3915836 -0.185209,0.6773338 -0.179917,0.2804585 -0.518583,0.4339169 -0.338667,0.1481668 -0.809626,0.1481668 h -1.169459 l 0.174625,-0.1799168 v 1.3546675 z m 2.529418,0 -0.952501,-1.3440842 h 0.423334 l 0.957792,1.3440842 z M 31.678388,5.7202931 31.503763,5.5350847 h 1.158876 q 0.555625,0 0.841375,-0.2434169 0.291042,-0.2434168 0.291042,-0.6826254 0,-0.4445007 -0.291042,-0.6879167 -0.28575,-0.243417 -0.841375,-0.243417 h -1.158876 l 0.174625,-0.185209 z"
         id="text5"
         style="font-size:5.29167px;line-height:1.5;font-family:Montserrat;-inkscape-font-specification:Montserrat;letter-spacing:1.61396px;fill:#f2e9e4;stroke-width:0.264583"
         aria-label="DOCTOR" />
      <path
         d="m 3.3072929,23.119288 v -3.704169 h 1.3864175 q 0.4709587,0 0.8096256,0.153458 0.3386668,0.148167 0.5185836,0.433917 0.1852085,0.280459 0.1852085,0.682626 0,0.391583 -0.1852085,0.677334 Q 5.8420028,21.642912 5.503336,21.79637 5.1646691,21.949829 4.6937104,21.949829 H 3.5242513 L 3.6988764,21.76462 v 1.354668 z M 3.6988764,21.79637 3.5242513,21.60587 H 4.683127 q 0.5556255,0 0.8413756,-0.238125 0.2910419,-0.243417 0.2910419,-0.682625 0,-0.4445 -0.2910419,-0.687917 Q 5.2387525,19.753786 4.683127,19.753786 H 3.5242513 l 0.1746251,-0.185209 z m 4.9688796,1.322918 v -3.704169 h 0.3915836 v 3.365502 h 2.0743354 v 0.338667 z m 4.138091,0 1.693335,-3.704169 h 0.386291 l 1.693335,3.704169 h -0.41275 l -1.555751,-3.476627 h 0.15875 l -1.555751,3.476627 z m 0.666751,-0.989542 0.116416,-0.317501 h 2.15371 l 0.116417,0.317501 z m 6.355301,1.021292 q -0.41275,0 -0.79375,-0.132292 -0.375709,-0.137583 -0.582084,-0.34925 l 0.153458,-0.301625 q 0.195792,0.1905 0.523876,0.322792 0.333375,0.127 0.6985,0.127 0.34925,0 0.566209,-0.08467 0.22225,-0.08996 0.322792,-0.238125 0.105833,-0.148167 0.105833,-0.328084 0,-0.216958 -0.127,-0.34925 -0.121709,-0.132292 -0.322792,-0.206375 -0.201083,-0.07938 -0.4445,-0.137583 -0.243417,-0.05821 -0.486834,-0.121709 -0.243417,-0.06879 -0.449792,-0.179917 -0.201083,-0.111125 -0.328083,-0.291041 -0.121709,-0.185209 -0.121709,-0.481542 0,-0.275167 0.142875,-0.502709 0.148167,-0.232833 0.449792,-0.370417 0.301625,-0.142875 0.772584,-0.142875 0.312209,0 0.619125,0.08996 0.306917,0.08467 0.529167,0.238126 l -0.132291,0.312208 q -0.238125,-0.15875 -0.508001,-0.232833 -0.264583,-0.07408 -0.513292,-0.07408 -0.333375,0 -0.550333,0.08996 -0.216959,0.08996 -0.322792,0.243416 -0.100542,0.148167 -0.100542,0.338667 0,0.216959 0.121709,0.349251 0.127,0.132291 0.328083,0.206375 0.206375,0.07408 0.449792,0.132291 0.243417,0.05821 0.481542,0.127 0.243417,0.06879 0.4445,0.179917 0.206375,0.105834 0.328084,0.28575 0.127,0.179917 0.127,0.470959 0,0.269875 -0.148167,0.502709 -0.148167,0.227541 -0.455084,0.370417 -0.301625,0.137583 -0.777875,0.137583 z m 4.513793,-0.03175 v -3.365502 h -1.301751 v -0.338667 h 2.995085 v 0.338667 h -1.30175 v 3.365502 z m 3.931708,0 v -3.704169 h 0.391583 v 3.704169 z m 4.820711,0.03175 q -0.418042,0 -0.772584,-0.137583 -0.354541,-0.142876 -0.613833,-0.396876 -0.259292,-0.254 -0.407459,-0.597958 -0.142875,-0.343959 -0.142875,-0.751418 0,-0.407458 0.142875,-0.751417 0.148167,-0.343958 0.407459,-0.597958 0.264583,-0.254 0.619125,-0.391584 0.354542,-0.142875 0.772584,-0.142875 0.402167,0 0.756709,0.137583 0.354542,0.132292 0.597958,0.402167 l -0.248708,0.248709 q -0.227542,-0.232834 -0.502709,-0.333375 -0.275167,-0.105834 -0.592667,-0.105834 -0.333375,0 -0.619125,0.116417 -0.28575,0.111125 -0.497417,0.322792 -0.211667,0.206375 -0.333375,0.486833 -0.116417,0.275167 -0.116417,0.608542 0,0.333376 0.116417,0.613834 0.121708,0.275167 0.333375,0.486834 0.211667,0.206375 0.497417,0.322792 0.28575,0.111125 0.619125,0.111125 0.3175,0 0.592667,-0.105834 0.275167,-0.105833 0.502709,-0.338667 l 0.248708,0.248709 q -0.243416,0.269875 -0.597958,0.407459 -0.354542,0.137583 -0.762001,0.137583 z m 7.778752,0 q -0.41275,0 -0.793751,-0.132292 -0.375708,-0.137583 -0.582083,-0.34925 l 0.153458,-0.301625 q 0.195792,0.1905 0.523875,0.322792 0.333376,0.127 0.698501,0.127 0.34925,0 0.566209,-0.08467 0.22225,-0.08996 0.322791,-0.238125 0.105834,-0.148167 0.105834,-0.328084 0,-0.216958 -0.127,-0.34925 -0.121709,-0.132292 -0.322792,-0.206375 -0.201084,-0.07938 -0.4445,-0.137583 -0.243417,-0.05821 -0.486834,-0.121709 -0.243417,-0.06879 -0.449792,-0.179917 -0.201083,-0.111125 -0.328084,-0.291041 -0.121708,-0.185209 -0.121708,-0.481542 0,-0.275167 0.142875,-0.502709 0.148167,-0.232833 0.449792,-0.370417 0.301625,-0.142875 0.772584,-0.142875 0.312208,0 0.619125,0.08996 0.306917,0.08467 0.529167,0.238126 l -0.132291,0.312208 q -0.238126,-0.15875 -0.508001,-0.232833 -0.264583,-0.07408 -0.513292,-0.07408 -0.333375,0 -0.550333,0.08996 -0.216959,0.08996 -0.322792,0.243416 -0.100542,0.148167 -0.100542,0.338667 0,0.216959 0.121708,0.349251 0.127,0.132291 0.328084,0.206375 0.206375,0.07408 0.449792,0.132291 0.243417,0.05821 0.481542,0.127 0.243417,0.06879 0.4445,0.179917 0.206375,0.105834 0.328084,0.28575 0.127,0.179917 0.127,0.470959 0,0.269875 -0.148167,0.502709 -0.148167,0.227541 -0.455084,0.370417 -0.301625,0.137583 -0.777875,0.137583 z m 5.339294,0 q -0.709084,0 -1.116542,-0.407459 -0.407459,-0.407458 -0.407459,-1.2065 v -2.12196 h 0.391584 v 2.106085 q 0,0.656167 0.296333,0.968375 0.296334,0.312209 0.836084,0.312209 0.545042,0 0.841376,-0.312209 0.296333,-0.312208 0.296333,-0.968375 v -2.106085 h 0.381 v 2.12196 q 0,0.799042 -0.407458,1.2065 -0.402167,0.407459 -1.111251,0.407459 z m 4.312708,-0.03175 v -3.704169 h 1.386417 q 0.703792,0 1.105959,0.338667 0.407459,0.333375 0.407459,0.931334 0,0.391583 -0.185209,0.677334 -0.179917,0.280458 -0.518583,0.433916 -0.338667,0.148167 -0.809626,0.148167 h -1.169459 l 0.174625,-0.179917 v 1.354668 z m 2.529418,0 -0.952501,-1.344084 h 0.423334 l 0.957792,1.344084 z M 50.916448,21.79637 50.741823,21.611162 h 1.158876 q 0.555625,0 0.841375,-0.243417 0.291042,-0.243417 0.291042,-0.682625 0,-0.4445 -0.291042,-0.687917 -0.28575,-0.243417 -0.841375,-0.243417 h -1.158876 l 0.174625,-0.185209 z m 6.672794,1.354668 q -0.423334,0 -0.783167,-0.137583 -0.354542,-0.142876 -0.619126,-0.396876 -0.259291,-0.254 -0.407458,-0.597958 -0.142875,-0.343959 -0.142875,-0.751418 0,-0.407458 0.142875,-0.751417 0.148167,-0.343958 0.41275,-0.597958 0.264584,-0.254 0.619125,-0.391584 0.359834,-0.142875 0.783168,-0.142875 0.423333,0 0.772583,0.132292 0.354542,0.132292 0.603251,0.402167 l -0.243417,0.248708 q -0.232834,-0.232833 -0.513292,-0.333375 -0.280459,-0.100542 -0.60325,-0.100542 -0.343959,0 -0.635001,0.116417 -0.28575,0.111125 -0.502708,0.322792 -0.211667,0.206375 -0.333376,0.486833 -0.116416,0.275167 -0.116416,0.608542 0,0.328084 0.116416,0.608543 0.121709,0.280458 0.333376,0.492125 0.216958,0.206375 0.502708,0.322792 0.291042,0.111125 0.629709,0.111125 0.3175,0 0.597959,-0.09525 0.28575,-0.09525 0.523875,-0.322792 l 0.22225,0.296333 q -0.264583,0.232834 -0.619125,0.354542 -0.354542,0.116417 -0.740834,0.116417 z m 1.359959,-0.470959 -0.375709,-0.04762 v -1.365251 h 0.375709 z m 2.719924,0.439209 v -3.704169 h 2.540002 v 0.338667 h -2.148418 v 3.026835 h 2.227793 v 0.338667 z m 0.34925,-1.714501 v -0.333375 h 1.957918 v 0.333375 z m 6.412648,1.746251 q -0.418042,0 -0.777876,-0.137583 -0.354542,-0.142876 -0.619125,-0.396876 -0.259292,-0.259292 -0.407459,-0.597958 -0.142875,-0.343959 -0.142875,-0.751418 0,-0.407458 0.142875,-0.746125 0.148167,-0.343958 0.407459,-0.597959 0.264583,-0.259291 0.619125,-0.396875 0.354542,-0.142875 0.777876,-0.142875 0.418042,0 0.772584,0.142875 0.354541,0.137584 0.613833,0.391584 0.264584,0.254 0.407459,0.597958 0.148167,0.343959 0.148167,0.751417 0,0.407459 -0.148167,0.751418 -0.142875,0.343958 -0.407459,0.597958 -0.259292,0.254 -0.613833,0.396876 -0.354542,0.137583 -0.772584,0.137583 z m 0,-0.34925 q 0.333375,0 0.613834,-0.111125 0.28575,-0.116417 0.492125,-0.322792 0.211667,-0.211667 0.328083,-0.486834 0.116417,-0.280458 0.116417,-0.613834 0,-0.333375 -0.116417,-0.608542 -0.116416,-0.280458 -0.328083,-0.486833 -0.206375,-0.211667 -0.492125,-0.322792 -0.280459,-0.116417 -0.613834,-0.116417 -0.333375,0 -0.619126,0.116417 -0.28575,0.111125 -0.497417,0.322792 -0.206375,0.206375 -0.328083,0.486833 -0.116417,0.275167 -0.116417,0.608542 0,0.328084 0.116417,0.608543 0.121708,0.280458 0.328083,0.492125 0.211667,0.206375 0.497417,0.322792 0.285751,0.111125 0.619126,0.111125 z m 4.434422,0.3175 v -3.704169 h 0.322791 l 2.555877,3.217335 H 75.57478 v -3.217335 h 0.386291 v 3.704169 H 75.63828 l -2.550585,-3.217335 h 0.169333 v 3.217335 z"
         id="text6"
         style="font-size:5.29167px;line-height:1.5;font-family:Montserrat;-inkscape-font-specification:Montserrat;letter-spacing:1.61396px;fill:#f2e9e4;stroke-width:0.264583"
         aria-label="PLASTIC SURGEON" />
    </g>
  </g>
</svg>
