<?xml version="1.0" encoding="UTF-8" standalone="no"?>
<!-- Created with Inkscape (http://www.inkscape.org/) -->

<svg
   width="100"
   height="125"
   viewBox="0 0 26.458333 33.072917"
   version="1.1"
   id="svg1"
   inkscape:version="1.4.2 (ebf0e940, 2025-05-08)"
   sodipodi:docname="instabtn.svg"
   xmlns:inkscape="http://www.inkscape.org/namespaces/inkscape"
   xmlns:sodipodi="http://sodipodi.sourceforge.net/DTD/sodipodi-0.dtd"
   xmlns="http://www.w3.org/2000/svg"
   xmlns:svg="http://www.w3.org/2000/svg">
  <sodipodi:namedview
     id="namedview1"
     pagecolor="#ffffff"
     bordercolor="#000000"
     borderopacity="0.25"
     inkscape:showpageshadow="2"
     inkscape:pageopacity="0.0"
     inkscape:pagecheckerboard="0"
     inkscape:deskcolor="#d1d1d1"
     inkscape:document-units="px"
     showgrid="true"
     inkscape:zoom="8.6380519"
     inkscape:cx="92.03464"
     inkscape:cy="105.46359"
     inkscape:window-width="1440"
     inkscape:window-height="847"
     inkscape:window-x="0"
     inkscape:window-y="25"
     inkscape:window-maximized="1"
     inkscape:current-layer="layer1">
    <inkscape:grid
       id="grid1"
       units="px"
       originx="0"
       originy="0"
       spacingx="2.6458333"
       spacingy="2.6458333"
       empcolor="#0099e5"
       empopacity="0.30196078"
       color="#0099e5"
       opacity="0.14901961"
       empspacing="5"
       enabled="true"
       visible="true" />
  </sodipodi:namedview>
  <defs
     id="defs1" />
  <g
     inkscape:label="Layer 1"
     inkscape:groupmode="layer"
     id="layer1">
    <g
       id="g5"
       transform="matrix(0.13415966,0,0,0.13415966,-7.7343942,2.0158593)">
      <rect
         style="fill:#4a4e69;fill-opacity:1;stroke:none;stroke-width:1.32292;stroke-linecap:round;stroke-linejoin:round"
         id="rect1"
         width="39.443054"
         height="39.443054"
         x="97.093719"
         y="-133.35498"
         rx="0"
         ry="0" />
      <rect
         style="fill:#9a8c98;fill-opacity:1;stroke:none;stroke-width:1.32292;stroke-linecap:round;stroke-linejoin:round"
         id="rect2"
         width="39.443054"
         height="39.443054"
         x="136.53677"
         y="-133.35498"
         rx="0"
         ry="0" />
      <rect
         style="fill:#c9ada7;fill-opacity:1;stroke:none;stroke-width:1.32292;stroke-linecap:round;stroke-linejoin:round"
         id="rect3"
         width="39.443054"
         height="39.443054"
         x="175.97983"
         y="-133.35498"
         rx="0"
         ry="0" />
      <rect
         style="fill:#f2e9e4;fill-opacity:1;stroke:none;stroke-width:1.32292;stroke-linecap:round;stroke-linejoin:round"
         id="rect4"
         width="39.443054"
         height="39.443054"
         x="215.42288"
         y="-133.35498"
         rx="0"
         ry="0" />
      <rect
         style="fill:#22223b;fill-opacity:1;stroke:none;stroke-width:1.32292;stroke-linecap:round;stroke-linejoin:round"
         id="rect5"
         width="39.443054"
         height="39.443054"
         x="57.650665"
         y="-133.35498"
         rx="0"
         ry="0" />
    </g>
    <rect
       style="fill:#4a4e69;fill-opacity:1;stroke:none;stroke-width:0.314127;stroke-linecap:round;stroke-linejoin:round"
       id="rect6"
       width="26.458332"
       height="33.072918"
       x="0"
       y="0" />
    <rect
       style="fill:#f2e9e4;fill-opacity:1;stroke:none;stroke-width:0.253842;stroke-linecap:round;stroke-linejoin:round"
       id="rect7"
       width="23.8125"
       height="23.8125"
       x="1.3229166"
       y="1.3229166" />
    <path
       d="m 13.229166,11.33905 a 1.8901171,1.8901171 0 1 0 1.890826,1.890116 1.8915345,1.8915345 0 0 0 -1.890826,-1.890116 z M 17.648297,9.8862039 A 1.9135043,1.9135043 0 0 0 16.570711,8.808618 c -0.74414,-0.293759 -2.515903,-0.22785 -3.341545,-0.22785 -0.825642,0 -2.595633,-0.068392 -3.3418998,0.22785 A 1.9135043,1.9135043 0 0 0 8.809679,9.8862039 C 8.5162756,10.630344 8.5818307,12.403879 8.5818307,13.228812 c 0,0.824933 -0.065554,2.596343 0.229266,3.342963 a 1.9135043,1.9135043 0 0 0 1.0775865,1.077587 c 0.7441408,0.293759 2.5159038,0.227849 3.3418998,0.227849 0.825997,0 2.59528,0.06839 3.341547,-0.227849 a 1.9135043,1.9135043 0 0 0 1.077586,-1.077587 c 0.295885,-0.74414 0.227848,-2.517675 0.227848,-3.342609 0,-0.824932 0.06803,-2.595987 -0.227848,-3.3426076 z m -4.419131,6.2486551 a 2.9056919,2.9056919 0 1 1 2.905691,-2.905693 2.9021483,2.9021483 0 0 1 -2.905691,2.905693 z m 3.025462,-5.25505 a 0.67823098,0.67823098 0 1 1 0.677878,-0.678231 0.67681358,0.67681358 0 0 1 -0.676461,0.679649 z M 19.465773,5.2916674 H 6.9925593 A 1.7008928,1.7008928 0 0 0 5.2916664,6.9925604 V 19.465774 a 1.7008928,1.7008928 0 0 0 1.7008929,1.700892 H 19.465773 a 1.7008928,1.7008928 0 0 0 1.700894,-1.700892 V 6.9925604 A 1.7008928,1.7008928 0 0 0 19.465773,5.2916674 Z M 18.859121,15.567894 c -0.04571,0.908206 -0.253009,1.712941 -0.916001,2.374163 -0.662995,0.661222 -1.46702,0.87277 -2.374164,0.916002 -0.935845,0.0528 -3.741609,0.0528 -4.677454,0 C 9.9832958,18.812347 9.1813953,18.604696 8.5173385,17.942057 7.8532816,17.279418 7.6445681,16.474329 7.6013373,15.567894 c -0.0528,-0.936199 -0.0528,-3.742318 0,-4.677455 0.045711,-0.9082055 0.2505266,-1.7129409 0.9160012,-2.3741624 0.6654746,-0.6612222 1.4695,-0.8702906 2.3741635,-0.9135206 0.935845,-0.0528 3.741609,-0.0528 4.677454,0 0.908207,0.045712 1.712588,0.253362 2.374164,0.9160012 0.661576,0.6626392 0.87277,1.4677289 0.916001,2.3759348 0.0528,0.932655 0.0528,3.736294 0,4.673202 z"
       id="path1"
       style="fill:#4a4e69;fill-opacity:1;stroke-width:0.0354353" />
    <rect
       style="fill:#4a4e69;fill-opacity:1;stroke:none;stroke-width:0.264583;stroke-linecap:round;stroke-linejoin:round"
       id="rect8"
       width="21.166666"
       height="5.2916665"
       x="2.6458333"
       y="26.45833" />
    <path
       style="font-weight:500;font-size:3.175px;font-family:Montserrat;-inkscape-font-specification:'Montserrat Medium';text-align:center;letter-spacing:0px;word-spacing:0px;text-anchor:middle;fill:#f2e9e4;stroke-width:0.264583;stroke-linecap:round;stroke-linejoin:round"
       d="m 3.7311435,30.215416 v -2.2225 h 0.3175 v 2.2225 z m 0.9842483,0 v -2.2225 h 0.26035 l 1.470025,1.825625 h -0.136525 v -1.825625 h 0.3174999 v 2.2225 H 6.3663918 l -1.470025,-1.825625 h 0.136525 v 1.825625 z m 3.225801,0.0254 q -0.254,0 -0.485775,-0.0762 -0.231775,-0.07938 -0.365125,-0.2032 l 0.117475,-0.24765 q 0.127,0.111125 0.32385,0.18415 0.19685,0.07302 0.409575,0.07302 0.193675,0 0.314325,-0.04445 0.12065,-0.04445 0.1778,-0.12065 0.05715,-0.07937 0.05715,-0.1778 0,-0.1143 -0.0762,-0.18415 -0.073025,-0.06985 -0.193675,-0.111125 -0.117475,-0.04445 -0.26035,-0.0762 -0.142875,-0.03175 -0.288925,-0.07302 -0.142875,-0.04445 -0.263525,-0.111125 -0.117475,-0.06668 -0.1905,-0.1778 -0.073025,-0.1143 -0.073025,-0.2921 0,-0.17145 0.0889,-0.314325 0.092075,-0.14605 0.2794,-0.231775 0.1905,-0.0889 0.4826,-0.0889 0.193675,0 0.384175,0.0508 0.1905,0.0508 0.3302,0.14605 l -0.104775,0.254 q -0.142875,-0.09525 -0.301625,-0.136525 -0.15875,-0.04445 -0.307975,-0.04445 -0.187325,0 -0.307975,0.04763 -0.12065,0.04763 -0.1778,0.127 -0.053975,0.07937 -0.053975,0.1778 0,0.117475 0.073025,0.187325 0.0762,0.06985 0.193675,0.111125 0.12065,0.04127 0.263525,0.0762 0.142875,0.03175 0.28575,0.07302 0.14605,0.04128 0.263525,0.10795 0.12065,0.06668 0.193675,0.1778 0.073025,0.111125 0.073025,0.28575 0,0.168275 -0.092075,0.314325 -0.092075,0.142875 -0.28575,0.231775 -0.1905,0.08572 -0.4826,0.08572 z m 1.7335502,-0.0254 v -1.946275 h -0.762 v -0.276225 h 1.838325 v 0.276225 h -0.762 v 1.946275 z m 0.974725,0 1.006475,-2.2225 h 0.314325 l 1.00965,2.2225 h -0.333375 l -0.898525,-2.0447 h 0.127 l -0.898525,2.0447 z m 0.428625,-0.555625 0.08573,-0.254 h 1.25095 l 0.09208,0.254 z m 3.203575,0.581025 q -0.257175,0 -0.473075,-0.08255 -0.2159,-0.08573 -0.37465,-0.238125 -0.15875,-0.155575 -0.24765,-0.36195 -0.0889,-0.206375 -0.0889,-0.454025 0,-0.24765 0.0889,-0.454025 0.0889,-0.206375 0.24765,-0.358775 0.161925,-0.155575 0.377825,-0.238125 0.2159,-0.08573 0.47625,-0.08573 0.263525,0 0.4826,0.08573 0.219075,0.08573 0.371475,0.257175 l -0.19685,0.19685 q -0.136525,-0.13335 -0.29845,-0.193675 -0.15875,-0.0635 -0.346075,-0.0635 -0.1905,0 -0.3556,0.0635 -0.161925,0.0635 -0.282575,0.1778 -0.117475,0.1143 -0.18415,0.27305 -0.0635,0.155575 -0.0635,0.339725 0,0.180975 0.0635,0.339725 0.06668,0.155575 0.18415,0.27305 0.12065,0.1143 0.282575,0.1778 0.161925,0.0635 0.352425,0.0635 0.1778,0 0.339725,-0.05398 0.1651,-0.05715 0.3048,-0.187325 l 0.180975,0.2413 q -0.1651,0.1397 -0.38735,0.212725 -0.219075,0.06985 -0.454025,0.06985 z m 0.841375,-0.282575 -0.3048,-0.04127 v -0.8255 h 0.3048 z m 0.606423,0.257175 v -2.2225 h 0.866775 q 0.4318,0 0.67945,0.206375 0.24765,0.2032 0.24765,0.568325 0,0.2413 -0.111125,0.415925 -0.111125,0.17145 -0.3175,0.263525 -0.206375,0.09208 -0.498475,0.09208 h -0.69215 l 0.142875,-0.14605 v 0.822325 z m 1.4859,0 -0.56515,-0.80645 h 0.339725 l 0.5715,0.80645 z m -1.1684,-0.790575 -0.142875,-0.155575 h 0.682625 q 0.3048,0 0.460375,-0.130175 0.15875,-0.13335 0.15875,-0.371475 0,-0.238125 -0.15875,-0.3683 -0.155575,-0.130175 -0.460375,-0.130175 h -0.682625 l 0.142875,-0.15875 z m 1.654173,0.790575 1.006475,-2.2225 h 0.314325 l 1.00965,2.2225 h -0.333375 l -0.898525,-2.0447 h 0.127 l -0.898525,2.0447 z m 0.428625,-0.555625 0.08573,-0.254 h 1.25095 l 0.09208,0.254 z m 2.232025,0.555625 v -2.2225 h 0.26035 l 0.99695,1.679575 h -0.1397 l 0.98425,-1.679575 h 0.26035 l 0.0032,2.2225 h -0.3048 l -0.0032,-1.743075 h 0.07303 l -0.8763,1.4732 h -0.14605 l -0.88265,-1.4732 h 0.07938 v 1.743075 z"
       id="text8"
       aria-label="INSTAGRAM" />
  </g>
</svg>
