<?xml version="1.0" encoding="UTF-8" standalone="no"?>
<!-- Created with Inkscape (http://www.inkscape.org/) -->

<svg
   width="100"
   height="125"
   viewBox="0 0 26.458333 33.072917"
   version="1.1"
   id="svg1"
   inkscape:version="1.4.2 (ebf0e940, 2025-05-08)"
   sodipodi:docname="mapbtn.svg"
   xmlns:inkscape="http://www.inkscape.org/namespaces/inkscape"
   xmlns:sodipodi="http://sodipodi.sourceforge.net/DTD/sodipodi-0.dtd"
   xmlns="http://www.w3.org/2000/svg"
   xmlns:svg="http://www.w3.org/2000/svg">
  <sodipodi:namedview
     id="namedview1"
     pagecolor="#ffffff"
     bordercolor="#000000"
     borderopacity="0.25"
     inkscape:showpageshadow="2"
     inkscape:pageopacity="0.0"
     inkscape:pagecheckerboard="0"
     inkscape:deskcolor="#d1d1d1"
     inkscape:document-units="px"
     showgrid="true"
     inkscape:zoom="6.8752583"
     inkscape:cx="57.597836"
     inkscape:cy="91.632921"
     inkscape:window-width="1440"
     inkscape:window-height="847"
     inkscape:window-x="0"
     inkscape:window-y="25"
     inkscape:window-maximized="1"
     inkscape:current-layer="layer1">
    <inkscape:grid
       id="grid1"
       units="px"
       originx="0"
       originy="0"
       spacingx="2.6458333"
       spacingy="2.6458333"
       empcolor="#0099e5"
       empopacity="0.30196078"
       color="#0099e5"
       opacity="0.14901961"
       empspacing="5"
       enabled="true"
       visible="true" />
  </sodipodi:namedview>
  <defs
     id="defs1" />
  <g
     inkscape:label="Layer 1"
     inkscape:groupmode="layer"
     id="layer1">
    <g
       id="g5"
       transform="matrix(0.13415966,0,0,0.13415966,-7.7343942,2.0158593)">
      <rect
         style="fill:#4a4e69;fill-opacity:1;stroke:none;stroke-width:1.32292;stroke-linecap:round;stroke-linejoin:round"
         id="rect1"
         width="39.443054"
         height="39.443054"
         x="97.093719"
         y="-133.35498"
         rx="0"
         ry="0" />
      <rect
         style="fill:#9a8c98;fill-opacity:1;stroke:none;stroke-width:1.32292;stroke-linecap:round;stroke-linejoin:round"
         id="rect2"
         width="39.443054"
         height="39.443054"
         x="136.53677"
         y="-133.35498"
         rx="0"
         ry="0" />
      <rect
         style="fill:#c9ada7;fill-opacity:1;stroke:none;stroke-width:1.32292;stroke-linecap:round;stroke-linejoin:round"
         id="rect3"
         width="39.443054"
         height="39.443054"
         x="175.97983"
         y="-133.35498"
         rx="0"
         ry="0" />
      <rect
         style="fill:#f2e9e4;fill-opacity:1;stroke:none;stroke-width:1.32292;stroke-linecap:round;stroke-linejoin:round"
         id="rect4"
         width="39.443054"
         height="39.443054"
         x="215.42288"
         y="-133.35498"
         rx="0"
         ry="0" />
      <rect
         style="fill:#22223b;fill-opacity:1;stroke:none;stroke-width:1.32292;stroke-linecap:round;stroke-linejoin:round"
         id="rect5"
         width="39.443054"
         height="39.443054"
         x="57.650665"
         y="-133.35498"
         rx="0"
         ry="0" />
    </g>
    <rect
       style="fill:#4a4e69;fill-opacity:1;stroke:none;stroke-width:0.314127;stroke-linecap:round;stroke-linejoin:round"
       id="rect6"
       width="26.458332"
       height="33.072918"
       x="0"
       y="0" />
    <rect
       style="fill:#f2e9e4;fill-opacity:1;stroke:none;stroke-width:0.253842;stroke-linecap:round;stroke-linejoin:round"
       id="rect7"
       width="23.8125"
       height="23.8125"
       x="1.3229166"
       y="1.3229166" />
    <rect
       style="fill:#4a4e69;fill-opacity:1;stroke:none;stroke-width:0.264583;stroke-linecap:round;stroke-linejoin:round"
       id="rect8"
       width="21.166666"
       height="5.2916665"
       x="2.6458333"
       y="26.45833" />
    <path
       style="font-weight:500;font-size:3.175px;font-family:Montserrat;-inkscape-font-specification:'Montserrat Medium';text-align:center;letter-spacing:0px;word-spacing:0px;text-anchor:middle;fill:#f2e9e4;stroke-width:0.264583;stroke-linecap:round;stroke-linejoin:round"
       d="m 5.0486659,30.215413 v -2.2225 h 0.3175 v 1.946275 h 1.203325 v 0.276225 z m 2.846992,0.0254 q -0.254,0 -0.473075,-0.08572 -0.2159,-0.08573 -0.37465,-0.238125 -0.15875,-0.155575 -0.24765,-0.36195 -0.0889,-0.206375 -0.0889,-0.45085 0,-0.244475 0.0889,-0.45085 0.0889,-0.206375 0.24765,-0.358775 0.15875,-0.155575 0.37465,-0.2413 0.2159,-0.08573 0.473075,-0.08573 0.254,0 0.466725,0.08573 0.2159,0.08255 0.37465,0.238125 0.161925,0.1524 0.24765,0.358775 0.0889,0.206375 0.0889,0.454025 0,0.24765 -0.0889,0.454025 -0.085725,0.206375 -0.24765,0.36195 -0.15875,0.1524 -0.37465,0.238125 -0.212725,0.08255 -0.466725,0.08255 z m 0,-0.282575 q 0.18415,0 0.339725,-0.0635 0.15875,-0.0635 0.27305,-0.1778 0.117475,-0.117475 0.180975,-0.27305 0.066675,-0.155575 0.066675,-0.339725 0,-0.18415 -0.066675,-0.339725 -0.0635,-0.155575 -0.180975,-0.269875 -0.1143,-0.117475 -0.27305,-0.180975 -0.155575,-0.0635 -0.339725,-0.0635 -0.187325,0 -0.346075,0.0635 -0.155575,0.0635 -0.27305,0.180975 -0.117475,0.1143 -0.18415,0.269875 -0.0635,0.155575 -0.0635,0.339725 0,0.18415 0.0635,0.339725 0.066675,0.155575 0.18415,0.27305 0.117475,0.1143 0.27305,0.1778 0.15875,0.0635 0.346075,0.0635 z m 2.6574761,0.282575 q -0.254,0 -0.4699,-0.08255 -0.2127255,-0.08573 -0.3714755,-0.238125 -0.155575,-0.155575 -0.244475,-0.36195 -0.0889,-0.206375 -0.0889,-0.454025 0,-0.24765 0.0889,-0.454025 0.0889,-0.206375 0.24765,-0.358775 0.15875,-0.155575 0.3714755,-0.238125 0.2159,-0.08573 0.4699,-0.08573 0.257175,0 0.473075,0.0889 0.219075,0.08573 0.371475,0.257175 l -0.206375,0.200025 q -0.127,-0.13335 -0.28575,-0.19685 -0.15875,-0.06668 -0.339725,-0.06668 -0.187325,0 -0.34925,0.0635 -0.15875,0.0635 -0.2762255,0.1778 -0.117475,0.1143 -0.18415,0.27305 -0.0635,0.155575 -0.0635,0.339725 0,0.18415 0.0635,0.3429 0.066675,0.155575 0.18415,0.269875 0.1174755,0.1143 0.2762255,0.1778 0.161925,0.0635 0.34925,0.0635 0.180975,0 0.339725,-0.0635 0.15875,-0.06668 0.28575,-0.2032 l 0.206375,0.200025 q -0.1524,0.17145 -0.371475,0.26035 -0.2159,0.0889 -0.47625,0.0889 z m 0.880683,-0.0254 1.006475,-2.2225 h 0.314325 l 1.00965,2.2225 h -0.333375 l -0.898525,-2.0447 h 0.127 l -0.898525,2.0447 z m 0.428625,-0.555625 0.08573,-0.254 h 1.25095 l 0.09207,0.254 z m 2.562226,0.555625 v -1.946275 h -0.762 v -0.276225 h 1.838325 v 0.276225 h -0.762 v 1.946275 z m 1.4224,0 v -2.2225 h 0.3175 v 2.2225 z m 1.987548,0.0254 q -0.254,0 -0.473075,-0.08572 -0.2159,-0.08573 -0.37465,-0.238125 -0.15875,-0.155575 -0.24765,-0.36195 -0.0889,-0.206375 -0.0889,-0.45085 0,-0.244475 0.0889,-0.45085 0.0889,-0.206375 0.24765,-0.358775 0.15875,-0.155575 0.37465,-0.2413 0.2159,-0.08573 0.473075,-0.08573 0.254,0 0.466725,0.08573 0.2159,0.08255 0.37465,0.238125 0.161925,0.1524 0.24765,0.358775 0.0889,0.206375 0.0889,0.454025 0,0.24765 -0.0889,0.454025 -0.08573,0.206375 -0.24765,0.36195 -0.15875,0.1524 -0.37465,0.238125 -0.212725,0.08255 -0.466725,0.08255 z m 0,-0.282575 q 0.18415,0 0.339725,-0.0635 0.15875,-0.0635 0.27305,-0.1778 0.117475,-0.117475 0.180975,-0.27305 0.06668,-0.155575 0.06668,-0.339725 0,-0.18415 -0.06668,-0.339725 -0.0635,-0.155575 -0.180975,-0.269875 -0.1143,-0.117475 -0.27305,-0.180975 -0.155575,-0.0635 -0.339725,-0.0635 -0.187325,0 -0.346075,0.0635 -0.155575,0.0635 -0.27305,0.180975 -0.117475,0.1143 -0.18415,0.269875 -0.0635,0.155575 -0.0635,0.339725 0,0.18415 0.0635,0.339725 0.06668,0.155575 0.18415,0.27305 0.117475,0.1143 0.27305,0.1778 0.15875,0.0635 0.346075,0.0635 z m 1.663701,0.257175 v -2.2225 h 0.26035 l 1.470025,1.825625 h -0.136525 v -1.825625 h 0.3175 v 2.2225 h -0.26035 l -1.470025,-1.825625 h 0.136525 v 1.825625 z"
       id="text8"
       aria-label="LOCATION" />
    <path
       d="m 12.494327,20.809952 c -1.618505,-1.995741 -5.2182856,-6.832771 -5.2182856,-9.549714 0,-3.2963926 2.6652636,-5.9685716 5.9531256,-5.9685716 3.286621,0 5.953125,2.672179 5.953125,5.9685716 0,2.716943 -3.627686,7.553973 -5.218286,9.549714 -0.381372,0.47562 -1.088306,0.47562 -1.469679,0 z m 0.73484,-7.56019 c 1.094507,0 1.984375,-0.892177 1.984375,-1.989524 0,-1.097347 -0.889868,-1.9895246 -1.984375,-1.9895246 -1.094507,0 -1.984375,0.8921776 -1.984375,1.9895246 0,1.097347 0.889868,1.989524 1.984375,1.989524 z"
       id="path1"
       style="fill:#4a4e69;fill-opacity:1;stroke-width:0.031046" />
  </g>
</svg>
