<?xml version="1.0" encoding="UTF-8" standalone="no"?>
<!-- Created with Inkscape (http://www.inkscape.org/) -->

<svg
   width="225"
   height="100"
   viewBox="0 0 59.53125 26.458333"
   version="1.1"
   id="svg1"
   inkscape:version="1.4.2 (ebf0e940, 2025-05-08)"
   sodipodi:docname="nametag.svg"
   xmlns:inkscape="http://www.inkscape.org/namespaces/inkscape"
   xmlns:sodipodi="http://sodipodi.sourceforge.net/DTD/sodipodi-0.dtd"
   xmlns="http://www.w3.org/2000/svg"
   xmlns:svg="http://www.w3.org/2000/svg">
  <sodipodi:namedview
     id="namedview1"
     pagecolor="#ffffff"
     bordercolor="#000000"
     borderopacity="0.25"
     inkscape:showpageshadow="2"
     inkscape:pageopacity="0.0"
     inkscape:pagecheckerboard="0"
     inkscape:deskcolor="#d1d1d1"
     inkscape:document-units="px"
     inkscape:zoom="1.780917"
     inkscape:cx="144.86919"
     inkscape:cy="-23.021847"
     inkscape:window-width="1440"
     inkscape:window-height="847"
     inkscape:window-x="0"
     inkscape:window-y="25"
     inkscape:window-maximized="1"
     inkscape:current-layer="layer1"
     showgrid="false" />
  <defs
     id="defs1" />
  <g
     inkscape:label="Layer 1"
     inkscape:groupmode="layer"
     id="layer1">
    <g
       id="g36648"
       transform="matrix(0.30185923,0,0,0.30185923,-17.402385,20.918291)">
      <rect
         style="fill:#4a4e69;fill-opacity:1;stroke:none;stroke-width:1.32292;stroke-linecap:round;stroke-linejoin:round"
         id="rect1877"
         width="39.443054"
         height="39.443054"
         x="97.093719"
         y="-133.35498"
         rx="0"
         ry="0" />
      <rect
         style="fill:#9a8c98;fill-opacity:1;stroke:none;stroke-width:1.32292;stroke-linecap:round;stroke-linejoin:round"
         id="rect2038"
         width="39.443054"
         height="39.443054"
         x="136.53677"
         y="-133.35498"
         rx="0"
         ry="0" />
      <rect
         style="fill:#c9ada7;fill-opacity:1;stroke:none;stroke-width:1.32292;stroke-linecap:round;stroke-linejoin:round"
         id="rect2040"
         width="39.443054"
         height="39.443054"
         x="175.97983"
         y="-133.35498"
         rx="0"
         ry="0" />
      <rect
         style="fill:#f2e9e4;fill-opacity:1;stroke:none;stroke-width:1.32292;stroke-linecap:round;stroke-linejoin:round"
         id="rect10241"
         width="39.443054"
         height="39.443054"
         x="215.42288"
         y="-133.35498"
         rx="0"
         ry="0" />
      <rect
         style="fill:#22223b;fill-opacity:1;stroke:none;stroke-width:1.32292;stroke-linecap:round;stroke-linejoin:round"
         id="rect2437"
         width="39.443054"
         height="39.443054"
         x="57.650665"
         y="-133.35498"
         rx="0"
         ry="0" />
    </g>
    <rect
       style="opacity:0;fill:#000000;stroke-width:0.329485"
       id="rect4"
       width="46.298035"
       height="13.229167"
       x="6.6145835"
       y="6.614583" />
    <path
       style="font-weight:bold;font-size:7.40833px;line-height:1.5;font-family:Montserrat;-inkscape-font-specification:'Montserrat Bold';letter-spacing:0.3175px;fill:#f2e9e4;stroke-width:0.172326"
       d="m 7.9560413,14.6491 q -0.3959745,0 -0.7589506,-0.108655 -0.3629769,-0.113594 -0.5845336,-0.291394 l 0.2592688,-0.602544 q 0.2121292,0.158044 0.4996819,0.26176 0.2922664,0.09878 0.5892473,0.09878 0.2262711,0 0.3629768,-0.04445 0.1414194,-0.04939 0.2074147,-0.13335 0.065996,-0.08396 0.065996,-0.192617 0,-0.138288 -0.1037074,-0.217311 -0.103708,-0.08396 -0.2734113,-0.13335 -0.1697034,-0.05433 -0.3771182,-0.09878 -0.202701,-0.04939 -0.4101164,-0.118534 -0.202701,-0.06914 -0.3724043,-0.1778 Q 6.8906816,12.7822 6.7822605,12.6044 q -0.103708,-0.1778 -0.103708,-0.454377 0,-0.296334 0.1508476,-0.538339 0.1555614,-0.246945 0.4619698,-0.390172 0.3111228,-0.148166 0.777807,-0.148166 0.3111228,0 0.6128174,0.07902 0.3016946,0.07408 0.5326795,0.227189 l -0.2356993,0.607487 q -0.2309849,-0.13829 -0.4619698,-0.202495 -0.2309849,-0.06915 -0.4525422,-0.06915 -0.2215568,0 -0.3629762,0.05433 -0.1414195,0.05433 -0.202701,0.143228 -0.061283,0.08396 -0.061283,0.197555 0,0.13335 0.1037073,0.217311 0.1037074,0.07902 0.2734108,0.128411 0.1697033,0.04939 0.3724043,0.09878 0.2074154,0.04939 0.4101164,0.113594 0.2074148,0.06421 0.3771182,0.172862 0.1697033,0.108655 0.2734113,0.286455 0.1084212,0.1778 0.1084212,0.449439 0,0.291394 -0.1555614,0.5334 Q 9.044969,14.352767 8.7338468,14.500934 8.4274378,14.6491 7.9560398,14.6491 Z m 1.6916477,-0.05927 1.470762,-3.45722 h 0.754237 l 1.475475,3.45722 h -0.801376 l -1.206779,-3.052232 h 0.301695 L 10.43021,14.58983 Z m 0.735381,-0.740833 0.202701,-0.607483 h 1.697033 l 0.207415,0.607483 z m 3.511245,0.740833 v -3.45722 h 1.40948 q 0.688241,0 1.070073,0.335844 0.381833,0.330905 0.381833,0.918632 0,0.385234 -0.174417,0.66675 -0.174418,0.276578 -0.494968,0.424744 -0.320551,0.148167 -0.763665,0.148167 h -1.004078 l 0.339407,-0.350661 v 1.313744 z m 2.097721,0 -0.824946,-1.254477 h 0.815518 l 0.834374,1.254477 z M 14.65798,13.364986 14.318573,12.989631 h 0.961652 q 0.353548,0 0.527965,-0.158045 0.174418,-0.162983 0.174418,-0.4445 0,-0.286455 -0.174418,-0.444499 -0.174417,-0.158045 -0.527965,-0.158045 h -0.961652 l 0.339407,-0.380294 z m 2.90314,1.224844 v -3.45722 h 0.631673 l 1.404767,2.43981 h -0.334693 l 1.381196,-2.43981 h 0.62696 l 0.0094,3.45722 h -0.716526 l -0.0047,-2.30646 h 0.131992 l -1.103071,1.940982 H 19.243997 L 18.117356,12.28337 h 0.160275 v 2.30646 z m 4.270192,0 1.470762,-3.45722 h 0.754237 l 1.475475,3.45722 H 24.73041 l -1.20678,-3.052232 h 0.301696 l -1.211493,3.052232 z m 0.735381,-0.740833 0.202701,-0.607483 h 1.697032 l 0.207416,0.607483 z m 3.511245,0.740833 v -3.45722 h 1.499046 q 0.537394,0 0.947509,0.21731 0.410117,0.212372 0.641102,0.597606 0.230985,0.385233 0.230985,0.913694 0,0.523522 -0.230985,0.913694 -0.230985,0.385233 -0.641102,0.602544 -0.410115,0.212372 -0.947509,0.212372 z m 0.763665,-0.656872 h 0.697669 q 0.329978,0 0.570391,-0.128411 0.245127,-0.13335 0.377119,-0.375355 0.136705,-0.242006 0.136705,-0.567972 0,-0.330906 -0.136705,-0.567972 -0.131992,-0.242006 -0.377119,-0.370417 -0.240413,-0.13335 -0.570391,-0.13335 h -0.697669 z m 6.466239,0.716138 q -0.386546,0 -0.721238,-0.133349 -0.329979,-0.13335 -0.575106,-0.375355 -0.240413,-0.242006 -0.377119,-0.567972 -0.131991,-0.325967 -0.131991,-0.7112 0,-0.385234 0.131991,-0.7112 0.136706,-0.325966 0.381833,-0.567972 0.245127,-0.242006 0.575105,-0.375355 0.329979,-0.13335 0.716525,-0.13335 0.39126,0 0.716525,0.13335 0.329978,0.133349 0.570391,0.375355 0.245127,0.237066 0.381833,0.563033 0.136705,0.325967 0.136705,0.716139 0,0.385233 -0.136705,0.716138 -0.136706,0.325967 -0.381833,0.567972 -0.240413,0.237067 -0.570391,0.370417 -0.325265,0.133349 -0.716525,0.133349 z m 1.079502,0.735895 q -0.193274,0 -0.367691,-0.04445 -0.169703,-0.04445 -0.339407,-0.143228 -0.164989,-0.09878 -0.348834,-0.2667 -0.179131,-0.167922 -0.391261,-0.414866 l 0.801377,-0.212373 q 0.127277,0.182739 0.235699,0.291395 0.108422,0.108655 0.207415,0.153105 0.103708,0.04445 0.216844,0.04445 0.301694,0 0.537393,-0.256822 l 0.339407,0.424744 q -0.334693,0.424745 -0.890942,0.424745 z M 33.307842,13.96753 q 0.221557,0 0.405402,-0.07902 0.18856,-0.07902 0.329979,-0.227188 0.141419,-0.148167 0.216843,-0.350662 0.08014,-0.207433 0.08014,-0.449438 0,-0.246944 -0.08014,-0.449439 -0.07542,-0.202495 -0.216843,-0.350661 -0.141419,-0.148166 -0.329979,-0.227189 -0.183845,-0.07902 -0.405402,-0.07902 -0.221557,0 -0.410116,0.07902 -0.188559,0.07902 -0.329979,0.227189 -0.136705,0.148166 -0.216843,0.350661 -0.07542,0.202495 -0.07542,0.449439 0,0.242005 0.07542,0.449438 0.08014,0.202495 0.216843,0.350662 0.14142,0.148166 0.329979,0.227188 0.188559,0.07902 0.410116,0.07902 z m 2.10176,0.6223 1.470761,-3.45722 H 37.6346 l 1.475476,3.45722 h -0.801377 l -1.206778,-3.052228 h 0.301694 l -1.211492,3.052232 z m 0.735381,-0.740833 0.202701,-0.607483 h 1.697033 l 0.207414,0.607483 z m 4.59546,0.800099 q -0.395974,0 -0.75895,-0.108655 -0.362977,-0.113594 -0.584534,-0.291394 l 0.259269,-0.602544 q 0.212129,0.158044 0.499682,0.261761 0.292267,0.09878 0.589247,0.09878 0.226271,0 0.362977,-0.04445 0.141419,-0.04939 0.207415,-0.13335 0.066,-0.08396 0.066,-0.192616 0,-0.138289 -0.103708,-0.217312 -0.103708,-0.08396 -0.273411,-0.13335 -0.169703,-0.05433 -0.377118,-0.09878 -0.202701,-0.04939 -0.410117,-0.118533 -0.202701,-0.06914 -0.372404,-0.1778 -0.169703,-0.108656 -0.278125,-0.286456 -0.103707,-0.1778 -0.103707,-0.454377 0,-0.296333 0.150847,-0.538339 0.155561,-0.246944 0.46197,-0.390172 0.311123,-0.148166 0.777807,-0.148166 0.311123,0 0.612817,0.07902 0.301695,0.07408 0.53268,0.227188 l -0.235699,0.607484 q -0.230986,-0.13829 -0.46197,-0.202495 -0.230985,-0.06915 -0.452542,-0.06915 -0.221557,0 -0.362977,0.05433 -0.141419,0.05433 -0.202701,0.143228 -0.06128,0.08396 -0.06128,0.197555 0,0.13335 0.103708,0.217311 0.103707,0.07902 0.27341,0.128411 0.169704,0.04939 0.372405,0.09878 0.207415,0.04939 0.410116,0.113594 0.207415,0.06421 0.377118,0.172862 0.169704,0.108655 0.273411,0.286455 0.108422,0.1778 0.108422,0.449439 0,0.291394 -0.155562,0.5334 -0.155561,0.242005 -0.466684,0.390172 -0.306408,0.148166 -0.777806,0.148166 z m 3.209549,0 q -0.395974,0 -0.75895,-0.108655 -0.362977,-0.113594 -0.584534,-0.291394 l 0.259269,-0.602544 q 0.212129,0.158044 0.499682,0.261761 0.292266,0.09878 0.589247,0.09878 0.226271,0 0.362977,-0.04445 0.141419,-0.04939 0.207415,-0.13335 0.066,-0.08396 0.066,-0.192616 0,-0.138289 -0.103709,-0.217312 -0.103707,-0.08396 -0.27341,-0.13335 -0.169704,-0.05433 -0.377118,-0.09878 -0.202701,-0.04939 -0.410117,-0.118533 -0.202701,-0.06914 -0.372404,-0.1778 -0.169703,-0.108656 -0.278125,-0.286456 -0.103708,-0.1778 -0.103708,-0.454377 0,-0.296333 0.150848,-0.538339 0.155561,-0.246944 0.46197,-0.390172 0.311123,-0.148166 0.777807,-0.148166 0.311122,0 0.612817,0.07902 0.301695,0.07408 0.53268,0.227188 l -0.2357,0.607484 q -0.230984,-0.13829 -0.461969,-0.202495 -0.230985,-0.06915 -0.452543,-0.06915 -0.221556,0 -0.362976,0.05433 -0.141419,0.05433 -0.202701,0.143228 -0.06128,0.08396 -0.06128,0.197555 0,0.13335 0.103708,0.217311 0.103708,0.07902 0.273411,0.128411 0.169703,0.04939 0.372404,0.09878 0.207415,0.04939 0.410117,0.113594 0.207415,0.06421 0.377118,0.172862 0.169703,0.108655 0.273411,0.286455 0.108422,0.1778 0.108422,0.449439 0,0.291394 -0.155562,0.5334 -0.155561,0.242005 -0.466684,0.390172 -0.306408,0.148166 -0.777806,0.148166 z m 1.691647,-0.05927 1.470762,-3.457221 h 0.754237 l 1.475475,3.457221 h -0.801376 l -1.206779,-3.052232 h 0.301695 l -1.211493,3.052232 z m 0.735381,-0.740834 0.202701,-0.607483 h 1.697033 l 0.207415,0.607483 z m 3.511245,0.740834 v -3.457214 h 1.612181 q 0.622246,0 0.933369,0.246944 0.315836,0.246945 0.315836,0.651933 0,0.271639 -0.127277,0.474133 -0.127278,0.197555 -0.348835,0.306211 -0.221557,0.108656 -0.509109,0.108656 L 51.854,12.717994 q 0.311123,0 0.551536,0.108656 0.240412,0.103717 0.372404,0.31115 0.136705,0.207433 0.136705,0.508705 0,0.4445 -0.334692,0.696383 -0.334693,0.246945 -0.985222,0.246945 z m 0.758951,-0.602545 h 0.890943 q 0.29698,0 0.447827,-0.09878 0.155562,-0.103717 0.155562,-0.325967 0,-0.217311 -0.155562,-0.321028 -0.150847,-0.108655 -0.447827,-0.108655 h -0.94751 v -0.582779 h 0.815518 q 0.278125,0 0.424258,-0.09878 0.150848,-0.103717 0.150848,-0.31115 0,-0.202495 -0.150848,-0.301272 -0.146133,-0.103717 -0.424258,-0.103717 h -0.758951 z"
       id="text3"
       aria-label="SARMAD QASSAB" />
    <path
       d="M 19.920694,9.105193 V 6.635747 h 0.959633 q 0.377118,0 0.659957,0.15875 0.286207,0.155223 0.444462,0.433917 0.158255,0.278695 0.158255,0.642056 0,0.363361 -0.158255,0.642056 -0.158255,0.278695 -0.444462,0.437445 -0.282839,0.155222 -0.659957,0.155222 z m 0.249168,-0.225778 h 0.696996 q 0.313144,0 0.542108,-0.127 Q 21.641298,8.621887 21.76925,8.396109 21.8972,8.166803 21.8972,7.87047 21.8972,7.570609 21.76925,7.344831 21.641298,7.119053 21.408966,6.992053 21.180002,6.861525 20.866858,6.861525 h -0.696996 z m 4.589402,0.246945 q -0.266003,0 -0.494968,-0.09172 -0.225598,-0.09525 -0.393955,-0.264584 -0.164989,-0.172861 -0.259269,-0.398639 -0.09091,-0.229306 -0.09091,-0.500945 0,-0.271639 0.09091,-0.497417 0.09428,-0.229306 0.259269,-0.398639 0.168357,-0.172861 0.393955,-0.264583 0.225598,-0.09525 0.494968,-0.09525 0.266004,0 0.491602,0.09525 0.225597,0.09172 0.390587,0.261056 0.168357,0.169333 0.259269,0.398638 0.09428,0.229306 0.09428,0.500945 0,0.271639 -0.09428,0.500945 -0.09091,0.229306 -0.259269,0.398639 -0.16499,0.169334 -0.390587,0.264584 -0.225598,0.09172 -0.491602,0.09172 z m 0,-0.232834 q 0.21213,0 0.390588,-0.07408 0.181825,-0.07761 0.313143,-0.215194 0.134685,-0.141112 0.208762,-0.324556 0.07408,-0.186973 0.07408,-0.409223 0,-0.22225 -0.07408,-0.405695 -0.07408,-0.186972 -0.208762,-0.324555 -0.131318,-0.141111 -0.313143,-0.215195 -0.178458,-0.07761 -0.390588,-0.07761 -0.212129,0 -0.393954,0.07761 -0.181825,0.07408 -0.316511,0.215195 -0.131318,0.137583 -0.208762,0.324555 -0.07408,0.183445 -0.07408,0.405695 0,0.218723 0.07408,0.405695 0.07744,0.186972 0.208762,0.328084 0.134686,0.137583 0.316511,0.215194 0.181825,0.07408 0.393954,0.07408 z m 3.845268,0.232834 q -0.266004,0 -0.491602,-0.09172 -0.225598,-0.09525 -0.390587,-0.264584 -0.164989,-0.169333 -0.259269,-0.398639 -0.09091,-0.229306 -0.09091,-0.500945 0,-0.271639 0.09091,-0.500945 0.09428,-0.229305 0.259269,-0.398638 0.168357,-0.169334 0.393955,-0.261056 0.225597,-0.09525 0.491601,-0.09525 0.255902,0 0.4815,0.09172 0.225597,0.08819 0.380485,0.268111 L 29.311629,7.14022 Q 29.166843,6.984997 28.991752,6.91797 28.816661,6.84741 28.614633,6.84741 q -0.212129,0 -0.393954,0.07761 -0.181825,0.07408 -0.316511,0.215195 -0.134685,0.137583 -0.212129,0.324555 -0.07408,0.183445 -0.07408,0.405695 0,0.22225 0.07408,0.409222 0.07744,0.183445 0.212129,0.324556 0.134686,0.137584 0.316511,0.215195 0.181825,0.07408 0.393954,0.07408 0.202028,0 0.377119,-0.07056 0.175091,-0.07056 0.319877,-0.225778 l 0.158255,0.165805 q -0.154888,0.179917 -0.380485,0.271639 -0.225598,0.09172 -0.484867,0.09172 z M 31.404174,9.10519 V 6.861525 H 30.575859 V 6.635747 h 1.905796 v 0.225778 h -0.828314 v 2.243668 z m 3.498448,0.02117 q -0.266003,0 -0.494968,-0.09172 Q 34.182056,8.93939 34.013699,8.770056 33.84871,8.597195 33.75443,8.371417 33.66352,8.142111 33.66352,7.870472 q 0,-0.271639 0.09091,-0.497417 0.09428,-0.229306 0.259269,-0.398639 0.168357,-0.172861 0.393955,-0.264583 0.225597,-0.09525 0.494968,-0.09525 0.266004,0 0.491602,0.09525 0.225598,0.09172 0.390586,0.261056 0.168357,0.169333 0.25927,0.398638 0.09428,0.229306 0.09428,0.500945 0,0.271639 -0.09428,0.500945 -0.09091,0.229306 -0.25927,0.398639 -0.164988,0.169334 -0.390586,0.264584 -0.225598,0.09172 -0.491602,0.09172 z m 0,-0.232834 q 0.212129,0 0.390588,-0.07408 0.181825,-0.07761 0.313143,-0.215194 0.134685,-0.141112 0.208762,-0.324556 0.07408,-0.186973 0.07408,-0.409223 0,-0.22225 -0.07408,-0.405695 -0.07408,-0.186972 -0.208762,-0.324555 -0.131318,-0.141111 -0.313143,-0.215195 -0.178459,-0.07761 -0.390588,-0.07761 -0.212129,0 -0.393954,0.07761 -0.181826,0.07408 -0.31651,0.215195 -0.131319,0.137583 -0.208763,0.324555 -0.07408,0.183445 -0.07408,0.405695 0,0.218723 0.07408,0.405695 0.07744,0.186972 0.208763,0.328084 0.134684,0.137583 0.31651,0.215194 0.181825,0.07408 0.393954,0.07408 z m 2.82166,0.211667 V 6.635747 h 0.882188 q 0.447828,0 0.703731,0.225778 0.259269,0.22225 0.259269,0.620889 0,0.261056 -0.11785,0.451556 -0.114483,0.186972 -0.329979,0.289278 -0.215496,0.09878 -0.515171,0.09878 h -0.744136 l 0.111115,-0.119945 v 0.903112 z m 1.609489,0 -0.606084,-0.896056 h 0.26937 l 0.609451,0.896056 z M 37.973449,8.223248 37.862334,8.099776 h 0.737402 q 0.353549,0 0.535374,-0.162278 0.185192,-0.162278 0.185192,-0.455084 0,-0.296334 -0.185192,-0.458611 -0.181825,-0.162278 -0.535374,-0.162278 h -0.737402 l 0.111115,-0.123473 z"
       id="text5"
       style="font-size:5.29167px;line-height:1.5;font-family:Montserrat;-inkscape-font-specification:Montserrat;letter-spacing:1.61396px;fill:#f2e9e4;stroke-width:0.172326"
       aria-label="DOCTOR" />
    <path
       d="m 6.6485103,19.822584 v -2.469446 h 0.8821886 q 0.2996748,0 0.5151712,0.102305 0.2154964,0.09878 0.3299789,0.289278 0.1178497,0.186973 0.1178497,0.455084 0,0.261055 -0.1178497,0.451556 -0.1144825,0.186972 -0.3299789,0.289277 -0.2154964,0.102306 -0.5151712,0.102306 H 6.7865627 L 6.897678,18.919472 v 0.903112 z m 0.2491677,-0.881946 -0.1111153,-0.127 h 0.7374019 q 0.3535489,0 0.535374,-0.15875 0.1851923,-0.162278 0.1851923,-0.455083 0,-0.296333 -0.1851923,-0.458611 -0.1818251,-0.162278 -0.535374,-0.162278 H 6.7865627 L 6.897678,17.455443 Z m 3.161738,0.881946 v -2.469446 h 0.249168 v 2.243668 H 11.6285 v 0.225778 z m 2.6331,0 1.077483,-2.469446 h 0.2458 l 1.077483,2.469446 h -0.262637 l -0.989936,-2.317752 h 0.101014 l -0.989937,2.317752 z m 0.424259,-0.659695 0.07408,-0.211667 h 1.370423 l 0.07408,0.211667 z m 4.043929,0.680861 q -0.262636,0 -0.505069,-0.08819 -0.239067,-0.09172 -0.370385,-0.232834 l 0.09765,-0.201083 q 0.124584,0.127 0.333346,0.215195 0.212129,0.08467 0.444461,0.08467 0.222231,0 0.360283,-0.05645 0.14142,-0.05997 0.205396,-0.15875 0.06734,-0.09878 0.06734,-0.218723 0,-0.144639 -0.08081,-0.232833 -0.07745,-0.08819 -0.205395,-0.137584 -0.127951,-0.05292 -0.282839,-0.09172 -0.154888,-0.03881 -0.309777,-0.08114 -0.154888,-0.04586 -0.286206,-0.119945 -0.127951,-0.07408 -0.208762,-0.194027 -0.07744,-0.123473 -0.07744,-0.321028 0,-0.183445 0.09091,-0.335139 0.09428,-0.155222 0.286207,-0.246945 0.191926,-0.09525 0.491601,-0.09525 0.198661,0 0.393954,0.05997 0.195294,0.05645 0.336713,0.158751 l -0.08418,0.208139 Q 17.706181,17.653 17.534457,17.603612 q -0.168357,-0.04939 -0.326612,-0.04939 -0.212129,0 -0.350182,0.05997 -0.138052,0.05997 -0.205395,0.162278 -0.06397,0.09878 -0.06397,0.225778 0,0.144639 0.07744,0.232834 0.08081,0.08819 0.208762,0.137583 0.131318,0.04939 0.286206,0.08819 0.154888,0.03881 0.306409,0.08467 0.154888,0.04586 0.282839,0.119944 0.131318,0.07056 0.208763,0.1905 0.08081,0.119945 0.08081,0.313973 0,0.179917 -0.09428,0.335139 -0.09428,0.151694 -0.289574,0.246945 -0.191926,0.09172 -0.494968,0.09172 z m 2.872163,-0.02117 v -2.243668 h -0.828315 v -0.225778 h 1.905797 v 0.225778 h -0.828314 v 2.243668 z m 2.501777,0 v -2.469446 h 0.249167 v 2.469446 z m 3.067457,0.02117 q -0.266003,0 -0.491601,-0.09172 -0.225598,-0.09525 -0.390587,-0.264584 -0.16499,-0.169333 -0.25927,-0.398638 -0.09091,-0.229306 -0.09091,-0.500946 0,-0.271638 0.09091,-0.500944 0.09428,-0.229306 0.25927,-0.398639 0.168356,-0.169333 0.393954,-0.261056 0.225598,-0.09525 0.491601,-0.09525 0.255902,0 0.4815,0.09172 0.225598,0.08819 0.380486,0.268111 L 26.309199,17.85761 Q 26.164412,17.702388 25.989321,17.63536 25.81423,17.5648 25.612202,17.5648 q -0.212129,0 -0.393954,0.07761 -0.181825,0.07408 -0.31651,0.215194 -0.134686,0.137584 -0.212129,0.324556 -0.07408,0.183444 -0.07408,0.405694 0,0.222251 0.07408,0.409223 0.07744,0.183445 0.212129,0.324556 0.134685,0.137583 0.31651,0.215195 0.181825,0.07408 0.393954,0.07408 0.202028,0 0.377119,-0.07056 0.175091,-0.07056 0.319878,-0.225778 l 0.158255,0.165806 q -0.154888,0.179917 -0.380486,0.271639 -0.225598,0.09172 -0.484867,0.09172 z m 4.949682,0 q -0.262636,0 -0.50507,-0.08819 -0.239066,-0.09172 -0.370384,-0.232834 l 0.09765,-0.201083 q 0.124584,0.127 0.333346,0.215195 0.21213,0.08467 0.444462,0.08467 0.222231,0 0.360283,-0.05645 0.14142,-0.05997 0.205395,-0.15875 0.06734,-0.09878 0.06734,-0.218723 0,-0.144639 -0.08081,-0.232833 -0.07745,-0.08819 -0.205395,-0.137584 -0.127952,-0.05292 -0.282839,-0.09172 -0.154888,-0.03881 -0.309777,-0.08114 -0.154888,-0.04586 -0.286206,-0.119945 -0.127951,-0.07408 -0.208762,-0.194027 -0.07744,-0.123473 -0.07744,-0.321028 0,-0.183445 0.09091,-0.335139 0.09428,-0.155222 0.286207,-0.246945 0.191926,-0.09525 0.491601,-0.09525 0.198661,0 0.393954,0.05997 0.195294,0.05645 0.336713,0.158751 l -0.08418,0.208139 Q 31.097259,17.653 30.925536,17.603612 q -0.168357,-0.04939 -0.326612,-0.04939 -0.212129,0 -0.350182,0.05997 -0.138052,0.05997 -0.205395,0.162278 -0.06398,0.09878 -0.06398,0.225778 0,0.144639 0.07744,0.232834 0.08081,0.08819 0.208763,0.137583 0.131318,0.04939 0.286206,0.08819 0.154888,0.03881 0.306409,0.08467 0.154888,0.04586 0.282839,0.119944 0.131318,0.07056 0.208763,0.1905 0.08081,0.119945 0.08081,0.313973 0,0.179917 -0.09428,0.335139 -0.09428,0.151694 -0.289574,0.246945 -0.191926,0.09172 -0.494968,0.09172 z m 3.397436,0 q -0.451196,0 -0.710465,-0.271639 -0.259269,-0.271639 -0.259269,-0.804333 v -1.41464 h 0.249168 v 1.404056 q 0,0.437445 0.188559,0.645584 0.188559,0.208139 0.532007,0.208139 0.346814,0 0.535374,-0.208139 0.188559,-0.208139 0.188559,-0.645584 v -1.404056 h 0.242433 v 1.41464 q 0,0.532694 -0.259269,0.804333 -0.255902,0.271639 -0.707097,0.271639 z m 2.74421,-0.02117 v -2.469446 h 0.882188 q 0.447829,0 0.703731,0.225778 0.259269,0.22225 0.259269,0.620889 0,0.261055 -0.11785,0.451556 -0.114482,0.186972 -0.329978,0.289277 -0.215497,0.09878 -0.515172,0.09878 h -0.744136 l 0.111116,-0.119944 v 0.903112 z m 1.609489,0 -0.606084,-0.896056 h 0.269371 l 0.609451,0.896056 z m -1.360321,-0.881942 -0.111116,-0.123472 h 0.737402 q 0.353549,0 0.535374,-0.162278 0.185192,-0.162278 0.185192,-0.455083 0,-0.296333 -0.185192,-0.458611 -0.181825,-0.162278 -0.535374,-0.162278 h -0.737402 l 0.111116,-0.123473 z m 4.245952,0.903112 q -0.269371,0 -0.498336,-0.09172 -0.225598,-0.09525 -0.393954,-0.264584 -0.164989,-0.169333 -0.259269,-0.398638 -0.09091,-0.229306 -0.09091,-0.500946 0,-0.271638 0.09091,-0.500944 0.09428,-0.229306 0.262636,-0.398639 0.168357,-0.169333 0.393954,-0.261056 0.228965,-0.09525 0.498336,-0.09525 0.26937,0 0.491601,0.08819 0.225598,0.08819 0.383853,0.268111 l -0.154888,0.165805 q -0.148154,-0.155222 -0.326612,-0.22225 -0.178458,-0.06703 -0.383852,-0.06703 -0.218864,0 -0.404057,0.07761 -0.181825,0.07408 -0.319877,0.215194 -0.134685,0.137584 -0.21213,0.324556 -0.07408,0.183444 -0.07408,0.405694 0,0.218723 0.07408,0.405696 0.07744,0.186972 0.21213,0.328083 0.138052,0.137583 0.319877,0.215195 0.185193,0.07408 0.400689,0.07408 0.202028,0 0.380486,-0.0635 0.181825,-0.0635 0.333346,-0.215195 l 0.14142,0.197556 q -0.168357,0.155222 -0.393955,0.236361 -0.225598,0.07761 -0.471398,0.07761 z m 0.865353,-0.313972 -0.239067,-0.03175 v -0.910167 h 0.239067 z m 1.730709,0.292806 v -2.469446 h 1.616224 v 0.225778 h -1.367056 v 2.01789 h 1.417563 v 0.225778 z m 0.222231,-1.143001 v -0.22225 h 1.245838 v 0.22225 z m 4.080419,1.164167 q -0.266004,0 -0.494969,-0.09172 -0.225598,-0.09525 -0.393954,-0.264584 -0.16499,-0.172861 -0.25927,-0.398638 -0.09091,-0.229306 -0.09091,-0.500946 0,-0.271638 0.09091,-0.497416 0.09428,-0.229306 0.25927,-0.39864 0.168356,-0.17286 0.393954,-0.264583 0.225598,-0.09525 0.494969,-0.09525 0.266003,0 0.491601,0.09525 0.225597,0.09172 0.390587,0.261056 0.168357,0.169333 0.259269,0.398639 0.09428,0.229306 0.09428,0.500944 0,0.27164 -0.09428,0.500946 -0.09091,0.229305 -0.259269,0.398638 -0.16499,0.169334 -0.390587,0.264584 -0.225598,0.09172 -0.491601,0.09172 z m 0,-0.232833 q 0.212129,0 0.390587,-0.07408 0.181825,-0.07761 0.313143,-0.215195 0.134686,-0.141111 0.208762,-0.324556 0.07408,-0.186972 0.07408,-0.409223 0,-0.22225 -0.07408,-0.405694 -0.07408,-0.186972 -0.208762,-0.324556 -0.131318,-0.141111 -0.313143,-0.215194 -0.178458,-0.07761 -0.390587,-0.07761 -0.212129,0 -0.393955,0.07761 -0.181825,0.07408 -0.31651,0.215194 -0.131319,0.137584 -0.208762,0.324556 -0.07408,0.183444 -0.07408,0.405694 0,0.218723 0.07408,0.405696 0.07744,0.186972 0.208762,0.328083 0.134685,0.137583 0.31651,0.215195 0.181826,0.07408 0.393955,0.07408 z m 2.821658,0.211667 v -2.469446 h 0.205394 l 1.626325,2.14489 h -0.107747 v -2.14489 h 0.2458 v 2.469446 h -0.205395 l -1.622958,-2.14489 h 0.107748 v 2.14489 z"
       id="text6"
       style="font-size:5.29167px;line-height:1.5;font-family:Montserrat;-inkscape-font-specification:Montserrat;letter-spacing:1.61396px;fill:#f2e9e4;stroke-width:0.172326"
       aria-label="PLASTIC SURGEON" />
  </g>
</svg>
