<?xml version="1.0" encoding="UTF-8" standalone="no"?>
<!-- Created with Inkscape (http://www.inkscape.org/) -->

<svg
   width="600"
   height="400"
   viewBox="0 0 158.75 105.83333"
   version="1.1"
   id="svg1"
   inkscape:version="1.4.2 (ebf0e940d0, 2025-05-08)"
   sodipodi:docname="services-ar.svg"
   xmlns:inkscape="http://www.inkscape.org/namespaces/inkscape"
   xmlns:sodipodi="http://sodipodi.sourceforge.net/DTD/sodipodi-0.dtd"
   xmlns="http://www.w3.org/2000/svg"
   xmlns:svg="http://www.w3.org/2000/svg">
  <sodipodi:namedview
     id="namedview1"
     pagecolor="#ffffff"
     bordercolor="#000000"
     borderopacity="0.25"
     inkscape:showpageshadow="2"
     inkscape:pageopacity="0.0"
     inkscape:pagecheckerboard="0"
     inkscape:deskcolor="#d1d1d1"
     inkscape:document-units="px"
     inkscape:zoom="1.0324986"
     inkscape:cx="318.6445"
     inkscape:cy="155.44815"
     inkscape:window-width="2560"
     inkscape:window-height="1368"
     inkscape:window-x="0"
     inkscape:window-y="0"
     inkscape:window-maximized="1"
     inkscape:current-layer="layer1" />
  <defs
     id="defs1" />
  <g
     inkscape:label="Layer 1"
     inkscape:groupmode="layer"
     id="layer1">
    <rect
       style="fill:#22223b;stroke-width:0.264583"
       id="rect1"
       width="158.75"
       height="105.83333"
       x="-1.25e-06"
       y="1.7097982e-06" />
    <g
       id="text3"
       style="font-weight:500;font-size:5.64444px;line-height:1.5;font-family:'Noto Kufi Arabic';-inkscape-font-specification:'Noto Kufi Arabic Medium';text-align:center;letter-spacing:0px;direction:rtl;text-anchor:middle;display:inline;fill:#c9ada7;fill-opacity:1;stroke-width:0.264583"
       aria-label="عملية تجميل الانف - شد الوجه و الرقبة&#10;شد الاجفان - فلر - بوتوكس&#10;شفط و حقن الشحوم - شد البطن&#10;تكبير و رفع الثدي&#10;عملية تقويم اثار الحروق&#10;تقويم الجروح المزمنة&#10;تقويم الشق الشفة و اللهاة&#10;جراحة اليد و الاعصاب المحيطية"
       transform="matrix(1.0113134,0,0,1.0113134,-27.150281,-122.98534)">
      <path
         d="m 152.08829,145.68474 q -0.0282,0 -0.0282,-0.0282 v -0.46849 q 0,-0.0226 0.0282,-0.0226 h 0.86924 q -0.19191,-0.13547 -0.3048,-0.38382 -0.11289,-0.254 -0.11289,-0.5588 0,-0.63218 0.38382,-0.98778 0.38383,-0.36124 1.02729,-0.36124 0.24836,0 0.47413,0.0508 0.22578,0.0508 0.36689,0.11853 l -0.18062,0.50236 q -0.36124,-0.1524 -0.68298,-0.1524 -0.77893,0 -0.77893,0.85795 0,0.4064 0.19191,0.6604 0.19191,0.254 0.51365,0.254 h 1.01035 v 0.51929 z m -2.83351,-0.51929 q -0.18627,-0.47978 -0.18627,-0.90311 0,-0.24836 0.0564,-0.49107 0.0621,-0.24835 0.17497,-0.44591 0.22578,-0.16933 0.508,-0.26529 0.28223,-0.0959 0.55316,-0.0959 0.17498,0 0.33866,0.0395 0.16934,0.0395 0.3048,0.11853 0.28787,0.16369 0.44027,0.4572 0.1524,0.28787 0.1524,0.6604 0,0.34996 -0.11289,0.63782 0.11289,0.16369 0.254,0.22578 0.14111,0.0621 0.37818,0.0621 h 0.0282 q 0.0282,0 0.0282,0.0226 v 0.46849 q 0,0.0282 -0.0282,0.0282 h -0.0282 q -0.3048,0 -0.51929,-0.079 -0.20884,-0.0847 -0.4064,-0.29351 -0.19191,0.18626 -0.44591,0.28222 -0.24836,0.0903 -0.51929,0.0903 h -1.64817 q -0.0282,0 -0.0282,-0.0282 v -0.46849 q 0,-0.0226 0.0282,-0.0226 z m 0.41204,-0.92569 q 0,0.22013 0.0395,0.44591 0.0395,0.22014 0.14676,0.47978 h 0.33866 q 0.36125,0 0.57009,-0.24836 0.21449,-0.24835 0.21449,-0.67733 0,-0.33866 -0.18062,-0.54751 -0.18062,-0.20884 -0.44027,-0.20884 -0.16369,0 -0.32173,0.0564 -0.15804,0.0565 -0.29351,0.14676 -0.0452,0.12982 -0.0621,0.26529 -0.0113,0.13546 -0.0113,0.28786 z m -3.11573,1.44498 q -0.0282,0 -0.0282,-0.0282 v -0.46849 q 0,-0.0226 0.0282,-0.0226 h 0.73378 v -3.77049 h 0.61524 v 3.77049 h 0.73378 q 0.0282,0 0.0282,0.0226 v 0.46849 q 0,0.0282 -0.0282,0.0282 z m -2.30858,0 q -0.0282,0 -0.0282,-0.0282 v -0.46849 q 0,-0.0226 0.0282,-0.0226 h 0.90312 v -2.2352 h 0.61524 v 2.2352 h 0.84667 q 0.0282,0 0.0282,0.0226 v 0.46849 q 0,0.0282 -0.0282,0.0282 z m 0.64347,1.19097 q -0.14675,0 -0.24271,-0.0903 -0.0959,-0.0903 -0.0959,-0.27093 0,-0.18627 0.0959,-0.27658 0.096,-0.0847 0.24271,-0.0847 0.1524,0 0.24271,0.0903 0.0903,0.096 0.0903,0.27094 0,0.16933 -0.0903,0.26529 -0.0903,0.0959 -0.24271,0.0959 z m 0.97085,0 q -0.15805,0 -0.24836,-0.0959 -0.0903,-0.096 -0.0903,-0.26529 0,-0.17498 0.0903,-0.27094 0.0903,-0.0903 0.24836,-0.0903 0.15804,0 0.24271,0.096 0.0903,0.1016 0.0903,0.26529 0,0.16369 -0.0903,0.25964 -0.0847,0.1016 -0.24271,0.1016 z m -3.20041,-1.19097 q -0.71684,0 -1.11195,-0.34996 -0.39511,-0.34995 -0.39511,-0.98213 0,-0.44591 0.19755,-0.762 0.19756,-0.32173 0.55316,-0.49107 0.3556,-0.16933 0.82973,-0.16933 h 0.29916 v -0.33302 h 0.60395 v 2.56822 h 0.66605 q 0.0282,0 0.0282,0.0226 v 0.46849 q 0,0.0282 -0.0282,0.0282 z m 0.37818,-0.51929 v -1.71591 h -0.28786 q -0.46849,0 -0.72249,0.23707 -0.254,0.23142 -0.254,0.66604 0,0.39511 0.22578,0.60396 0.23142,0.20884 0.65475,0.20884 z m -1.07245,-3.21168 q -0.14675,0 -0.24271,-0.0903 -0.0959,-0.0903 -0.0959,-0.27094 0,-0.18626 0.0959,-0.27093 0.096,-0.0903 0.24271,-0.0903 0.15805,0 0.24836,0.0959 0.0847,0.0903 0.0847,0.26529 0,0.16934 -0.0847,0.26529 -0.0903,0.096 -0.24836,0.096 z m 0.97085,0 q -0.15805,0 -0.24836,-0.096 -0.0903,-0.0959 -0.0903,-0.26529 0,-0.17498 0.0903,-0.26529 0.0903,-0.0959 0.24836,-0.0959 0.15804,0 0.24271,0.0959 0.0903,0.096 0.0903,0.26529 0,0.16369 -0.0903,0.26529 -0.0847,0.096 -0.24271,0.096 z m -6.26533,3.73097 q -0.0282,0 -0.0282,-0.0282 v -0.46849 q 0,-0.0226 0.0282,-0.0226 h 1.04987 v -2.2352 h 0.61524 v 2.75449 z m 0.6999,-3.38102 q -0.14675,0 -0.24271,-0.0903 -0.096,-0.0903 -0.096,-0.27093 0,-0.18627 0.096,-0.27093 0.096,-0.0903 0.24271,-0.0903 0.15805,0 0.24836,0.0959 0.0847,0.0903 0.0847,0.26529 0,0.16933 -0.0847,0.26529 -0.0903,0.0959 -0.24836,0.0959 z m 0.97085,0 q -0.15805,0 -0.24836,-0.0959 -0.0903,-0.096 -0.0903,-0.26529 0,-0.17498 0.0903,-0.26529 0.0903,-0.0959 0.24836,-0.0959 0.15804,0 0.24271,0.0959 0.0903,0.096 0.0903,0.26529 0,0.16369 -0.0903,0.26529 -0.0847,0.0959 -0.24271,0.0959 z m -4.97274,3.38102 q -0.0282,0 -0.0282,-0.0282 v -0.46849 q 0,-0.0226 0.0282,-0.0226 h 2.37631 q -0.22014,-0.21449 -0.3556,-0.95956 -0.079,-0.44591 -0.23707,-0.62653 -0.1524,-0.18626 -0.46285,-0.18626 -0.38382,0 -0.79586,0.22013 l -0.21449,-0.46849 q 0.24271,-0.14676 0.50236,-0.20884 0.26528,-0.0621 0.55879,-0.0621 0.34996,0 0.58138,0.10724 0.254,0.11853 0.4064,0.36125 0.1524,0.24271 0.22578,0.68862 0.12982,0.8636 0.40075,1.13453 h 0.37254 q 0.0282,0 0.0282,0.0226 v 0.46849 q 0,0.0282 -0.0282,0.0282 z m 1.40546,1.29257 q -0.15804,0 -0.24835,-0.096 -0.0903,-0.0959 -0.0903,-0.26528 0,-0.17498 0.0903,-0.27094 0.0847,-0.0903 0.24835,-0.0903 0.15805,0 0.24271,0.096 0.0903,0.096 0.0903,0.26529 0,0.16368 -0.0903,0.25964 -0.0847,0.1016 -0.24271,0.1016 z m -4.23897,-1.81186 q -0.18627,-0.47978 -0.18627,-0.90311 0,-0.24836 0.0565,-0.49107 0.0621,-0.24835 0.17497,-0.44591 0.22578,-0.16933 0.508,-0.26529 0.28222,-0.0959 0.55316,-0.0959 0.17498,0 0.33866,0.0395 0.16934,0.0395 0.3048,0.11853 0.28787,0.16369 0.44027,0.4572 0.1524,0.28787 0.1524,0.6604 0,0.34996 -0.11289,0.63782 0.11289,0.16369 0.254,0.22578 0.14111,0.0621 0.37818,0.0621 h 0.0282 q 0.0282,0 0.0282,0.0226 v 0.46849 q 0,0.0282 -0.0282,0.0282 h -0.0282 q -0.3048,0 -0.51929,-0.079 -0.20884,-0.0847 -0.4064,-0.29351 -0.19191,0.18626 -0.44591,0.28222 -0.24836,0.0903 -0.51929,0.0903 h -1.64818 q -0.0282,0 -0.0282,-0.0282 v -0.46849 q 0,-0.0226 0.0282,-0.0226 z m 0.41204,-0.92569 q 0,0.22013 0.0395,0.44591 0.0395,0.22014 0.14676,0.47978 h 0.33866 q 0.36125,0 0.57009,-0.24836 0.21449,-0.24835 0.21449,-0.67733 0,-0.33866 -0.18062,-0.54751 -0.18062,-0.20884 -0.44027,-0.20884 -0.16369,0 -0.32173,0.0564 -0.15804,0.0565 -0.29351,0.14676 -0.0452,0.12982 -0.0621,0.26529 -0.0113,0.13546 -0.0113,0.28786 z m -3.39795,1.44498 q -0.0282,0 -0.0282,-0.0282 v -0.46849 q 0,-0.0226 0.0282,-0.0226 h 0.90311 v -2.2352 h 0.61525 v 2.2352 h 0.84666 q 0.0282,0 0.0282,0.0226 v 0.46849 q 0,0.0282 -0.0282,0.0282 z m 0.64347,1.19097 q -0.14675,0 -0.24271,-0.0903 -0.096,-0.0903 -0.096,-0.27093 0,-0.18627 0.096,-0.27658 0.096,-0.0847 0.24271,-0.0847 0.1524,0 0.24271,0.0903 0.0903,0.096 0.0903,0.27094 0,0.16933 -0.0903,0.26529 -0.0903,0.0959 -0.24271,0.0959 z m 0.97085,0 q -0.15805,0 -0.24836,-0.0959 -0.0903,-0.096 -0.0903,-0.26529 0,-0.17498 0.0903,-0.27094 0.0903,-0.0903 0.24836,-0.0903 0.15804,0 0.24271,0.096 0.0903,0.1016 0.0903,0.26529 0,0.16369 -0.0903,0.25964 -0.0847,0.1016 -0.24271,0.1016 z m -2.21827,-1.19097 q -0.0339,1.35466 -1.49013,1.35466 h -0.34996 q -0.42333,0 -0.7112,-0.2032 -0.26529,-0.19191 -0.41204,-0.51928 -0.14676,-0.32738 -0.14676,-0.76765 0,-0.34431 0.0621,-0.68862 0.0677,-0.34431 0.18627,-0.61524 h 0.56444 q -0.19191,0.53057 -0.19191,1.30386 0,0.4572 0.19191,0.7112 0.19756,0.25965 0.54751,0.25965 h 0.23707 q 0.47413,0 0.69426,-0.23143 0.22014,-0.22577 0.22014,-0.67733 v -4.2164 h 0.60395 v 3.77049 h 0.65476 q 0.0282,0 0.0282,0.0226 v 0.46849 q 0,0.0282 -0.0282,0.0282 z m -6.57578,-4.28978 h 0.61524 v 4.28978 h -0.61524 z m -2.26907,3.77049 q 0.58138,0 0.58138,-0.65476 v -3.11573 h 0.61524 v 3.18347 q 0,0.508 -0.29915,0.80715 -0.29351,0.29916 -0.79587,0.29916 h -2.02071 v -0.51929 z m -0.7112,0.0903 -0.75071,-3.0988 h 0.64347 l 0.72813,3.0988 z m -3.29071,0.42898 q -0.0282,0 -0.0282,-0.0282 v -0.46849 q 0,-0.0226 0.0282,-0.0226 h 0.73378 v -2.2352 h 0.61524 v 2.75449 z m 0.86925,-3.31329 q -0.1524,0 -0.24271,-0.096 -0.0903,-0.096 -0.0903,-0.26529 0,-0.17498 0.0903,-0.26529 0.0847,-0.096 0.24271,-0.096 0.16369,0 0.24835,0.096 0.0903,0.0959 0.0903,0.26529 0,0.16369 -0.0903,0.26529 -0.0903,0.096 -0.24835,0.096 z m -5.36787,3.31329 q -0.49671,0 -0.79022,-0.29351 -0.28787,-0.29916 -0.28787,-0.8128 0,-0.19756 0.0395,-0.44027 0.0452,-0.24271 0.11289,-0.41204 h 0.55316 q -0.0847,0.38946 -0.0847,0.78457 0,0.28787 0.14676,0.47414 0.14675,0.18062 0.38382,0.18062 h 1.71026 q -0.12982,-0.1524 -0.20884,-0.36689 -0.079,-0.22013 -0.079,-0.45155 0,-0.43463 0.19191,-0.75071 0.19191,-0.32174 0.54187,-0.49107 0.3556,-0.17498 0.84666,-0.17498 h 0.82973 v 2.2352 h 0.64911 q 0.0282,0 0.0282,0.0226 v 0.46849 q 0,0.0282 -0.0282,0.0282 z m 2.90124,-0.51929 h 0.4064 v -1.71591 h -0.21449 q -0.46284,0 -0.71684,0.23707 -0.254,0.23706 -0.254,0.67168 0,0.80716 0.77893,0.80716 z m -0.19755,-2.86738 q -0.1524,0 -0.24271,-0.0959 -0.0903,-0.096 -0.0903,-0.26529 0,-0.17498 0.0903,-0.26529 0.0847,-0.096 0.24271,-0.096 0.16369,0 0.24836,0.096 0.0903,0.096 0.0903,0.26529 0,0.16369 -0.0903,0.26529 -0.0903,0.0959 -0.24836,0.0959 z m -6.42331,2.21534 v -0.51539 h -1.96233 v 0.51539 z m -5.65937,1.17133 q -0.248357,0 -0.46849,-0.0903 -0.214489,-0.096 -0.428977,-0.31609 -0.135467,0.18626 -0.3556,0.29915 -0.214489,0.10725 -0.508,0.10725 H 96.41923 q -0.02822,0 -0.02822,-0.0282 v -0.46849 q 0,-0.0226 0.02822,-0.0226 h 0.773289 v -1.79493 h 0.59831 v 1.79493 h 0.570089 q 0.270933,0 0.417688,-0.16933 0.146756,-0.17498 0.146756,-0.48543 v -1.14017 h 0.598311 v 1.17969 q 0,0.0564 -0.0056,0.10724 0,0.0508 -0.0056,0.1016 0.141111,0.22578 0.299155,0.31609 0.158044,0.0903 0.400752,0.0903 h 0.34996 v -2.2352 h 0.59831 v 2.75449 z m -0.993418,-3.60115 q -0.124178,0 -0.208845,-0.0734 -0.09031,-0.079 -0.09031,-0.24836 0,-0.16933 0.09031,-0.24271 0.08467,-0.079 0.208845,-0.079 0.129822,0 0.214488,0.0847 0.09031,0.079 0.09031,0.23706 0,0.15805 -0.09031,0.24272 -0.08467,0.079 -0.214488,0.079 z m -0.479778,0.8128 q -0.146755,0 -0.242711,-0.0903 -0.09596,-0.0903 -0.09596,-0.27094 0,-0.18626 0.09596,-0.27093 0.09596,-0.0903 0.242711,-0.0903 0.158045,0 0.248356,0.0959 0.08467,0.096 0.08467,0.26529 0,0.16369 -0.08467,0.26529 -0.09031,0.096 -0.248356,0.096 z m 0.970844,0 q -0.158044,0 -0.248355,-0.096 -0.09031,-0.096 -0.09031,-0.26529 0,-0.17497 0.08467,-0.26529 0.09031,-0.0959 0.254,-0.0959 0.158044,0 0.242711,0.0959 0.09031,0.096 0.09031,0.26529 0,0.16369 -0.09031,0.26529 -0.08467,0.096 -0.242711,0.096 z m -6.389506,2.26906 h 1.879599 q -0.09031,-0.53622 -0.259644,-0.9144 -0.169333,-0.36689 -0.428978,-0.64911 -0.253999,-0.28787 -0.626533,-0.508 l 0.225778,-0.54751 q 0.677333,0.32738 1.100666,0.98213 0.428977,0.64911 0.592666,1.63689 h 0.666044 q 0.02822,0 0.02822,0.0226 v 0.46849 q 0,0.0282 -0.02822,0.0282 h -3.149598 z m -3.352798,-3.77049 h 0.615244 v 4.28978 h -0.615244 z m -2.477908,4.28978 q -0.02822,0 -0.02822,-0.0282 v -0.46849 q 0,-0.0226 0.02822,-0.0226 h 0.733777 v -3.77049 h 0.615244 v 4.28978 z m 0.05644,-0.51929 q 0.02822,0 0.02822,0.0226 v 0.46849 q 0,0.0282 -0.02822,0.0282 h -1.021644 q -0.02822,0 -0.02822,-0.0282 v -0.46849 q 0,-0.0226 0.02822,-0.0226 z m -1.907821,1.87395 q -0.632177,0 -1.078088,-0.28222 l 0.259644,-0.4572 q 0.197556,0.1016 0.395111,0.15805 0.197556,0.0621 0.423333,0.0621 0.366889,0 0.564444,-0.19756 0.2032,-0.19191 0.2032,-0.51929 v -0.11853 h -0.553155 q -0.603955,0 -0.931333,-0.33302 -0.327377,-0.33303 -0.327377,-0.9652 0,-0.45156 0.2032,-0.77894 0.208844,-0.32737 0.575733,-0.50235 0.366888,-0.17498 0.85231,-0.17498 h 0.778933 v 2.85044 q 0,0.59831 -0.3556,0.92569 -0.3556,0.33302 -1.010355,0.33302 z m 0.767644,-1.87395 v -1.71591 h -0.225777 q -0.451556,0 -0.705555,0.24271 -0.254,0.24271 -0.254,0.68298 0,0.4064 0.169333,0.59831 0.174978,0.19191 0.530577,0.19191 z m -5.576702,0.51929 q -0.02822,0 -0.02822,-0.0282 v -0.46849 q 0,-0.0226 0.02822,-0.0226 h 2.370665 q -0.208844,-0.2032 -0.349955,-0.95956 -0.07902,-0.45719 -0.231422,-0.63217 -0.1524,-0.18062 -0.468489,-0.18062 -0.383822,0 -0.795866,0.22013 l -0.214489,-0.46849 q 0.242711,-0.14676 0.508,-0.20884 0.265289,-0.0621 0.564444,-0.0621 0.333022,0 0.564444,0.1016 0.259644,0.11853 0.412044,0.36124 0.1524,0.24271 0.225778,0.69427 0.07338,0.47413 0.174977,0.75071 0.107245,0.27093 0.237067,0.38946 v 0.51365 z m 1.405462,1.29257 q -0.158044,0 -0.248355,-0.096 -0.09031,-0.0959 -0.09031,-0.26528 0,-0.17498 0.09031,-0.27094 0.08467,-0.0903 0.248355,-0.0903 0.158044,0 0.242711,0.096 0.09031,0.096 0.09031,0.26529 0,0.16368 -0.09031,0.25964 -0.08467,0.1016 -0.242711,0.1016 z m -2.991552,-1.29257 q -0.716843,0 -1.111954,-0.34996 -0.395111,-0.34995 -0.395111,-0.98213 0,-0.44591 0.197555,-0.762 0.197556,-0.32173 0.553155,-0.49107 0.3556,-0.16933 0.829733,-0.16933 h 0.299156 v -0.33302 h 0.603955 v 2.56822 h 0.666044 q 0.02822,0 0.02822,0.0226 v 0.46849 q 0,0.0282 -0.02822,0.0282 z m 0.378178,-0.51929 v -1.71591 h -0.287866 q -0.468489,0 -0.722489,0.23707 -0.254,0.23142 -0.254,0.66604 0,0.39511 0.225778,0.60396 0.231422,0.20884 0.654755,0.20884 z m -6.016975,1.87395 q -0.632177,0 -1.078088,-0.28222 l 0.259644,-0.4572 q 0.197556,0.1016 0.395111,0.15805 0.197556,0.0621 0.423333,0.0621 0.366889,0 0.564444,-0.19756 0.2032,-0.19191 0.2032,-0.51929 v -0.11853 h -0.553155 q -0.603955,0 -0.931333,-0.33302 -0.327377,-0.33303 -0.327377,-0.9652 0,-0.45156 0.2032,-0.77894 0.208844,-0.32737 0.575733,-0.50235 0.366888,-0.17498 0.85231,-0.17498 h 0.778933 v 2.85044 q 0,0.59831 -0.3556,0.92569 -0.3556,0.33302 -1.010355,0.33302 z m 0.767644,-1.87395 v -1.71591 h -0.225778 q -0.451555,0 -0.705555,0.24271 -0.253999,0.24271 -0.253999,0.68298 0,0.4064 0.169333,0.59831 0.174978,0.19191 0.530577,0.19191 z m -5.311419,-3.77049 h 0.615244 v 4.28978 h -0.615244 z m -2.477907,4.28978 q -0.02822,0 -0.02822,-0.0282 v -0.46849 q 0,-0.0226 0.02822,-0.0226 h 0.733778 v -3.77049 h 0.615244 v 4.28978 z m -0.654756,0 v 0.11853 q 0,0.57573 -0.282222,0.90311 -0.276578,0.33302 -0.784578,0.33302 -0.186266,0 -0.361244,-0.0508 -0.174977,-0.0451 -0.366888,-0.15804 l 0.208844,-0.43462 q 0.141111,0.0734 0.237066,0.096 0.1016,0.0226 0.220134,0.0226 0.248355,0 0.389466,-0.19755 0.141111,-0.19192 0.141111,-0.508 v -2.87867 h 0.598311 v 2.2352 h 0.711199 q 0.02822,0 0.02822,0.0226 v 0.46849 q 0,0.0282 -0.02822,0.0282 z m -5.012261,0 q -0.02822,0 -0.02822,-0.0282 v -0.46849 q 0,-0.0226 0.02822,-0.0226 h 0.841022 q -0.135467,-0.16369 -0.214489,-0.37818 -0.07338,-0.22013 -0.07338,-0.44026 0,-0.43463 0.191911,-0.75071 0.191911,-0.32174 0.541866,-0.49107 0.3556,-0.17498 0.846666,-0.17498 h 0.829733 v 2.75449 z m 1.958621,-0.51929 h 0.4064 v -1.71591 h -0.214489 q -0.462844,0 -0.716844,0.23707 -0.254,0.23706 -0.254,0.67168 0,0.80716 0.778933,0.80716 z m -0.682975,-2.91817 q -0.146756,0 -0.242711,-0.0903 -0.09596,-0.0903 -0.09596,-0.27094 0,-0.18626 0.09596,-0.27093 0.09595,-0.0903 0.242711,-0.0903 0.158044,0 0.248355,0.096 0.08467,0.0903 0.08467,0.26528 0,0.16934 -0.08467,0.26529 -0.09031,0.096 -0.248355,0.096 z m 0.970844,0 q -0.158045,0 -0.248356,-0.096 -0.09031,-0.0959 -0.09031,-0.26529 0,-0.17497 0.09031,-0.26528 0.09031,-0.096 0.248356,-0.096 0.158044,0 0.242711,0.096 0.09031,0.096 0.09031,0.26528 0,0.16369 -0.09031,0.26529 -0.08467,0.096 -0.242711,0.096 z m -4.272839,3.43746 q -0.02822,0 -0.02822,-0.0282 v -0.46849 q 0,-0.0226 0.02822,-0.0226 h 0.733777 v -2.2352 h 0.615244 v 2.2352 H 60.9778 q 0.02822,0 0.02822,0.0226 v 0.46849 q 0,0.0282 -0.02822,0.0282 z m 0.965203,1.29257 q -0.158044,0 -0.248356,-0.096 -0.09031,-0.0959 -0.09031,-0.26528 0,-0.17498 0.09031,-0.27094 0.08467,-0.0903 0.248356,-0.0903 0.158044,0 0.242711,0.096 0.09031,0.096 0.09031,0.26529 0,0.16368 -0.09031,0.25964 -0.08467,0.1016 -0.242711,0.1016 z m -2.551291,-1.29257 q -0.716844,0 -1.111955,-0.34996 -0.395111,-0.34995 -0.395111,-0.98213 0,-0.44591 0.197556,-0.762 0.197555,-0.32173 0.553155,-0.49107 0.3556,-0.16933 0.829733,-0.16933 h 0.299155 v -0.33302 h 0.603955 v 2.56822 h 0.666044 q 0.02822,0 0.02822,0.0226 v 0.46849 q 0,0.0282 -0.02822,0.0282 z m 0.378177,-0.51929 v -1.71591 h -0.287866 q -0.468489,0 -0.722488,0.23707 -0.254,0.23142 -0.254,0.66604 0,0.39511 0.225777,0.60396 0.231422,0.20884 0.654755,0.20884 z m -1.072447,-3.21168 q -0.146756,0 -0.242711,-0.0903 -0.09596,-0.0903 -0.09596,-0.27094 0,-0.18626 0.09596,-0.27093 0.09596,-0.0903 0.242711,-0.0903 0.158044,0 0.248355,0.0959 0.08467,0.0903 0.08467,0.26529 0,0.16934 -0.08467,0.26529 -0.09031,0.096 -0.248355,0.096 z m 0.970843,0 q -0.158044,0 -0.248355,-0.096 -0.09031,-0.0959 -0.09031,-0.26529 0,-0.17498 0.09031,-0.26529 0.09031,-0.0959 0.248355,-0.0959 0.158045,0 0.242711,0.0959 0.09031,0.096 0.09031,0.26529 0,0.16369 -0.09031,0.26529 -0.08467,0.096 -0.242711,0.096 z"
         id="path60"
         style="fill:#c9ada7;fill-opacity:1" />
      <path
         d="m 139.37879,154.26177 q -0.24836,0 -0.46849,-0.0903 -0.21449,-0.096 -0.42898,-0.31609 -0.13546,0.18627 -0.3556,0.29915 -0.21449,0.10725 -0.508,0.10725 h -2.03764 q -0.0282,0 -0.0282,-0.0282 v -0.46849 q 0,-0.0226 0.0282,-0.0226 h 0.77329 v -1.79493 h 0.59831 v 1.79493 h 0.57009 q 0.27093,0 0.41769,-0.16933 0.14675,-0.17498 0.14675,-0.48542 v -1.14018 h 0.59831 v 1.17969 q 0,0.0564 -0.006,0.10724 0,0.0508 -0.006,0.1016 0.14111,0.22578 0.29916,0.31609 0.15804,0.0903 0.40075,0.0903 h 0.34996 v -2.2352 h 0.59831 v 2.75449 z m -0.99342,-3.60115 q -0.12418,0 -0.20885,-0.0734 -0.0903,-0.079 -0.0903,-0.24835 0,-0.16934 0.0903,-0.24272 0.0847,-0.079 0.20885,-0.079 0.12982,0 0.21449,0.0847 0.0903,0.079 0.0903,0.23707 0,0.15804 -0.0903,0.24271 -0.0847,0.079 -0.21449,0.079 z m -0.47978,0.8128 q -0.14676,0 -0.24271,-0.0903 -0.096,-0.0903 -0.096,-0.27094 0,-0.18626 0.096,-0.27093 0.0959,-0.0903 0.24271,-0.0903 0.15804,0 0.24836,0.096 0.0847,0.0959 0.0847,0.26528 0,0.16369 -0.0847,0.26529 -0.0903,0.096 -0.24836,0.096 z m 0.97084,0 q -0.15804,0 -0.24835,-0.096 -0.0903,-0.096 -0.0903,-0.26529 0,-0.17497 0.0847,-0.26528 0.0903,-0.096 0.254,-0.096 0.15805,0 0.24271,0.096 0.0903,0.0959 0.0903,0.26528 0,0.16369 -0.0903,0.26529 -0.0847,0.096 -0.24271,0.096 z m -6.3895,2.26906 h 1.8796 q -0.0903,-0.53622 -0.25965,-0.9144 -0.16933,-0.36689 -0.42898,-0.64911 -0.254,-0.28787 -0.62653,-0.508 l 0.22578,-0.54751 q 0.67733,0.32738 1.10067,0.98213 0.42897,0.64911 0.59266,1.63689 h 0.66605 q 0.0282,0 0.0282,0.0226 v 0.46849 q 0,0.0282 -0.0282,0.0282 h -3.1496 z m -3.3528,-3.77049 h 0.61525 v 4.28978 h -0.61525 z m -2.26906,3.77049 q 0.58137,0 0.58137,-0.65475 v -3.11574 h 0.61525 v 3.18347 q 0,0.508 -0.29916,0.80715 -0.29351,0.29916 -0.79586,0.29916 h -2.02071 v -0.51929 z m -0.7112,0.0903 -0.75071,-3.0988 h 0.64346 l 0.72814,3.0988 z m -4.826,0.42898 q -0.0282,0 -0.0282,-0.0282 v -0.46849 q 0,-0.0226 0.0282,-0.0226 h 2.37067 q -0.20884,-0.2032 -0.34996,-0.95955 -0.079,-0.4572 -0.23142,-0.63218 -0.1524,-0.18062 -0.46849,-0.18062 -0.38382,0 -0.79586,0.22013 l -0.21449,-0.46849 q 0.24271,-0.14675 0.508,-0.20884 0.26529,-0.0621 0.56444,-0.0621 0.33302,0 0.56445,0.1016 0.25964,0.11853 0.41204,0.36124 0.1524,0.24271 0.22578,0.69427 0.0734,0.47413 0.17498,0.75071 0.10724,0.27093 0.23706,0.38947 v 0.51364 z m 1.40547,1.29257 q -0.15805,0 -0.24836,-0.0959 -0.0903,-0.096 -0.0903,-0.26529 0,-0.17498 0.0903,-0.27094 0.0847,-0.0903 0.24836,-0.0903 0.15804,0 0.24271,0.096 0.0903,0.096 0.0903,0.26529 0,0.16369 -0.0903,0.25964 -0.0847,0.1016 -0.24271,0.1016 z m -1.34903,-1.81186 q 0.0282,0 0.0282,0.0282 v 0.46849 q 0,0.0226 -0.0282,0.0226 h -3.59551 q -0.0282,0 -0.0282,-0.0282 v -0.46849 q 0,-0.0226 0.0282,-0.0226 h 0.84103 q -0.13547,-0.16369 -0.21449,-0.37818 -0.0734,-0.22013 -0.0734,-0.44026 0,-0.44027 0.19191,-0.75636 0.19191,-0.31609 0.54751,-0.48542 0.3556,-0.17498 0.84102,-0.17498 h 0.82974 v 2.2352 z m -1.23048,0 v -1.71591 h -0.21449 q -0.46285,0 -0.71685,0.24271 -0.254,0.23707 -0.254,0.67169 0,0.80151 0.77894,0.80151 z m -0.59831,-2.85044 q -0.1524,0 -0.24271,-0.096 -0.0903,-0.0959 -0.0903,-0.26529 0,-0.17497 0.0903,-0.26529 0.0847,-0.096 0.24271,-0.096 0.16369,0 0.24835,0.096 0.0903,0.096 0.0903,0.26529 0,0.16369 -0.0903,0.26529 -0.0903,0.096 -0.24835,0.096 z m -1.71027,2.85044 q 0.0282,0 0.0282,0.0226 v 0.46849 q 0,0.0282 -0.0282,0.0282 h -1.34902 v -4.28978 h 0.61524 v 3.77049 z m -4.23897,1.87395 q -0.44591,0 -0.75635,-0.23706 -0.24836,-0.18062 -0.38383,-0.49107 -0.12982,-0.3048 -0.12982,-0.70555 0,-0.67169 0.24836,-1.24742 h 0.56444 q -0.19191,0.53057 -0.19191,1.22484 0,0.44591 0.19191,0.68862 0.19756,0.24836 0.54751,0.24836 h 0.23707 q 0.47413,0 0.69426,-0.22578 0.22014,-0.22578 0.22014,-0.67169 v -2.6924 h 0.60395 v 2.67547 q 0,0.7112 -0.36689,1.07244 -0.36124,0.36124 -1.12888,0.36124 z m 0.23707,-4.0019 q -0.1524,0 -0.24271,-0.096 -0.0903,-0.096 -0.0903,-0.26529 0,-0.17497 0.0903,-0.26529 0.0847,-0.0959 0.24271,-0.0959 0.16369,0 0.24835,0.0959 0.0903,0.096 0.0903,0.26529 0,0.16369 -0.0903,0.26529 -0.0903,0.096 -0.24835,0.096 z m -4.1486,1.47591 v -0.51539 h -1.96233 v 0.51539 z m -7.68008,1.17133 q -0.0282,0 -0.0282,-0.0282 v -0.46849 q 0,-0.0226 0.0282,-0.0226 h 0.84102 q -0.13546,-0.16369 -0.21448,-0.37818 -0.0734,-0.22013 -0.0734,-0.44026 0,-0.43462 0.19191,-0.75071 0.19191,-0.32174 0.54187,-0.49107 0.3556,-0.17498 0.84666,-0.17498 h 0.82973 v 2.75449 z m 1.95862,-0.51929 h 0.4064 v -1.71591 h -0.21449 q -0.46284,0 -0.71684,0.23707 -0.254,0.23706 -0.254,0.67169 0,0.80715 0.77893,0.80715 z m -0.1919,-2.85044 q -0.1524,0 -0.24271,-0.096 -0.0903,-0.0959 -0.0903,-0.26529 0,-0.17497 0.0903,-0.26529 0.0847,-0.096 0.24271,-0.096 0.16368,0 0.24835,0.096 0.0903,0.096 0.0903,0.26529 0,0.16369 -0.0903,0.26529 -0.0903,0.096 -0.24835,0.096 z m -3.793067,3.36973 q -0.02822,0 -0.02822,-0.0282 v -0.46849 q 0,-0.0226 0.02822,-0.0226 h 0.733777 v -3.77049 h 0.61524 v 3.77049 h 0.73378 q 0.0282,0 0.0282,0.0226 v 0.46849 q 0,0.0282 -0.0282,0.0282 z m -0.654756,0 v 0.11853 q 0,0.57574 -0.282222,0.90311 -0.276578,0.33302 -0.784577,0.33302 -0.186267,0 -0.361244,-0.0508 -0.174978,-0.0452 -0.366889,-0.15804 l 0.208844,-0.43462 q 0.141111,0.0734 0.237067,0.0959 0.1016,0.0226 0.220133,0.0226 0.248355,0 0.389466,-0.19755 0.141111,-0.19191 0.141111,-0.508 v -2.87867 h 0.598311 v 2.2352 h 0.711203 q 0.0282,0 0.0282,0.0226 v 0.46849 q 0,0.0282 -0.0282,0.0282 z m -3.843798,-1.17133 v -0.51539 h -1.962325 v 0.51539 z m -6.06577,1.17133 q -0.02822,0 -0.02822,-0.0282 v -0.46849 q 0,-0.0226 0.02822,-0.0226 h 0.733778 v -2.2352 h 0.615244 v 2.75449 z m 0.745062,1.29257 q -0.158044,0 -0.248355,-0.0959 -0.09031,-0.096 -0.09031,-0.26529 0,-0.17498 0.09031,-0.27094 0.08467,-0.0903 0.248355,-0.0903 0.158044,0 0.242711,0.096 0.09031,0.096 0.09031,0.26529 0,0.16369 -0.09031,0.25964 -0.08467,0.1016 -0.242711,0.1016 z m -0.688621,-1.81186 q 0.02822,0 0.02822,0.0226 v 0.46849 q 0,0.0282 -0.02822,0.0282 h -1.021644 q -0.02822,0 -0.02822,-0.0282 v -0.46849 q 0,-0.0226 0.02822,-0.0226 z m -1.907821,1.87395 q -0.632177,0 -1.078088,-0.28222 l 0.259644,-0.4572 q 0.197556,0.1016 0.395111,0.15805 0.197556,0.0621 0.423333,0.0621 0.366889,0 0.564444,-0.19756 0.2032,-0.19191 0.2032,-0.51929 v -0.11853 h -0.553155 q -0.603955,0 -0.931333,-0.33302 -0.327377,-0.33302 -0.327377,-0.9652 0,-0.45156 0.2032,-0.77893 0.208844,-0.32738 0.575732,-0.50236 0.366889,-0.17498 0.852311,-0.17498 h 0.778933 v 2.85044 q 0,0.59832 -0.3556,0.92569 -0.3556,0.33302 -1.010355,0.33302 z m 0.767644,-1.87395 v -1.71591 h -0.225778 q -0.451555,0 -0.705555,0.24271 -0.253999,0.24271 -0.253999,0.68298 0,0.4064 0.169333,0.59831 0.174977,0.19191 0.530577,0.19191 z m -4.408312,0.51929 q -0.02822,0 -0.02822,-0.0282 v -0.46849 q 0,-0.0226 0.02822,-0.0226 h 1.049866 v -2.2352 h 0.615244 v 2.75449 z m 0.699905,-3.38102 q -0.146755,0 -0.242711,-0.0903 -0.09596,-0.0903 -0.09596,-0.27093 0,-0.18627 0.09596,-0.27093 0.09596,-0.0903 0.242711,-0.0903 0.158045,0 0.248356,0.096 0.08467,0.0903 0.08467,0.26529 0,0.16933 -0.08467,0.26529 -0.09031,0.096 -0.248356,0.096 z m 0.970844,0 q -0.158044,0 -0.248355,-0.096 -0.09031,-0.096 -0.09031,-0.26529 0,-0.17498 0.09031,-0.26529 0.09031,-0.096 0.248355,-0.096 0.158044,0 0.242711,0.096 0.09031,0.096 0.09031,0.26529 0,0.16369 -0.09031,0.26529 -0.08467,0.096 -0.242711,0.096 z m -1.614309,2.86173 q 0.02822,0 0.02822,0.0226 v 0.46849 q 0,0.0282 -0.02822,0.0282 h -1.021644 q -0.02822,0 -0.02822,-0.0282 v -0.46849 q 0,-0.0226 0.02822,-0.0226 z m -1.907821,1.87395 q -0.632177,0 -1.078088,-0.28222 l 0.259644,-0.4572 q 0.197555,0.1016 0.395111,0.15805 0.197555,0.0621 0.423333,0.0621 0.366889,0 0.564444,-0.19756 0.2032,-0.19191 0.2032,-0.51929 v -0.11853 h -0.553155 q -0.603955,0 -0.931333,-0.33302 -0.327378,-0.33302 -0.327378,-0.9652 0,-0.45156 0.2032,-0.77893 0.208845,-0.32738 0.575733,-0.50236 0.366889,-0.17498 0.852311,-0.17498 h 0.778932 v 2.85044 q 0,0.59832 -0.355599,0.92569 -0.3556,0.33302 -1.010355,0.33302 z m 0.767644,-1.87395 v -1.71591 h -0.225778 q -0.451555,0 -0.705555,0.24271 -0.254,0.24271 -0.254,0.68298 0,0.4064 0.169334,0.59831 0.174977,0.19191 0.530577,0.19191 z m -5.554129,0.51929 q -0.02822,0 -0.02822,-0.0282 v -0.46849 q 0,-0.0226 0.02822,-0.0226 h 2.319865 v -0.99342 q 0,-0.78458 -0.993421,-0.78458 h -0.959555 v -0.508 q 0.174977,-0.37253 0.491066,-0.74506 0.321733,-0.36689 0.722488,-0.65476 0.400756,-0.28787 0.8128,-0.44027 l 0.225777,0.53623 q -0.338666,0.12417 -0.671688,0.33866 -0.327377,0.20885 -0.587022,0.46285 -0.259644,0.24835 -0.389466,0.49106 h 0.400755 q 0.762,0 1.151466,0.31045 0.395111,0.31044 0.395111,0.89746 v 1.60867 z m -1.631241,0 q -0.254,0 -0.468488,-0.0903 -0.214489,-0.0903 -0.434622,-0.31045 -0.141111,0.18627 -0.3556,0.29351 -0.214489,0.10725 -0.508,0.10725 h -0.666043 q -0.01693,0.66604 -0.383822,1.01035 -0.361245,0.34431 -1.106311,0.34431 h -0.349955 q -0.400755,0 -0.694266,-0.19191 -0.276578,-0.18626 -0.428978,-0.51928 -0.146755,-0.33303 -0.146755,-0.77894 0,-0.34431 0.06209,-0.68862 0.06773,-0.34431 0.186266,-0.61524 h 0.564444 q -0.191911,0.53057 -0.191911,1.30386 0,0.4572 0.191911,0.7112 0.197556,0.25965 0.547511,0.25965 h 0.237067 q 0.474133,0 0.694266,-0.22578 0.220133,-0.22578 0.220133,-0.67169 v -2.25213 h 0.603955 v 1.79493 h 0.564444 q 0.276578,0 0.417689,-0.17498 0.146755,-0.17497 0.146755,-0.47977 v -1.14018 h 0.598311 v 1.17969 q 0,0.0621 0,0.11289 0,0.0508 -0.0056,0.096 0.135467,0.23142 0.293511,0.32173 0.163689,0.0847 0.4064,0.0847 h 0.344311 v -2.2352 h 0.59831 v 2.2352 h 0.750711 q 0.02822,0 0.02822,0.0226 v 0.46849 q 0,0.0282 -0.02822,0.0282 z"
         id="path61"
         style="fill:#c9ada7;fill-opacity:1" />
      <path
         d="m 146.22371,162.8388 q -0.24836,0 -0.46849,-0.0903 -0.21449,-0.096 -0.42898,-0.31609 -0.13547,0.18627 -0.3556,0.29916 -0.21449,0.10724 -0.508,0.10724 H 142.425 q -0.0282,0 -0.0282,-0.0282 v -0.46849 q 0,-0.0226 0.0282,-0.0226 h 0.77329 v -1.79493 h 0.59831 v 1.79493 h 0.57009 q 0.27093,0 0.41769,-0.16933 0.14675,-0.17498 0.14675,-0.48542 v -1.14018 h 0.59831 v 1.17969 q 0,0.0564 -0.006,0.10724 0,0.0508 -0.006,0.1016 0.14111,0.22578 0.29916,0.31609 0.15804,0.0903 0.40075,0.0903 h 0.34996 v -2.2352 h 0.59831 v 2.75449 z m -0.99342,-3.60115 q -0.12418,0 -0.20885,-0.0734 -0.0903,-0.079 -0.0903,-0.24835 0,-0.16934 0.0903,-0.24271 0.0847,-0.079 0.20885,-0.079 0.12982,0 0.21449,0.0847 0.0903,0.079 0.0903,0.23707 0,0.15804 -0.0903,0.24271 -0.0847,0.079 -0.21449,0.079 z m -0.47978,0.8128 q -0.14676,0 -0.24271,-0.0903 -0.096,-0.0903 -0.096,-0.27093 0,-0.18627 0.096,-0.27094 0.0959,-0.0903 0.24271,-0.0903 0.15804,0 0.24835,0.096 0.0847,0.0959 0.0847,0.26529 0,0.16368 -0.0847,0.26528 -0.0903,0.096 -0.24835,0.096 z m 0.97084,0 q -0.15804,0 -0.24835,-0.096 -0.0903,-0.0959 -0.0903,-0.26528 0,-0.17498 0.0847,-0.26529 0.0903,-0.096 0.254,-0.096 0.15805,0 0.24271,0.096 0.0903,0.0959 0.0903,0.26529 0,0.16368 -0.0903,0.26528 -0.0847,0.096 -0.24271,0.096 z m -3.23991,2.26906 q 0.0282,0 0.0282,0.0282 v 0.46849 q 0,0.0226 -0.0282,0.0226 h -3.59551 q -0.0282,0 -0.0282,-0.0282 v -0.46849 q 0,-0.0226 0.0282,-0.0226 h 0.84102 q -0.13547,-0.16369 -0.21449,-0.37818 -0.0734,-0.22013 -0.0734,-0.44026 0,-0.44027 0.19192,-0.75636 0.19191,-0.31609 0.54751,-0.48542 0.3556,-0.17498 0.84102,-0.17498 h 0.82973 v 2.2352 z m -1.23049,0 v -1.71591 h -0.21449 q -0.46284,0 -0.71684,0.24271 -0.254,0.23707 -0.254,0.67169 0,0.80151 0.77893,0.80151 z m -0.59831,-2.85044 q -0.1524,0 -0.24271,-0.096 -0.0903,-0.0959 -0.0903,-0.26529 0,-0.17497 0.0903,-0.26528 0.0847,-0.096 0.24271,-0.096 0.16369,0 0.24835,0.096 0.0903,0.0959 0.0903,0.26528 0,0.16369 -0.0903,0.26529 -0.0903,0.096 -0.24835,0.096 z m -6.46853,2.85044 h 0.53622 v -3.77048 h 0.60396 v 2.66982 q 0.53058,-1.19098 1.55222,-1.19098 0.65476,0 0.98778,0.3556 0.33866,0.34995 0.33866,1.09502 v 0.84102 h 0.73943 q 0.0282,0 0.0282,0.0226 v 0.46849 q 0,0.0282 -0.0282,0.0282 h -4.75827 z m 3.42053,0 v -0.82973 q 0,-0.48542 -0.21449,-0.7112 -0.21448,-0.23142 -0.65475,-0.23142 -0.82973,0 -1.41111,1.31515 v 0.4572 z m -7.33777,1.87396 q -0.63218,0 -1.07809,-0.28223 l 0.25964,-0.4572 q 0.19756,0.1016 0.39511,0.15805 0.19756,0.0621 0.42334,0.0621 0.36688,0 0.56444,-0.19756 0.2032,-0.19191 0.2032,-0.51929 v -0.11853 h -0.55316 q -0.60395,0 -0.93133,-0.33302 -0.32738,-0.33302 -0.32738,-0.9652 0,-0.45156 0.2032,-0.77893 0.20885,-0.32738 0.57574,-0.50236 0.36689,-0.17498 0.85231,-0.17498 h 0.77893 v 2.85045 q 0,0.59831 -0.3556,0.92568 -0.3556,0.33303 -1.01035,0.33303 z m 0.76764,-1.87396 v -1.71591 h -0.22578 q -0.45155,0 -0.70555,0.24271 -0.254,0.24271 -0.254,0.68298 0,0.4064 0.16933,0.59831 0.17498,0.19191 0.53058,0.19191 z m -7.49581,0.51929 q -0.0282,0 -0.0282,-0.0282 v -0.46849 q 0,-0.0226 0.0282,-0.0226 h 2.37066 q -0.20884,-0.2032 -0.34995,-0.95955 -0.079,-0.4572 -0.23143,-0.63218 -0.1524,-0.18062 -0.46848,-0.18062 -0.38383,0 -0.79587,0.22013 l -0.21449,-0.46849 q 0.24271,-0.14675 0.508,-0.20884 0.26529,-0.0621 0.56444,-0.0621 0.33303,0 0.56445,0.1016 0.25964,0.11853 0.41204,0.36124 0.1524,0.24271 0.22578,0.69427 0.0734,0.47413 0.17498,0.75071 0.10724,0.27093 0.23706,0.38947 v 0.51364 z m 0.0564,-0.51929 q 0.0282,0 0.0282,0.0282 v 0.46849 q 0,0.0226 -0.0282,0.0226 h -3.5955 q -0.0282,0 -0.0282,-0.0282 v -0.46849 q 0,-0.0226 0.0282,-0.0226 h 0.84102 q -0.13547,-0.16369 -0.21449,-0.37818 -0.0734,-0.22013 -0.0734,-0.44026 0,-0.44027 0.19191,-0.75636 0.19191,-0.31609 0.54751,-0.48542 0.3556,-0.17498 0.84102,-0.17498 h 0.82974 v 2.2352 z m -1.23048,0 v -1.71591 h -0.21449 q -0.46285,0 -0.71685,0.24271 -0.254,0.23707 -0.254,0.67169 0,0.80151 0.77894,0.80151 z m -1.08937,-2.91817 q -0.14676,0 -0.24271,-0.0903 -0.096,-0.0903 -0.096,-0.27093 0,-0.18627 0.096,-0.27094 0.0959,-0.0903 0.24271,-0.0903 0.15804,0 0.24835,0.096 0.0847,0.0903 0.0847,0.26529 0,0.16933 -0.0847,0.26528 -0.0903,0.096 -0.24835,0.096 z m 0.97084,0 q -0.15804,0 -0.24835,-0.096 -0.0903,-0.096 -0.0903,-0.26528 0,-0.17498 0.0903,-0.26529 0.0903,-0.096 0.24835,-0.096 0.15804,0 0.24271,0.096 0.0903,0.0959 0.0903,0.26529 0,0.16368 -0.0903,0.26528 -0.0847,0.096 -0.24271,0.096 z m -2.85045,3.43746 q -0.0339,1.35467 -1.49013,1.35467 h -0.34996 q -0.42898,0 -0.73377,-0.21449 -0.25965,-0.18627 -0.40076,-0.50236 -0.13547,-0.31044 -0.13547,-0.71684 0,-0.67169 0.24836,-1.24742 h 0.56444 q -0.19191,0.53057 -0.19191,1.22484 0,0.44591 0.19191,0.68862 0.19756,0.24836 0.54751,0.24836 h 0.23707 q 0.47413,0 0.69427,-0.22578 0.22013,-0.22578 0.22013,-0.67733 v -2.68676 h 0.60395 v 2.2352 h 0.65476 q 0.0282,0 0.0282,0.0226 v 0.46849 q 0,0.0282 -0.0282,0.0282 z m -1.60302,-2.64724 q -0.1524,0 -0.24271,-0.096 -0.0903,-0.0959 -0.0903,-0.26529 0,-0.17497 0.0903,-0.26528 0.0847,-0.096 0.24271,-0.096 0.16369,0 0.24836,0.096 0.0903,0.0959 0.0903,0.26528 0,0.16369 -0.0903,0.26529 -0.0903,0.096 -0.24836,0.096 z m -4.97275,-1.64253 h 0.61524 v 4.28977 h -0.61524 z m -2.47791,4.28977 q -0.0282,0 -0.0282,-0.0282 v -0.46849 q 0,-0.0226 0.0282,-0.0226 h 0.73377 v -3.77048 h 0.61525 v 4.28977 z m -1.63689,0 q -0.24835,0 -0.46849,-0.0903 -0.21448,-0.096 -0.42897,-0.31609 -0.13547,0.18627 -0.3556,0.29916 -0.21449,0.10724 -0.508,0.10724 h -2.03765 q -0.0282,0 -0.0282,-0.0282 v -0.46849 q 0,-0.0226 0.0282,-0.0226 h 0.77329 v -1.79493 h 0.59831 v 1.79493 h 0.57009 q 0.27094,0 0.41769,-0.16933 0.14676,-0.17498 0.14676,-0.48542 v -1.14018 h 0.59831 v 1.17969 q 0,0.0564 -0.006,0.10724 0,0.0508 -0.006,0.1016 0.14111,0.22578 0.29915,0.31609 0.15805,0.0903 0.40076,0.0903 h 0.34995 v -2.2352 h 0.59831 v 2.2352 h 0.75072 q 0.0282,0 0.0282,0.0226 v 0.46849 q 0,0.0282 -0.0282,0.0282 z m -1.03856,-3.61244 q -0.12418,0 -0.20885,-0.0734 -0.0903,-0.079 -0.0903,-0.24836 0,-0.16933 0.0903,-0.24271 0.0847,-0.079 0.20885,-0.079 0.12982,0 0.21448,0.0847 0.0903,0.079 0.0903,0.23706 0,0.15805 -0.0903,0.24271 -0.0847,0.079 -0.21448,0.079 z m -0.47978,0.8128 q -0.14676,0 -0.24271,-0.0903 -0.096,-0.0903 -0.096,-0.27093 0,-0.18626 0.096,-0.27093 0.096,-0.0903 0.24271,-0.0903 0.15804,0 0.24835,0.096 0.0847,0.096 0.0847,0.26529 0,0.16369 -0.0847,0.26529 -0.0903,0.096 -0.24835,0.096 z m 0.97084,0 q -0.15804,0 -0.24835,-0.096 -0.0903,-0.096 -0.0903,-0.26529 0,-0.17498 0.0847,-0.26529 0.0903,-0.096 0.254,-0.096 0.15805,0 0.24271,0.096 0.0903,0.096 0.0903,0.26529 0,0.16369 -0.0903,0.26529 -0.0847,0.096 -0.24271,0.096 z m -6.55319,2.79964 q -0.0282,0 -0.0282,-0.0282 v -0.46849 q 0,-0.0226 0.0282,-0.0226 h 2.37631 q -0.22014,-0.21449 -0.3556,-0.95955 -0.079,-0.44591 -0.23707,-0.62654 -0.1524,-0.18626 -0.46284,-0.18626 -0.38382,0 -0.79587,0.22013 l -0.21449,-0.46849 q 0.24271,-0.14675 0.50236,-0.20884 0.26529,-0.0621 0.5588,-0.0621 0.34995,0 0.58137,0.10724 0.254,0.11854 0.4064,0.36125 0.1524,0.24271 0.22578,0.68862 0.12982,0.8636 0.40076,1.13453 h 0.37253 q 0.0282,0 0.0282,0.0226 v 0.46849 q 0,0.0282 -0.0282,0.0282 z m 0.0564,-0.51929 q 0.0282,0 0.0282,0.0226 v 0.46849 q 0,0.0282 -0.0282,0.0282 h -1.02165 q -0.0282,0 -0.0282,-0.0282 v -0.46849 q 0,-0.0226 0.0282,-0.0226 z m -1.907824,1.87396 q -0.632177,0 -1.078088,-0.28223 l 0.259644,-0.4572 q 0.197556,0.1016 0.395111,0.15805 0.197555,0.0621 0.423333,0.0621 0.366884,0 0.564444,-0.19756 0.2032,-0.19191 0.2032,-0.51929 v -0.11853 h -0.553155 q -0.603955,0 -0.931333,-0.33302 -0.327377,-0.33302 -0.327377,-0.9652 0,-0.45156 0.203199,-0.77893 0.208845,-0.32738 0.575733,-0.50236 0.366889,-0.17498 0.852313,-0.17498 h 0.77893 v 2.85045 q 0,0.59831 -0.3556,0.92568 -0.3556,0.33303 -1.010354,0.33303 z m 0.767644,-1.87396 v -1.71591 h -0.22578 q -0.451553,0 -0.705553,0.24271 -0.254,0.24271 -0.254,0.68298 0,0.4064 0.169334,0.59831 0.174977,0.19191 0.530579,0.19191 z m -5.633149,0.79022 q 0,-0.3556 0.180623,-0.57009 0.186266,-0.22013 0.536221,-0.22013 h 0.01693 q -0.191911,-0.46849 -0.191911,-0.90311 0,-0.24835 0.06209,-0.49106 0.06209,-0.24836 0.169333,-0.44592 0.220133,-0.16368 0.502355,-0.25964 0.287866,-0.1016 0.5588,-0.1016 0.180622,0 0.34431,0.0395 0.163689,0.0395 0.3048,0.11853 0.282222,0.16369 0.434622,0.4572 0.1524,0.29352 0.1524,0.6604 0,0.45156 -0.169333,0.76765 -0.174978,0.32738 -0.491067,0.50235 -0.316088,0.17498 -0.711199,0.17498 h -0.682977 q -0.417689,0 -0.417689,0.41769 v 1.38853 h -0.598311 z m 1.140177,-1.71591 q 0,0.22014 0.03951,0.44591 0.04516,0.22014 0.146756,0.47978 h 0.338666 q 0.366889,0 0.575733,-0.24835 0.208845,-0.24836 0.208845,-0.67734 0,-0.33866 -0.180623,-0.54751 -0.174977,-0.20884 -0.440266,-0.20884 -0.321733,0 -0.615244,0.2032 -0.04516,0.12982 -0.06209,0.26529 -0.01129,0.13546 -0.01129,0.28786 z m -3.781711,0.27365 v -0.51539 h -1.962325 v 0.51539 z m -5.659368,1.17133 q -0.248356,0 -0.468489,-0.0903 -0.214489,-0.096 -0.428977,-0.31609 -0.135467,0.18627 -0.3556,0.29916 -0.214489,0.10724 -0.508,0.10724 H 82.78791 q -0.02822,0 -0.02822,-0.0282 v -0.46849 q 0,-0.0226 0.02822,-0.0226 h 0.773289 v -1.79493 h 0.59831 v 1.79493 h 0.570089 q 0.270933,0 0.417688,-0.16933 0.146756,-0.17498 0.146756,-0.48542 v -1.14018 h 0.598311 v 1.17969 q 0,0.0564 -0.0056,0.10724 0,0.0508 -0.0056,0.1016 0.141111,0.22578 0.299155,0.31609 0.158044,0.0903 0.400755,0.0903 h 0.349956 v -2.2352 h 0.59831 v 2.75449 z M 85.5932,159.23765 q -0.124178,0 -0.208845,-0.0734 -0.09031,-0.079 -0.09031,-0.24835 0,-0.16934 0.09031,-0.24271 0.08467,-0.079 0.208845,-0.079 0.129822,0 0.214488,0.0847 0.09031,0.079 0.09031,0.23707 0,0.15804 -0.09031,0.24271 -0.08467,0.079 -0.214488,0.079 z m -0.479778,0.8128 q -0.146755,0 -0.242711,-0.0903 -0.09596,-0.0903 -0.09596,-0.27093 0,-0.18627 0.09596,-0.27094 0.09596,-0.0903 0.242711,-0.0903 0.158045,0 0.248356,0.096 0.08467,0.0959 0.08467,0.26529 0,0.16368 -0.08467,0.26528 -0.09031,0.096 -0.248356,0.096 z m 0.970844,0 q -0.158044,0 -0.248355,-0.096 -0.09031,-0.0959 -0.09031,-0.26528 0,-0.17498 0.08467,-0.26529 0.09031,-0.096 0.254,-0.096 0.158044,0 0.242711,0.096 0.09031,0.0959 0.09031,0.26529 0,0.16368 -0.09031,0.26528 -0.08467,0.096 -0.242711,0.096 z m -6.389505,2.26906 h 1.879598 q -0.09031,-0.53622 -0.259644,-0.9144 -0.169333,-0.36689 -0.428978,-0.64911 -0.253999,-0.28786 -0.626532,-0.508 l 0.225777,-0.54751 q 0.677333,0.32738 1.100666,0.98213 0.428977,0.64911 0.592666,1.63689 h 0.666044 q 0.02822,0 0.02822,0.0226 v 0.46849 q 0,0.0282 -0.02822,0.0282 h -3.149597 z m -3.352801,-3.77048 h 0.615244 v 4.28977 H 76.34196 Z m -2.477906,4.28977 q -0.02822,0 -0.02822,-0.0282 v -0.46849 q 0,-0.0226 0.02822,-0.0226 h 0.733777 v -3.77048 h 0.615244 v 4.28977 z m -2.02635,0 q -0.02822,0 -0.02822,-0.0282 v -0.46849 q 0,-0.0226 0.02822,-0.0226 h 0.733777 v -2.2352 h 0.615244 v 2.2352 h 0.733777 q 0.02822,0 0.02822,0.0226 v 0.46849 q 0,0.0282 -0.02822,0.0282 z m 0.965203,1.29257 q -0.158045,0 -0.248356,-0.096 -0.09031,-0.096 -0.09031,-0.26529 0,-0.17498 0.09031,-0.27094 0.08467,-0.0903 0.248356,-0.0903 0.158044,0 0.242711,0.096 0.09031,0.0959 0.09031,0.26529 0,0.16369 -0.09031,0.25964 -0.08467,0.1016 -0.242711,0.1016 z m -5.813773,-1.29257 q -0.02822,0 -0.02822,-0.0282 v -0.46849 q 0,-0.0226 0.02822,-0.0226 h 0.682977 v -3.77048 h 0.598311 v 2.66982 q 0.265288,-0.59267 0.660399,-0.89183 0.395111,-0.29915 0.891822,-0.29915 0.660399,0 0.993421,0.3556 0.333022,0.34995 0.333022,1.09502 v 0.84102 h 0.745066 q 0.02822,0 0.02822,0.0226 v 0.46849 q 0,0.0282 -0.02822,0.0282 z m 3.561642,-0.51929 v -0.82973 q 0,-0.48542 -0.214489,-0.7112 -0.214489,-0.23142 -0.654755,-0.23142 -0.835377,0 -1.41111,1.31515 v 0.4572 z m -4.1656,0.51929 q -0.03387,1.35467 -1.490133,1.35467 h -0.349955 q -0.428977,0 -0.733777,-0.21449 -0.259644,-0.18627 -0.400755,-0.50236 -0.135467,-0.31044 -0.135467,-0.71684 0,-0.67169 0.248355,-1.24742 h 0.564444 q -0.191911,0.53057 -0.191911,1.22484 0,0.44591 0.191911,0.68862 0.197556,0.24836 0.547511,0.24836 h 0.237067 q 0.474133,0 0.694266,-0.22578 0.220133,-0.22578 0.220133,-0.67733 v -2.68676 h 0.603955 v 2.2352 h 0.654755 q 0.02822,0 0.02822,0.0226 v 0.46849 q 0,0.0282 -0.02822,0.0282 z m -1.603018,-2.64724 q -0.1524,0 -0.242711,-0.096 -0.09031,-0.0959 -0.09031,-0.26529 0,-0.17497 0.09031,-0.26528 0.08467,-0.096 0.242711,-0.096 0.163689,0 0.248356,0.096 0.09031,0.0959 0.09031,0.26528 0,0.16369 -0.09031,0.26529 -0.09031,0.096 -0.248356,0.096 z"
         id="path62"
         style="fill:#c9ada7;fill-opacity:1" />
      <path
         d="m 125.33185,171.41583 q -0.0282,0 -0.0282,-0.0282 v -0.46849 q 0,-0.0226 0.0282,-0.0226 h 1.04986 v -2.2352 h 0.61525 v 2.75449 z m 0.6999,-3.38101 q -0.14675,0 -0.24271,-0.0903 -0.096,-0.0903 -0.096,-0.27094 0,-0.18626 0.096,-0.27093 0.096,-0.0903 0.24271,-0.0903 0.15805,0 0.24836,0.0959 0.0847,0.0903 0.0847,0.26529 0,0.16934 -0.0847,0.26529 -0.0903,0.096 -0.24836,0.096 z m 0.97085,0 q -0.15805,0 -0.24836,-0.096 -0.0903,-0.096 -0.0903,-0.26529 0,-0.17497 0.0903,-0.26529 0.0903,-0.0959 0.24836,-0.0959 0.15804,0 0.24271,0.0959 0.0903,0.096 0.0903,0.26529 0,0.16369 -0.0903,0.26529 -0.0847,0.096 -0.24271,0.096 z m -5.26626,3.38101 q -0.0282,0 -0.0282,-0.0282 v -0.46849 q 0,-0.0226 0.0282,-0.0226 h 2.31987 v -0.99342 q 0,-0.78458 -0.99342,-0.78458 h -0.95956 v -0.508 q 0.096,-0.19755 0.22013,-0.38382 0.12418,-0.19191 0.28223,-0.37253 0.32173,-0.36689 0.71684,-0.64911 0.40076,-0.28787 0.80715,-0.43462 l 0.22578,0.53622 q -0.33866,0.12418 -0.67169,0.33867 -0.32737,0.20884 -0.58702,0.46284 -0.25964,0.24835 -0.38946,0.49107 h 0.40075 q 0.762,0 1.15147,0.31044 0.39511,0.31044 0.39511,0.89747 v 1.08937 h 0.73378 q 0.0282,0 0.0282,0.0226 v 0.46849 q 0,0.0282 -0.0282,0.0282 z m -2.02635,0 q -0.0282,0 -0.0282,-0.0282 v -0.46849 q 0,-0.0226 0.0282,-0.0226 h 0.73378 v -2.2352 h 0.61525 v 2.2352 h 0.73377 q 0.0282,0 0.0282,0.0226 v 0.46849 q 0,0.0282 -0.0282,0.0282 z m 0.96521,1.29257 q -0.15805,0 -0.24836,-0.096 -0.0903,-0.096 -0.0903,-0.26529 0,-0.17498 0.0903,-0.27093 0.0847,-0.0903 0.24836,-0.0903 0.15804,0 0.24271,0.096 0.0903,0.096 0.0903,0.26529 0,0.16369 -0.0903,0.25964 -0.0847,0.1016 -0.24271,0.1016 z m -3.27378,-1.29257 q -0.0282,0 -0.0282,-0.0282 v -0.46849 q 0,-0.0226 0.0282,-0.0226 h 0.90311 v -2.2352 h 0.61524 v 2.2352 h 0.84667 q 0.0282,0 0.0282,0.0226 v 0.46849 q 0,0.0282 -0.0282,0.0282 z m 0.64347,1.19098 q -0.14676,0 -0.24271,-0.0903 -0.096,-0.0903 -0.096,-0.27093 0,-0.18627 0.096,-0.27658 0.0959,-0.0847 0.24271,-0.0847 0.1524,0 0.24271,0.0903 0.0903,0.096 0.0903,0.27093 0,0.16933 -0.0903,0.26529 -0.0903,0.096 -0.24271,0.096 z m 0.97084,0 q -0.15804,0 -0.24835,-0.096 -0.0903,-0.096 -0.0903,-0.26529 0,-0.17498 0.0903,-0.27093 0.0903,-0.0903 0.24835,-0.0903 0.15805,0 0.24271,0.0959 0.0903,0.1016 0.0903,0.26529 0,0.16369 -0.0903,0.25965 -0.0847,0.1016 -0.24271,0.1016 z m -2.26907,-1.19098 v 0.11853 q 0,0.57574 -0.28222,0.90312 -0.27658,0.33302 -0.78458,0.33302 -0.18627,0 -0.36124,-0.0508 -0.17498,-0.0452 -0.36689,-0.15805 l 0.20884,-0.43462 q 0.14111,0.0734 0.23707,0.096 0.1016,0.0226 0.22013,0.0226 0.24836,0 0.38947,-0.19755 0.14111,-0.19191 0.14111,-0.508 v -2.87867 h 0.59831 v 2.2352 h 0.7112 q 0.0282,0 0.0282,0.0226 v 0.46849 q 0,0.0282 -0.0282,0.0282 z m -5.334,1.35467 q -0.63218,0 -1.07809,-0.28222 l 0.25965,-0.4572 q 0.19755,0.1016 0.39511,0.15804 0.19755,0.0621 0.42333,0.0621 0.36689,0 0.56444,-0.19756 0.2032,-0.19191 0.2032,-0.51929 v -0.11853 h -0.55315 q -0.60396,0 -0.93133,-0.33302 -0.32738,-0.33302 -0.32738,-0.9652 0,-0.45156 0.2032,-0.77893 0.20884,-0.32738 0.57573,-0.50236 0.36689,-0.17498 0.85231,-0.17498 h 0.77893 v 2.85045 q 0,0.59831 -0.35559,0.92569 -0.3556,0.33302 -1.01036,0.33302 z m 0.76764,-1.87396 v -1.71591 h -0.22577 q -0.45156,0 -0.70556,0.24271 -0.254,0.24271 -0.254,0.68298 0,0.4064 0.16934,0.59831 0.17497,0.19191 0.53057,0.19191 z m -5.67831,1.87396 q -0.18626,0 -0.36124,-0.0508 -0.17498,-0.0452 -0.36689,-0.15805 l 0.20884,-0.43462 q 0.14112,0.0734 0.23707,0.096 0.1016,0.0226 0.22013,0.0226 0.24836,0 0.38947,-0.19755 0.14111,-0.19191 0.14111,-0.508 v -2.87867 h 0.59831 v 2.87302 q 0,0.57574 -0.28222,0.90312 -0.27658,0.33302 -0.78458,0.33302 z m -3.94546,-1.35467 q -0.0282,0 -0.0282,-0.0282 v -0.46849 q 0,-0.0226 0.0282,-0.0226 h 0.84102 q -0.13546,-0.16369 -0.21449,-0.37817 -0.0734,-0.22014 -0.0734,-0.44027 0,-0.43462 0.19191,-0.75071 0.19191,-0.32173 0.54186,-0.49107 0.3556,-0.17498 0.84667,-0.17498 h 0.82973 v 2.75449 z m 1.95862,-0.51929 h 0.4064 v -1.71591 h -0.21449 q -0.46284,0 -0.71684,0.23707 -0.254,0.23707 -0.254,0.67169 0,0.80715 0.77893,0.80715 z m -0.19191,-2.85044 q -0.1524,0 -0.24271,-0.096 -0.0903,-0.096 -0.0903,-0.26528 0,-0.17498 0.0903,-0.26529 0.0847,-0.096 0.24271,-0.096 0.16369,0 0.24836,0.096 0.0903,0.096 0.0903,0.26529 0,0.16368 -0.0903,0.26528 -0.0903,0.096 -0.24836,0.096 z m -4.758265,4.08093 q 0,-0.36124 0.208845,-0.68298 0.214488,-0.32173 0.66604,-0.63782 -0.254,-0.24835 -0.46284,-0.54186 -0.208845,-0.29916 -0.349956,-0.60396 -0.135466,-0.3048 -0.180622,-0.58702 0.316089,-0.28222 0.716848,-0.44591 0.40075,-0.16934 0.80151,-0.16934 0.37253,0 0.72813,0.10725 0.36124,0.1016 0.64347,0.28222 0,0.55316 -0.25965,1.05551 -0.254,0.50236 -0.73378,0.88618 0.28223,0.10724 0.59831,0.10724 h 0.67169 q 0.0282,0 0.0282,0.0226 v 0.46849 q 0,0.0282 -0.0282,0.0282 H 101.93 q -0.21449,0 -0.51365,-0.0847 -0.29351,-0.0847 -0.53622,-0.22013 -0.38382,0.254 -0.54187,0.48542 -0.15804,0.23143 -0.15804,0.48543 0,0.63782 0.78458,0.63782 0.21449,0 0.41769,-0.0339 0.20884,-0.0282 0.41204,-0.0677 l 0.0734,0.46284 q -0.24836,0.0621 -0.42898,0.096 -0.18062,0.0339 -0.33867,0.0452 -0.1524,0.0169 -0.32737,0.0169 -0.55316,0 -0.880537,-0.29916 -0.327378,-0.29916 -0.327378,-0.8128 z m 0.524935,-2.85609 q 0.0734,0.31609 0.28222,0.64911 0.21449,0.33303 0.51929,0.58703 0.76764,-0.54187 0.82973,-1.35467 -0.34431,-0.17498 -0.75071,-0.17498 -0.46284,0 -0.88053,0.29351 z m -4.109154,-2.14488 H 96.596 v 4.28977 h -0.615244 z m -2.477907,4.28977 q -0.02822,0 -0.02822,-0.0282 v -0.46849 q 0,-0.0226 0.02822,-0.0226 h 0.733778 v -3.77048 h 0.615244 v 4.28977 z m -2.308578,0 q -0.02822,0 -0.02822,-0.0282 v -0.46849 q 0,-0.0226 0.02822,-0.0226 h 0.90311 v -2.2352 h 0.615244 v 2.2352 h 0.846666 q 0.02822,0 0.02822,0.0226 v 0.46849 q 0,0.0282 -0.02822,0.0282 z m 1.032928,-4.24462 q -0.124177,0 -0.208844,-0.0734 -0.09031,-0.079 -0.09031,-0.24836 0,-0.16933 0.09031,-0.24271 0.08467,-0.079 0.208844,-0.079 0.129822,0 0.214489,0.0847 0.09031,0.079 0.09031,0.23707 0,0.15804 -0.09031,0.24271 -0.08467,0.079 -0.214489,0.079 z m -0.479777,0.8128 q -0.146756,0 -0.242711,-0.0903 -0.09596,-0.0903 -0.09596,-0.27093 0,-0.18627 0.09596,-0.27093 0.09596,-0.0903 0.242711,-0.0903 0.158044,0 0.248355,0.096 0.08467,0.096 0.08467,0.26529 0,0.16369 -0.08467,0.26529 -0.09031,0.096 -0.248355,0.096 z m 0.970844,0 q -0.158045,0 -0.248356,-0.096 -0.09031,-0.096 -0.09031,-0.26529 0,-0.17498 0.08467,-0.26529 0.09031,-0.096 0.254,-0.096 0.158044,0 0.242711,0.096 0.09031,0.096 0.09031,0.26529 0,0.16369 -0.09031,0.26529 -0.08467,0.096 -0.242711,0.096 z m -4.617146,2.91253 h 1.879599 q -0.09031,-0.53622 -0.259645,-0.9144 -0.169333,-0.36689 -0.428977,-0.64911 -0.254,-0.28786 -0.626533,-0.508 l 0.225778,-0.54751 q 0.677332,0.32738 1.100665,0.98214 0.428978,0.64911 0.592667,1.63688 h 0.666044 q 0.02822,0 0.02822,0.0226 v 0.46849 q 0,0.0282 -0.02822,0.0282 H 88.10112 Z m -3.572931,1.87396 q -0.349955,0 -0.603955,-0.16934 -0.254,-0.16368 -0.395111,-0.46848 -0.135467,-0.29916 -0.135467,-0.69992 0,-0.28222 0.04516,-0.53057 0.0508,-0.254 0.146755,-0.508 h 0.564444 q -0.09031,0.23706 -0.118533,0.4572 -0.02822,0.22013 -0.02822,0.51929 0,0.40075 0.191911,0.63782 0.197555,0.24271 0.519288,0.24271 h 1.0668 q 0.400755,0 0.64911,-0.12982 0.254,-0.12418 0.254,-0.36689 0,-0.16934 -0.169333,-0.31045 -0.169333,-0.14111 -0.395111,-0.27657 -0.3048,-0.18627 -0.496711,-0.33303 -0.191911,-0.14111 -0.276577,-0.27657 -0.08467,-0.14111 -0.08467,-0.3048 0,-0.33303 0.265289,-0.72249 0.174977,-0.25965 0.406399,-0.4572 0.237067,-0.2032 0.491067,-0.31609 0.259644,-0.11289 0.496711,-0.11289 0.174977,0 0.361244,0.0677 0.191911,0.0677 0.344311,0.16934 l -0.237067,0.4572 q -0.08467,-0.0452 -0.220133,-0.079 -0.135467,-0.0339 -0.242711,-0.0339 -0.208844,0 -0.445911,0.1524 -0.248355,0.15804 -0.423333,0.37253 -0.169333,0.20885 -0.169333,0.39511 0,0.1016 0.129822,0.22014 0.129822,0.11853 0.321733,0.23706 0.349955,0.21449 0.5588,0.39511 0.406399,0.36689 0.406399,0.75636 0,0.49106 -0.39511,0.75071 -0.395111,0.26529 -1.128888,0.26529 z m 0.220132,1.21356 q -0.146755,0 -0.242711,-0.0903 -0.09596,-0.0903 -0.09596,-0.27094 0,-0.18626 0.09596,-0.27658 0.09596,-0.0847 0.242711,-0.0847 0.1524,0 0.242711,0.0903 0.09031,0.096 0.09031,0.27093 0,0.16934 -0.09031,0.26529 -0.09031,0.096 -0.242711,0.096 z m 0.970844,0 q -0.158044,0 -0.248355,-0.096 -0.09031,-0.096 -0.09031,-0.26529 0,-0.17498 0.09031,-0.27093 0.09031,-0.0903 0.248355,-0.0903 0.158044,0 0.242711,0.0959 0.09031,0.1016 0.09031,0.26529 0,0.16369 -0.09031,0.25965 -0.08467,0.1016 -0.242711,0.1016 z"
         id="path63"
         style="fill:#c9ada7;fill-opacity:1" />
      <path
         d="m 132.58497,179.88249 q -0.0282,0 -0.0282,-0.0282 v -0.46849 q 0,-0.0226 0.0282,-0.0226 h 0.86924 q -0.19191,-0.13546 -0.3048,-0.38382 -0.11289,-0.254 -0.11289,-0.5588 0,-0.63218 0.38383,-0.98778 0.38382,-0.36124 1.02728,-0.36124 0.24836,0 0.47414,0.0508 0.22578,0.0508 0.36689,0.11853 l -0.18063,0.50236 q -0.36124,-0.1524 -0.68297,-0.1524 -0.77894,0 -0.77894,0.85795 0,0.4064 0.19192,0.6604 0.19191,0.254 0.51364,0.254 h 1.01035 v 0.51929 z m -2.83351,-0.51929 q -0.18627,-0.47977 -0.18627,-0.90311 0,-0.24835 0.0565,-0.49106 0.0621,-0.24836 0.17498,-0.44591 0.22577,-0.16934 0.508,-0.26529 0.28222,-0.096 0.55315,-0.096 0.17498,0 0.33867,0.0395 0.16933,0.0395 0.3048,0.11854 0.28786,0.16368 0.44026,0.4572 0.1524,0.28786 0.1524,0.66039 0,0.34996 -0.11289,0.63783 0.11289,0.16369 0.254,0.22577 0.14112,0.0621 0.37818,0.0621 h 0.0282 q 0.0282,0 0.0282,0.0226 v 0.46849 q 0,0.0282 -0.0282,0.0282 h -0.0282 q -0.3048,0 -0.51929,-0.079 -0.20884,-0.0847 -0.4064,-0.29351 -0.19191,0.18627 -0.44591,0.28222 -0.24835,0.0903 -0.51929,0.0903 h -1.64817 q -0.0282,0 -0.0282,-0.0282 v -0.46849 q 0,-0.0226 0.0282,-0.0226 z m 0.41205,-0.92569 q 0,0.22014 0.0395,0.44592 0.0395,0.22013 0.14675,0.47977 h 0.33867 q 0.36124,0 0.57009,-0.24835 0.21449,-0.24836 0.21449,-0.67734 0,-0.33866 -0.18063,-0.54751 -0.18062,-0.20884 -0.44026,-0.20884 -0.16369,0 -0.32174,0.0564 -0.15804,0.0565 -0.29351,0.14676 -0.0452,0.12982 -0.0621,0.26529 -0.0113,0.13547 -0.0113,0.28786 z m -3.11573,1.44498 q -0.0282,0 -0.0282,-0.0282 v -0.46849 q 0,-0.0226 0.0282,-0.0226 h 0.73378 v -3.77048 h 0.61524 v 3.77048 h 0.73378 q 0.0282,0 0.0282,0.0226 v 0.46849 q 0,0.0282 -0.0282,0.0282 z m -2.30858,0 q -0.0282,0 -0.0282,-0.0282 v -0.46849 q 0,-0.0226 0.0282,-0.0226 h 0.90311 v -2.2352 h 0.61524 v 2.2352 h 0.84667 q 0.0282,0 0.0282,0.0226 v 0.46849 q 0,0.0282 -0.0282,0.0282 z m 0.64347,1.19098 q -0.14676,0 -0.24271,-0.0903 -0.096,-0.0903 -0.096,-0.27093 0,-0.18627 0.096,-0.27658 0.096,-0.0847 0.24271,-0.0847 0.1524,0 0.24271,0.0903 0.0903,0.0959 0.0903,0.27093 0,0.16933 -0.0903,0.26529 -0.0903,0.096 -0.24271,0.096 z m 0.97084,0 q -0.15804,0 -0.24835,-0.096 -0.0903,-0.096 -0.0903,-0.26529 0,-0.17498 0.0903,-0.27093 0.0903,-0.0903 0.24835,-0.0903 0.15805,0 0.24271,0.096 0.0903,0.1016 0.0903,0.26529 0,0.16369 -0.0903,0.25965 -0.0847,0.1016 -0.24271,0.1016 z m -3.2004,-1.19098 q -0.71685,0 -1.11196,-0.34995 -0.39511,-0.34996 -0.39511,-0.98214 0,-0.44591 0.19756,-0.762 0.19755,-0.32173 0.55315,-0.49106 0.3556,-0.16934 0.82974,-0.16934 h 0.29915 v -0.33302 h 0.60396 v 2.56822 h 0.66604 q 0.0282,0 0.0282,0.0226 v 0.46849 q 0,0.0282 -0.0282,0.0282 z m 0.37818,-0.51929 v -1.71591 h -0.28787 q -0.46849,0 -0.72249,0.23707 -0.254,0.23142 -0.254,0.66604 0,0.39511 0.22578,0.60396 0.23142,0.20884 0.65475,0.20884 z m -1.07245,-3.21168 q -0.14675,0 -0.24271,-0.0903 -0.096,-0.0903 -0.096,-0.27093 0,-0.18627 0.096,-0.27094 0.096,-0.0903 0.24271,-0.0903 0.15805,0 0.24836,0.096 0.0847,0.0903 0.0847,0.26529 0,0.16933 -0.0847,0.26528 -0.0903,0.096 -0.24836,0.096 z m 0.97084,0 q -0.15804,0 -0.24835,-0.096 -0.0903,-0.096 -0.0903,-0.26528 0,-0.17498 0.0903,-0.26529 0.0903,-0.096 0.24835,-0.096 0.15805,0 0.24272,0.096 0.0903,0.0959 0.0903,0.26529 0,0.16368 -0.0903,0.26528 -0.0847,0.096 -0.24272,0.096 z m -6.26532,3.73097 q -0.0282,0 -0.0282,-0.0282 v -0.46849 q 0,-0.0226 0.0282,-0.0226 h 1.04986 v -2.2352 h 0.61525 v 2.75449 z m 0.6999,-3.38101 q -0.14676,0 -0.24271,-0.0903 -0.096,-0.0903 -0.096,-0.27094 0,-0.18626 0.096,-0.27093 0.096,-0.0903 0.24271,-0.0903 0.15804,0 0.24835,0.096 0.0847,0.0903 0.0847,0.26529 0,0.16934 -0.0847,0.26529 -0.0903,0.096 -0.24835,0.096 z m 0.97084,0 q -0.15804,0 -0.24835,-0.096 -0.0903,-0.0959 -0.0903,-0.26529 0,-0.17497 0.0903,-0.26529 0.0903,-0.096 0.24835,-0.096 0.15805,0 0.24271,0.096 0.0903,0.096 0.0903,0.26529 0,0.16369 -0.0903,0.26529 -0.0847,0.096 -0.24271,0.096 z m -1.61431,2.86172 q 0.0282,0 0.0282,0.0282 v 0.46848 q 0,0.0226 -0.0282,0.0226 h -3.59551 q -0.0282,0 -0.0282,-0.0282 v -0.46849 q 0,-0.0226 0.0282,-0.0226 h 0.84102 q -0.13546,-0.16369 -0.21448,-0.37817 -0.0734,-0.22014 -0.0734,-0.44027 0,-0.44027 0.19191,-0.75636 0.19191,-0.31608 0.54751,-0.48542 0.3556,-0.17498 0.84102,-0.17498 h 0.82973 v 2.2352 z m -1.23049,0 v -1.71591 h -0.21449 q -0.46284,0 -0.71684,0.24271 -0.254,0.23707 -0.254,0.67169 0,0.80151 0.77893,0.80151 z m -1.08937,-2.91817 q -0.14675,0 -0.24271,-0.0903 -0.096,-0.0903 -0.096,-0.27093 0,-0.18627 0.096,-0.27094 0.096,-0.0903 0.24271,-0.0903 0.15805,0 0.24836,0.096 0.0847,0.0903 0.0847,0.26529 0,0.16933 -0.0847,0.26529 -0.0903,0.096 -0.24836,0.096 z m 0.97085,0 q -0.15805,0 -0.24836,-0.096 -0.0903,-0.096 -0.0903,-0.26529 0,-0.17498 0.0903,-0.26529 0.0903,-0.096 0.24836,-0.096 0.15804,0 0.24271,0.096 0.0903,0.0959 0.0903,0.26529 0,0.16369 -0.0903,0.26529 -0.0847,0.096 -0.24271,0.096 z m -2.19005,2.91817 q 0.0282,0 0.0282,0.0226 v 0.46849 q 0,0.0282 -0.0282,0.0282 h -1.02164 q -0.0282,0 -0.0282,-0.0282 v -0.46849 q 0,-0.0226 0.0282,-0.0226 z m -1.90782,1.87396 q -0.63218,0 -1.07809,-0.28222 l 0.25964,-0.4572 q 0.19756,0.1016 0.39512,0.15804 0.19755,0.0621 0.42333,0.0621 0.36689,0 0.56444,-0.19756 0.2032,-0.19191 0.2032,-0.51929 v -0.11853 h -0.55315 q -0.60396,0 -0.93134,-0.33302 -0.32737,-0.33302 -0.32737,-0.9652 0,-0.45155 0.2032,-0.77893 0.20884,-0.32738 0.57573,-0.50236 0.36689,-0.17498 0.85231,-0.17498 h 0.77893 v 2.85045 q 0,0.59831 -0.3556,0.92569 -0.3556,0.33302 -1.01035,0.33302 z m 0.76764,-1.87396 v -1.71591 h -0.22578 q -0.45155,0 -0.70555,0.24271 -0.254,0.24272 -0.254,0.68298 0,0.4064 0.16933,0.59831 0.17498,0.19191 0.53058,0.19191 z m -4.40831,0.51929 q -0.0282,0 -0.0282,-0.0282 v -0.46849 q 0,-0.0226 0.0282,-0.0226 h 1.04986 v -2.2352 h 0.61525 v 2.75449 z m 0.58137,1.19098 q -0.14676,0 -0.24271,-0.0903 -0.096,-0.0903 -0.096,-0.27093 0,-0.18627 0.096,-0.27658 0.096,-0.0847 0.24271,-0.0847 0.1524,0 0.24271,0.0903 0.0903,0.0959 0.0903,0.27093 0,0.16933 -0.0903,0.26529 -0.0903,0.096 -0.24271,0.096 z m 0.97084,0 q -0.15804,0 -0.24835,-0.096 -0.0903,-0.096 -0.0903,-0.26529 0,-0.17498 0.0903,-0.27093 0.0903,-0.0903 0.24835,-0.0903 0.15805,0 0.24271,0.096 0.0903,0.1016 0.0903,0.26529 0,0.16369 -0.0903,0.25965 -0.0847,0.1016 -0.24271,0.1016 z m -4.09786,-1.19098 q -0.41769,0 -0.41769,0.41769 v 1.38853 h -0.59831 v -1.53529 q 0,-0.35559 0.18627,-0.57008 0.19191,-0.22014 0.51364,-0.22014 h 0.0339 q -0.19191,-0.46849 -0.19191,-0.90311 0,-0.24835 0.0621,-0.49106 0.0621,-0.24836 0.16933,-0.44591 0.22013,-0.16369 0.50236,-0.25965 0.28786,-0.1016 0.5588,-0.1016 0.18062,0 0.34431,0.0395 0.16369,0.0395 0.3048,0.11854 0.28222,0.16368 0.43462,0.4572 0.1524,0.29351 0.1524,0.66039 0,0.34432 -0.11289,0.63783 0.11853,0.16369 0.25964,0.22577 0.14676,0.0621 0.37254,0.0621 h 0.0282 q 0.0282,0 0.0282,0.0226 v 0.46849 q 0,0.0282 -0.0282,0.0282 h -0.0282 q -0.29916,0 -0.51365,-0.079 -0.20884,-0.0847 -0.4064,-0.29351 -0.19755,0.18627 -0.44591,0.28222 -0.24835,0.0903 -0.52493,0.0903 z m 0.12418,-1.44498 q 0,0.22014 0.0395,0.44592 0.0452,0.22013 0.14676,0.47977 h 0.33866 q 0.36689,0 0.57574,-0.24835 0.20884,-0.24836 0.20884,-0.67734 0,-0.33866 -0.18062,-0.54751 -0.17498,-0.20884 -0.44027,-0.20884 -0.32173,0 -0.61524,0.2032 -0.0452,0.12982 -0.0621,0.26529 -0.0113,0.13547 -0.0113,0.28786 z m -4.60586,-2.84479 h 0.61524 v 4.28977 h -0.61524 z m -2.760137,4.28977 q -0.02822,0 -0.02822,-0.0282 v -0.46849 q 0,-0.0226 0.02822,-0.0226 h 1.049866 v -2.2352 h 0.615241 v 2.75449 z m 1.190972,-4.13173 q -0.124178,0 -0.208844,-0.0734 -0.09031,-0.079 -0.09031,-0.24836 0,-0.16933 0.09031,-0.24271 0.08467,-0.079 0.208844,-0.079 0.129822,0 0.214489,0.0847 0.09031,0.079 0.09031,0.23706 0,0.15805 -0.09031,0.24271 -0.08467,0.079 -0.214489,0.079 z m -0.479777,0.8128 q -0.146756,0 -0.242711,-0.0903 -0.09596,-0.0903 -0.09596,-0.27093 0,-0.18627 0.09596,-0.27093 0.09596,-0.0903 0.242711,-0.0903 0.158044,0 0.248355,0.0959 0.08467,0.096 0.08467,0.26529 0,0.16369 -0.08467,0.26529 -0.09031,0.0959 -0.248355,0.0959 z m 0.970842,0 q -0.158043,0 -0.248354,-0.0959 -0.09031,-0.096 -0.09031,-0.26529 0,-0.17498 0.08467,-0.26529 0.09031,-0.0959 0.253994,-0.0959 0.15805,0 0.24271,0.0959 0.0903,0.096 0.0903,0.26529 0,0.16369 -0.0903,0.26529 -0.0847,0.0959 -0.24271,0.0959 z m -1.62559,2.79964 q 0.02822,0 0.02822,0.0226 v 0.46849 q 0,0.0282 -0.02822,0.0282 h -1.349022 v -4.28977 h 0.615244 v 3.77048 z m -3.460047,1.87396 q -0.186267,0 -0.361245,-0.0508 -0.174977,-0.0452 -0.366888,-0.15805 l 0.208844,-0.43462 q 0.141111,0.0734 0.237067,0.096 0.1016,0.0226 0.220133,0.0226 0.248355,0 0.389466,-0.19755 0.141111,-0.19191 0.141111,-0.508 V 177.128 h 0.598311 v 2.87302 q 0,0.57574 -0.282222,0.90312 -0.276578,0.33302 -0.784577,0.33302 z m -3.601155,-5.64444 h 0.615244 v 4.28977 h -0.615244 z m -2.477907,4.28977 q -0.02822,0 -0.02822,-0.0282 v -0.46849 q 0,-0.0226 0.02822,-0.0226 h 0.733778 v -3.77048 h 0.615244 v 4.28977 z m -3.301992,0 q -0.02822,0 -0.02822,-0.0282 v -0.46849 q 0,-0.0226 0.02822,-0.0226 h 2.376309 q -0.220133,-0.21449 -0.355599,-0.95955 -0.07902,-0.44591 -0.237067,-0.62653 -0.1524,-0.18627 -0.462844,-0.18627 -0.383822,0 -0.795866,0.22013 l -0.214489,-0.46849 q 0.242711,-0.14675 0.502355,-0.20884 0.265289,-0.0621 0.5588,-0.0621 0.349955,0 0.581377,0.10724 0.254,0.11854 0.4064,0.36125 0.1524,0.24271 0.225778,0.68862 0.129822,0.8636 0.400755,1.13453 h 0.372533 q 0.02822,0 0.02822,0.0226 v 0.46849 q 0,0.0282 -0.02822,0.0282 z m -0.654756,0 v 0.11853 q 0,0.57574 -0.282222,0.90312 -0.276577,0.33302 -0.784577,0.33302 -0.186267,0 -0.361244,-0.0508 -0.174978,-0.0452 -0.366889,-0.15805 l 0.208844,-0.43462 q 0.141111,0.0734 0.237067,0.096 0.1016,0.0226 0.220133,0.0226 0.248355,0 0.389466,-0.19755 0.141111,-0.19191 0.141111,-0.508 V 177.128 h 0.598311 v 2.2352 h 0.7112 q 0.02822,0 0.02822,0.0226 v 0.46849 q 0,0.0282 -0.02822,0.0282 z m -3.414888,1.35467 q -0.632177,0 -1.078088,-0.28222 l 0.259644,-0.4572 q 0.197556,0.1016 0.395111,0.15804 0.197555,0.0621 0.423333,0.0621 0.366889,0 0.564444,-0.19756 0.2032,-0.19191 0.2032,-0.51929 v -0.11853 h -0.553155 q -0.603955,0 -0.931333,-0.33302 -0.327377,-0.33302 -0.327377,-0.9652 0,-0.45155 0.203199,-0.77893 0.208845,-0.32738 0.575733,-0.50236 0.366889,-0.17498 0.852311,-0.17498 h 0.778933 v 2.85045 q 0,0.59831 -0.3556,0.92569 -0.3556,0.33302 -1.010355,0.33302 z m 0.767644,-1.87396 v -1.71591 h -0.225778 q -0.451555,0 -0.705555,0.24271 -0.254,0.24272 -0.254,0.68298 0,0.4064 0.169334,0.59831 0.174977,0.19191 0.530577,0.19191 z m -5.565422,1.87396 q -0.423333,0 -0.733777,-0.18062 -0.310444,-0.18063 -0.485422,-0.50236 -0.169333,-0.32173 -0.169333,-0.75071 0,-0.34996 0.06209,-0.67733 0.06773,-0.33303 0.186266,-0.62654 h 0.564444 q -0.191911,0.57009 -0.191911,1.28129 0,0.44591 0.237067,0.68862 0.242711,0.24836 0.682977,0.24836 h 1.078088 q 0.553155,0 0.795866,-0.19756 0.242711,-0.19191 0.242711,-0.60395 v -0.0339 h -0.491066 q -0.620889,0 -0.970844,-0.34995 -0.344311,-0.34996 -0.344311,-0.97649 0,-0.45156 0.197555,-0.76765 0.197556,-0.32173 0.553156,-0.49106 0.361244,-0.16934 0.829732,-0.16934 h 0.829733 v 2.72627 q 0,0.69427 -0.366889,1.03858 -0.366888,0.34431 -1.117599,0.34431 z m 2.269065,-1.87396 v -1.71591 h -0.208844 q -0.468489,0 -0.722489,0.23707 -0.254,0.23707 -0.254,0.68298 0,0.79586 0.778933,0.79586 z m -1.190974,-2.9351 q -0.146756,0 -0.242711,-0.0903 -0.09596,-0.0903 -0.09596,-0.27094 0,-0.18626 0.09596,-0.27093 0.09596,-0.0903 0.242711,-0.0903 0.158044,0 0.248355,0.0959 0.08467,0.0903 0.08467,0.26529 0,0.16934 -0.08467,0.26529 -0.09031,0.096 -0.248355,0.096 z m 0.970844,0 q -0.158045,0 -0.248356,-0.096 -0.09031,-0.096 -0.09031,-0.26529 0,-0.17498 0.09031,-0.26529 0.09031,-0.0959 0.248356,-0.0959 0.158044,0 0.242711,0.0959 0.09031,0.096 0.09031,0.26529 0,0.16369 -0.09031,0.26529 -0.08467,0.096 -0.242711,0.096 z"
         id="path64"
         style="fill:#c9ada7;fill-opacity:1" />
      <path
         d="m 129.79378,188.34915 q -0.0282,0 -0.0282,-0.0282 v -0.46849 q 0,-0.0226 0.0282,-0.0226 h 1.04987 v -2.23519 h 0.61524 v 2.75448 z m 0.69991,-3.38101 q -0.14676,0 -0.24272,-0.0903 -0.0959,-0.0903 -0.0959,-0.27094 0,-0.18626 0.0959,-0.27093 0.096,-0.0903 0.24272,-0.0903 0.15804,0 0.24835,0.0959 0.0847,0.0903 0.0847,0.26529 0,0.16934 -0.0847,0.26529 -0.0903,0.096 -0.24835,0.096 z m 0.97084,0 q -0.15804,0 -0.24836,-0.096 -0.0903,-0.0959 -0.0903,-0.26529 0,-0.17497 0.0903,-0.26529 0.0903,-0.0959 0.24836,-0.0959 0.15804,0 0.24271,0.0959 0.0903,0.096 0.0903,0.26529 0,0.16369 -0.0903,0.26529 -0.0847,0.096 -0.24271,0.096 z m -1.61431,2.86172 q 0.0282,0 0.0282,0.0282 v 0.46848 q 0,0.0226 -0.0282,0.0226 h -3.59551 q -0.0282,0 -0.0282,-0.0282 v -0.46849 q 0,-0.0226 0.0282,-0.0226 h 0.84102 q -0.13547,-0.16369 -0.21449,-0.37817 -0.0734,-0.22014 -0.0734,-0.44027 0,-0.44027 0.19192,-0.75636 0.19191,-0.31608 0.54751,-0.48542 0.3556,-0.17497 0.84102,-0.17497 h 0.82973 v 2.23519 z m -1.23049,0 v -1.71591 h -0.21449 q -0.46284,0 -0.71684,0.24271 -0.254,0.23707 -0.254,0.67169 0,0.80151 0.77893,0.80151 z m -1.08937,-2.91817 q -0.14676,0 -0.24271,-0.0903 -0.096,-0.0903 -0.096,-0.27093 0,-0.18627 0.096,-0.27094 0.096,-0.0903 0.24271,-0.0903 0.15804,0 0.24836,0.096 0.0847,0.0903 0.0847,0.26529 0,0.16933 -0.0847,0.26529 -0.0903,0.0959 -0.24836,0.0959 z m 0.97084,0 q -0.15804,0 -0.24835,-0.0959 -0.0903,-0.096 -0.0903,-0.26529 0,-0.17498 0.0903,-0.26529 0.0903,-0.096 0.24835,-0.096 0.15805,0 0.24271,0.096 0.0903,0.096 0.0903,0.26529 0,0.16369 -0.0903,0.26529 -0.0847,0.0959 -0.24271,0.0959 z m -2.19004,2.91817 q 0.0282,0 0.0282,0.0226 v 0.46849 q 0,0.0282 -0.0282,0.0282 h -1.02165 q -0.0282,0 -0.0282,-0.0282 v -0.46849 q 0,-0.0226 0.0282,-0.0226 z m -1.90783,1.87396 q -0.63217,0 -1.07808,-0.28222 l 0.25964,-0.4572 q 0.19756,0.1016 0.39511,0.15804 0.19756,0.0621 0.42333,0.0621 0.36689,0 0.56445,-0.19756 0.2032,-0.19191 0.2032,-0.51928 v -0.11854 h -0.55316 q -0.60395,0 -0.93133,-0.33302 -0.32738,-0.33302 -0.32738,-0.9652 0,-0.45155 0.2032,-0.77893 0.20885,-0.32738 0.57574,-0.50236 0.36688,-0.17497 0.85231,-0.17497 h 0.77893 v 2.85044 q 0,0.59831 -0.3556,0.92569 -0.3556,0.33302 -1.01036,0.33302 z m 0.76765,-1.87396 v -1.71591 h -0.22578 q -0.45155,0 -0.70555,0.24271 -0.254,0.24272 -0.254,0.68298 0,0.4064 0.16933,0.59831 0.17498,0.19191 0.53058,0.19191 z m -4.40832,0.51929 q -0.0282,0 -0.0282,-0.0282 v -0.46849 q 0,-0.0226 0.0282,-0.0226 h 1.04987 v -2.23519 h 0.61524 v 2.75448 z m 0.58138,1.19098 q -0.14676,0 -0.24272,-0.0903 -0.096,-0.0903 -0.096,-0.27093 0,-0.18626 0.096,-0.27658 0.096,-0.0847 0.24272,-0.0847 0.1524,0 0.24271,0.0903 0.0903,0.0959 0.0903,0.27093 0,0.16933 -0.0903,0.26529 -0.0903,0.096 -0.24271,0.096 z m 0.97084,0 q -0.15805,0 -0.24836,-0.096 -0.0903,-0.096 -0.0903,-0.26529 0,-0.17498 0.0903,-0.27093 0.0903,-0.0903 0.24836,-0.0903 0.15804,0 0.24271,0.0959 0.0903,0.1016 0.0903,0.26529 0,0.16369 -0.0903,0.25965 -0.0847,0.1016 -0.24271,0.1016 z m -4.09786,-1.19098 q -0.41769,0 -0.41769,0.41769 v 1.38853 h -0.59831 v -1.53528 q 0,-0.3556 0.18627,-0.57009 0.19191,-0.22014 0.51364,-0.22014 h 0.0339 q -0.19191,-0.46849 -0.19191,-0.90311 0,-0.24835 0.0621,-0.49106 0.0621,-0.24836 0.16933,-0.44591 0.22013,-0.16369 0.50235,-0.25965 0.28787,-0.1016 0.5588,-0.1016 0.18063,0 0.34432,0.0395 0.16368,0.0395 0.30479,0.11854 0.28223,0.16368 0.43463,0.4572 0.1524,0.29351 0.1524,0.6604 0,0.34431 -0.11289,0.63782 0.11853,0.16369 0.25964,0.22577 0.14676,0.0621 0.37254,0.0621 h 0.0282 q 0.0282,0 0.0282,0.0226 v 0.46849 q 0,0.0282 -0.0282,0.0282 h -0.0282 q -0.29916,0 -0.51365,-0.079 -0.20884,-0.0847 -0.4064,-0.29351 -0.19755,0.18627 -0.44591,0.28222 -0.24835,0.0903 -0.52493,0.0903 z m 0.12418,-1.44497 q 0,0.22013 0.0395,0.44591 0.0452,0.22013 0.14675,0.47977 h 0.33867 q 0.36689,0 0.57573,-0.24835 0.20885,-0.24836 0.20885,-0.67733 0,-0.33867 -0.18062,-0.54752 -0.17498,-0.20884 -0.44027,-0.20884 -0.32173,0 -0.61524,0.2032 -0.0452,0.12982 -0.0621,0.26529 -0.0113,0.13547 -0.0113,0.28787 z m -4.60587,-2.8448 h 0.61524 v 4.28977 h -0.61524 z m -2.4779,4.28977 q -0.0282,0 -0.0282,-0.0282 v -0.46849 q 0,-0.0226 0.0282,-0.0226 h 0.73377 v -3.77048 h 0.61525 v 4.28977 z m -3.302,0 q -0.0282,0 -0.0282,-0.0282 v -0.46849 q 0,-0.0226 0.0282,-0.0226 h 2.37631 q -0.22013,-0.21449 -0.3556,-0.95955 -0.079,-0.44591 -0.23706,-0.62653 -0.1524,-0.18627 -0.46285,-0.18627 -0.38382,0 -0.79586,0.22013 l -0.21449,-0.46849 q 0.24271,-0.14675 0.50235,-0.20884 0.26529,-0.0621 0.5588,-0.0621 0.34996,0 0.58138,0.10725 0.254,0.11853 0.4064,0.36124 0.1524,0.24271 0.22578,0.68862 0.12982,0.8636 0.40075,1.13453 h 0.37254 q 0.0282,0 0.0282,0.0226 v 0.46849 q 0,0.0282 -0.0282,0.0282 z m 1.40547,1.29257 q -0.15805,0 -0.24836,-0.0959 -0.0903,-0.096 -0.0903,-0.26529 0,-0.17498 0.0903,-0.27093 0.0847,-0.0903 0.24836,-0.0903 0.15804,0 0.24271,0.0959 0.0903,0.096 0.0903,0.26529 0,0.16369 -0.0903,0.25964 -0.0847,0.1016 -0.24271,0.1016 z m -2.06022,-1.29257 v 0.11854 q 0,0.57573 -0.28222,0.90311 -0.27658,0.33302 -0.78458,0.33302 -0.18627,0 -0.36125,-0.0508 -0.17497,-0.0452 -0.36688,-0.15805 l 0.20884,-0.43462 q 0.14111,0.0734 0.23707,0.096 0.1016,0.0226 0.22013,0.0226 0.24835,0 0.38947,-0.19755 0.14111,-0.19191 0.14111,-0.508 v -2.87866 h 0.59831 v 2.23519 h 0.7112 q 0.0282,0 0.0282,0.0226 v 0.46849 q 0,0.0282 -0.0282,0.0282 z m -3.41489,1.35467 q -0.63218,0 -1.07809,-0.28222 l 0.25965,-0.4572 q 0.19755,0.1016 0.39511,0.15804 0.19755,0.0621 0.42333,0.0621 0.36689,0 0.56444,-0.19756 0.2032,-0.19191 0.2032,-0.51928 v -0.11854 h -0.55315 q -0.60396,0 -0.93133,-0.33302 -0.32738,-0.33302 -0.32738,-0.9652 0,-0.45155 0.2032,-0.77893 0.20884,-0.32738 0.57573,-0.50236 0.36689,-0.17497 0.85231,-0.17497 h 0.77893 v 2.85044 q 0,0.59831 -0.3556,0.92569 -0.3556,0.33302 -1.01035,0.33302 z m 0.76764,-1.87396 v -1.71591 h -0.22577 q -0.45156,0 -0.70556,0.24271 -0.254,0.24272 -0.254,0.68298 0,0.4064 0.16933,0.59831 0.17498,0.19191 0.53058,0.19191 z m -4.45346,2.34245 q -0.558798,0 -0.886175,-0.29916 -0.327378,-0.29915 -0.327378,-0.81844 0,-0.43462 0.293511,-0.77329 0.220133,-0.26529 0.637822,-0.48542 0.41769,-0.22578 1.16275,-0.44027 -0.0282,-0.096 -0.0564,-0.21449 -0.0282,-0.12418 -0.0564,-0.27658 -0.1524,-0.80715 -0.80151,-0.80715 -0.19756,0 -0.457204,0.079 -0.259645,0.0734 -0.485422,0.19191 l -0.231422,-0.46284 q 0.237066,-0.14676 0.570088,-0.23707 0.338667,-0.0903 0.66604,-0.0903 1.08938,0 1.27565,1.15711 0.079,0.46849 0.20884,0.73942 0.13547,0.26529 0.36125,0.42334 l -0.34431,0.44591 q -0.14676,-0.11854 -0.25965,-0.23143 -0.10724,-0.11853 -0.18627,-0.25964 -0.86359,0.23142 -1.21919,0.47413 -0.462849,0.29351 -0.462849,0.72249 0,0.64347 0.790219,0.64347 0.32174,0 0.82974,-0.1016 l 0.0734,0.46284 q -0.36124,0.0903 -0.6096,0.12418 -0.24835,0.0339 -0.48542,0.0339 z m -4.566351,-6.11293 h 0.615244 v 4.28977 h -0.615244 z m -2.477907,4.28977 q -0.02822,0 -0.02822,-0.0282 v -0.46849 q 0,-0.0226 0.02822,-0.0226 h 0.733778 v -3.77048 h 0.615244 v 4.28977 z m -2.833507,-0.51929 q -0.186267,-0.47977 -0.186267,-0.90311 0,-0.24835 0.05645,-0.49106 0.06209,-0.24836 0.174977,-0.44591 0.225778,-0.16934 0.508,-0.26529 0.282222,-0.096 0.553155,-0.096 0.174978,0 0.338667,0.0395 0.169333,0.0395 0.304799,0.11854 0.287867,0.16368 0.440267,0.4572 0.1524,0.28786 0.1524,0.6604 0,0.34995 -0.112889,0.63782 0.112889,0.16369 0.254,0.22577 0.141111,0.0621 0.378177,0.0621 h 0.02822 q 0.02822,0 0.02822,0.0226 v 0.46849 q 0,0.0282 -0.02822,0.0282 h -0.02822 q -0.3048,0 -0.519288,-0.079 -0.208845,-0.0847 -0.4064,-0.29351 -0.191911,0.18627 -0.445911,0.28222 -0.248355,0.0903 -0.519288,0.0903 h -1.648177 q -0.02822,0 -0.02822,-0.0282 v -0.46849 q 0,-0.0226 0.02822,-0.0226 z m 0.412044,-0.92568 q 0,0.22013 0.03951,0.44591 0.03951,0.22013 0.146756,0.47977 h 0.338666 q 0.361244,0 0.570088,-0.24835 0.214489,-0.24836 0.214489,-0.67733 0,-0.33867 -0.180622,-0.54752 -0.180622,-0.20884 -0.440266,-0.20884 -0.163689,0 -0.321733,0.0564 -0.158045,0.0564 -0.293511,0.14676 -0.04516,0.12982 -0.06209,0.26529 -0.01129,0.13547 -0.01129,0.28787 z m -1.744133,1.44497 v 0.11854 q 0,0.57573 -0.282222,0.90311 -0.276577,0.33302 -0.784577,0.33302 -0.186267,0 -0.361244,-0.0508 -0.174978,-0.0452 -0.366889,-0.15805 l 0.208844,-0.43462 q 0.141112,0.0734 0.237067,0.096 0.1016,0.0226 0.220133,0.0226 0.248356,0 0.389467,-0.19755 0.141111,-0.19191 0.141111,-0.508 v -2.87866 h 0.59831 v 2.23519 h 0.7112 q 0.02822,0 0.02822,0.0226 v 0.46849 q 0,0.0282 -0.02822,0.0282 z m -0.338663,-3.30764 q -0.1524,0 -0.242711,-0.096 -0.09031,-0.0959 -0.09031,-0.26529 0,-0.17497 0.09031,-0.26529 0.08467,-0.096 0.242711,-0.096 0.163688,0 0.248355,0.096 0.09031,0.096 0.09031,0.26529 0,0.16369 -0.09031,0.26529 -0.09031,0.096 -0.248355,0.096 z m -4.600227,3.30764 q -0.02822,0 -0.02822,-0.0282 v -0.46849 q 0,-0.0226 0.02822,-0.0226 h 0.677332 q -0.186266,-0.47977 -0.186266,-0.90311 0,-0.24835 0.05644,-0.49106 0.06209,-0.24836 0.174978,-0.44591 0.225777,-0.16934 0.507999,-0.26529 0.282222,-0.096 0.553156,-0.096 0.174977,0 0.338666,0.0395 0.169333,0.0395 0.3048,0.11854 0.287866,0.16368 0.440266,0.4572 0.1524,0.28786 0.1524,0.6604 0,0.45155 -0.169333,0.76764 -0.180622,0.32738 -0.496711,0.50235 -0.310444,0.17498 -0.705555,0.17498 z m 1.089376,-1.44497 q 0,0.22013 0.03951,0.44591 0.03951,0.22013 0.146755,0.47977 h 0.338666 q 0.361245,0 0.570089,-0.24835 0.214489,-0.24836 0.214489,-0.67733 0,-0.33867 -0.180623,-0.54752 -0.180622,-0.20884 -0.440266,-0.20884 -0.163689,0 -0.321733,0.0564 -0.158044,0.0564 -0.293511,0.14676 -0.04516,0.12982 -0.06209,0.26529 -0.01129,0.13547 -0.01129,0.28787 z m -3.115726,1.44497 q -0.02822,0 -0.02822,-0.0282 v -0.46849 q 0,-0.0226 0.02822,-0.0226 h 0.733777 v -2.23519 h 0.615244 v 2.23519 h 0.733777 q 0.02822,0 0.02822,0.0226 v 0.46849 q 0,0.0282 -0.02822,0.0282 z m 0.869245,-3.42618 q -0.1524,0 -0.242711,-0.0959 -0.09031,-0.096 -0.09031,-0.26529 0,-0.17498 0.09031,-0.26529 0.08467,-0.0959 0.242711,-0.0959 0.163688,0 0.248355,0.0959 0.09031,0.096 0.09031,0.26529 0,0.16369 -0.09031,0.26529 -0.09031,0.0959 -0.248355,0.0959 z m -2.455333,3.42618 q -0.716844,0 -1.111955,-0.34995 -0.395111,-0.34996 -0.395111,-0.98214 0,-0.44591 0.197556,-0.762 0.197555,-0.32173 0.553155,-0.49106 0.3556,-0.16933 0.829733,-0.16933 h 0.299155 v -0.33303 h 0.603955 v 2.56822 h 0.666044 q 0.02822,0 0.02822,0.0226 v 0.46849 q 0,0.0282 -0.02822,0.0282 z m 0.378177,-0.51929 v -1.71591 h -0.287866 q -0.468489,0 -0.722488,0.23707 -0.254,0.23142 -0.254,0.66604 0,0.39511 0.225777,0.60396 0.231422,0.20884 0.654755,0.20884 z m -1.072447,-3.21168 q -0.146756,0 -0.242711,-0.0903 -0.09596,-0.0903 -0.09596,-0.27093 0,-0.18627 0.09596,-0.27094 0.09596,-0.0903 0.242711,-0.0903 0.158044,0 0.248355,0.096 0.08467,0.0903 0.08467,0.26529 0,0.16933 -0.08467,0.26529 -0.09031,0.0959 -0.248355,0.0959 z m 0.970844,0 q -0.158045,0 -0.248356,-0.0959 -0.09031,-0.096 -0.09031,-0.26529 0,-0.17498 0.09031,-0.26529 0.09031,-0.096 0.248356,-0.096 0.158044,0 0.24271,0.096 0.09031,0.096 0.09031,0.26529 0,0.16369 -0.09031,0.26529 -0.08467,0.0959 -0.24271,0.0959 z"
         id="path65"
         style="fill:#c9ada7;fill-opacity:1" />
      <path
         d="m 139.24539,196.81581 q -0.0282,0 -0.0282,-0.0282 v -0.46849 q 0,-0.0226 0.0282,-0.0226 h 1.04987 v -2.23519 h 0.61524 v 2.75448 z m 0.6999,-3.38101 q -0.14675,0 -0.24271,-0.0903 -0.096,-0.0903 -0.096,-0.27094 0,-0.18626 0.096,-0.27093 0.096,-0.0903 0.24271,-0.0903 0.15805,0 0.24836,0.0959 0.0847,0.0903 0.0847,0.26529 0,0.16934 -0.0847,0.26529 -0.0903,0.096 -0.24836,0.096 z m 0.97085,0 q -0.15805,0 -0.24836,-0.096 -0.0903,-0.096 -0.0903,-0.26529 0,-0.17497 0.0903,-0.26529 0.0903,-0.0959 0.24836,-0.0959 0.15804,0 0.24271,0.0959 0.0903,0.096 0.0903,0.26529 0,0.16369 -0.0903,0.26529 -0.0847,0.096 -0.24271,0.096 z m -1.61431,2.86172 q 0.0282,0 0.0282,0.0282 v 0.46848 q 0,0.0226 -0.0282,0.0226 h -3.59551 q -0.0282,0 -0.0282,-0.0282 v -0.46849 q 0,-0.0226 0.0282,-0.0226 h 0.84102 q -0.13546,-0.16369 -0.21448,-0.37817 -0.0734,-0.22014 -0.0734,-0.44027 0,-0.44027 0.19191,-0.75636 0.19191,-0.31608 0.54751,-0.48542 0.3556,-0.17497 0.84102,-0.17497 h 0.82973 v 2.23519 z m -1.23049,0 v -1.71591 h -0.21449 q -0.46284,0 -0.71684,0.24271 -0.254,0.23707 -0.254,0.67169 0,0.80151 0.77893,0.80151 z m -1.08937,-2.91817 q -0.14676,0 -0.24271,-0.0903 -0.096,-0.0903 -0.096,-0.27093 0,-0.18627 0.096,-0.27094 0.0959,-0.0903 0.24271,-0.0903 0.15804,0 0.24835,0.096 0.0847,0.0903 0.0847,0.26529 0,0.16933 -0.0847,0.26529 -0.0903,0.096 -0.24835,0.096 z m 0.97084,0 q -0.15804,0 -0.24835,-0.096 -0.0903,-0.096 -0.0903,-0.26529 0,-0.17498 0.0903,-0.26529 0.0903,-0.096 0.24835,-0.096 0.15805,0 0.24271,0.096 0.0903,0.0959 0.0903,0.26529 0,0.16369 -0.0903,0.26529 -0.0847,0.096 -0.24271,0.096 z m -2.19005,2.91817 q 0.0282,0 0.0282,0.0226 v 0.46849 q 0,0.0282 -0.0282,0.0282 h -1.02164 q -0.0282,0 -0.0282,-0.0282 v -0.46849 q 0,-0.0226 0.0282,-0.0226 z m -1.90782,1.87396 q -0.63217,0 -1.07808,-0.28222 l 0.25964,-0.4572 q 0.19756,0.1016 0.39511,0.15804 0.19756,0.0621 0.42333,0.0621 0.36689,0 0.56445,-0.19756 0.2032,-0.19191 0.2032,-0.51928 v -0.11854 h -0.55316 q -0.60395,0 -0.93133,-0.33302 -0.32738,-0.33302 -0.32738,-0.9652 0,-0.45155 0.2032,-0.77893 0.20885,-0.32738 0.57574,-0.50236 0.36688,-0.17497 0.85231,-0.17497 h 0.77893 v 2.85044 q 0,0.59831 -0.3556,0.92569 -0.3556,0.33302 -1.01036,0.33302 z m 0.76765,-1.87396 v -1.71591 h -0.22578 q -0.45156,0 -0.70556,0.24271 -0.25399,0.24272 -0.25399,0.68298 0,0.4064 0.16933,0.59831 0.17498,0.19191 0.53058,0.19191 z m -4.40831,0.51929 q -0.0282,0 -0.0282,-0.0282 v -0.46849 q 0,-0.0226 0.0282,-0.0226 h 1.04986 v -2.23519 h 0.61525 v 2.75448 z m 0.58137,1.19098 q -0.14676,0 -0.24271,-0.0903 -0.096,-0.0903 -0.096,-0.27094 0,-0.18626 0.096,-0.27658 0.0959,-0.0847 0.24271,-0.0847 0.1524,0 0.24271,0.0903 0.0903,0.096 0.0903,0.27093 0,0.16934 -0.0903,0.26529 -0.0903,0.096 -0.24271,0.096 z m 0.97084,0 q -0.15804,0 -0.24835,-0.096 -0.0903,-0.096 -0.0903,-0.26529 0,-0.17498 0.0903,-0.27093 0.0903,-0.0903 0.24835,-0.0903 0.15805,0 0.24271,0.0959 0.0903,0.1016 0.0903,0.26529 0,0.16369 -0.0903,0.25965 -0.0847,0.1016 -0.24271,0.1016 z m -4.09786,-1.19098 q -0.41769,0 -0.41769,0.41769 v 1.38853 h -0.59831 v -1.53528 q 0,-0.3556 0.18627,-0.57009 0.19191,-0.22014 0.51364,-0.22014 h 0.0339 q -0.19191,-0.46848 -0.19191,-0.90311 0,-0.24835 0.0621,-0.49106 0.0621,-0.24836 0.16933,-0.44591 0.22014,-0.16369 0.50236,-0.25965 0.28786,-0.1016 0.5588,-0.1016 0.18062,0 0.34431,0.0395 0.16369,0.0395 0.3048,0.11854 0.28222,0.16369 0.43462,0.4572 0.1524,0.29351 0.1524,0.6604 0,0.34431 -0.11289,0.63782 0.11853,0.16369 0.25964,0.22577 0.14676,0.0621 0.37254,0.0621 h 0.0282 q 0.0282,0 0.0282,0.0226 v 0.46849 q 0,0.0282 -0.0282,0.0282 h -0.0282 q -0.29916,0 -0.51365,-0.079 -0.20884,-0.0847 -0.4064,-0.29351 -0.19755,0.18627 -0.44591,0.28222 -0.24835,0.0903 -0.52493,0.0903 z m 0.12418,-1.44497 q 0,0.22013 0.0395,0.44591 0.0452,0.22013 0.14676,0.47977 h 0.33866 q 0.36689,0 0.57574,-0.24835 0.20884,-0.24836 0.20884,-0.67733 0,-0.33867 -0.18062,-0.54752 -0.17498,-0.20884 -0.44027,-0.20884 -0.32173,0 -0.61524,0.2032 -0.0452,0.12982 -0.0621,0.26529 -0.0113,0.13547 -0.0113,0.28787 z m -4.60587,-2.8448 h 0.61525 v 4.28977 h -0.61525 z m -2.4779,4.28977 q -0.0282,0 -0.0282,-0.0282 v -0.46849 q 0,-0.0226 0.0282,-0.0226 h 0.73378 v -3.77048 h 0.61524 v 4.28977 z m -1.63689,0 q -0.24835,0 -0.46848,-0.0903 -0.21449,-0.096 -0.42898,-0.31609 -0.13547,0.18627 -0.3556,0.29916 -0.21449,0.10724 -0.508,0.10724 h -2.03764 q -0.0282,0 -0.0282,-0.0282 v -0.46849 q 0,-0.0226 0.0282,-0.0226 h 0.77328 v -1.79493 h 0.59831 v 1.79493 h 0.57009 q 0.27094,0 0.41769,-0.16933 0.14676,-0.17498 0.14676,-0.48542 v -1.14018 h 0.59831 v 1.17969 q 0,0.0564 -0.006,0.10724 0,0.0508 -0.006,0.1016 0.14111,0.22578 0.29915,0.31609 0.15805,0.0903 0.40076,0.0903 h 0.34995 v -2.23519 h 0.59832 v 2.23519 h 0.75071 q 0.0282,0 0.0282,0.0226 v 0.46849 q 0,0.0282 -0.0282,0.0282 z m -1.03857,-3.61244 q -0.12418,0 -0.20884,-0.0734 -0.0903,-0.079 -0.0903,-0.24835 0,-0.16934 0.0903,-0.24272 0.0847,-0.079 0.20884,-0.079 0.12982,0 0.21449,0.0847 0.0903,0.079 0.0903,0.23707 0,0.15804 -0.0903,0.24271 -0.0847,0.079 -0.21449,0.079 z m -0.47978,0.8128 q -0.14675,0 -0.24271,-0.0903 -0.0959,-0.0903 -0.0959,-0.27094 0,-0.18626 0.0959,-0.27093 0.096,-0.0903 0.24271,-0.0903 0.15805,0 0.24836,0.096 0.0847,0.096 0.0847,0.26529 0,0.16369 -0.0847,0.26529 -0.0903,0.096 -0.24836,0.096 z m 0.97085,0 q -0.15805,0 -0.24836,-0.096 -0.0903,-0.0959 -0.0903,-0.26529 0,-0.17497 0.0847,-0.26529 0.0903,-0.096 0.254,-0.096 0.15804,0 0.24271,0.096 0.0903,0.096 0.0903,0.26529 0,0.16369 -0.0903,0.26529 -0.0847,0.096 -0.24271,0.096 z m -3.19476,2.28035 q 0.0282,0 0.0282,0.0226 v 0.46849 q 0,0.0282 -0.0282,0.0282 h -0.65476 v 0.0282 q 0,0.64912 -0.37253,0.98778 -0.37253,0.33867 -1.10631,0.33867 h -1.38853 q -0.44027,0 -0.76765,-0.19756 -0.29351,-0.18062 -0.4572,-0.50235 -0.16369,-0.32174 -0.16369,-0.73378 0,-0.34996 0.0621,-0.67733 0.0677,-0.33302 0.18627,-0.62654 h 0.56444 q -0.19191,0.57009 -0.19191,1.28129 0,0.44591 0.23707,0.68862 0.24271,0.24836 0.68298,0.24836 h 1.07808 q 0.55316,0 0.79587,-0.19756 0.24271,-0.19191 0.24271,-0.60395 v -0.0339 h -0.49107 q -0.46284,0 -0.75635,-0.18626 -0.27093,-0.16369 -0.41769,-0.45156 -0.14111,-0.28787 -0.14111,-0.68862 0,-0.41769 0.17498,-0.72813 0.18626,-0.33303 0.54751,-0.51365 0.36124,-0.18626 0.85795,-0.18626 h 0.82974 v 2.23519 z m -1.65947,0 h 0.4064 v -1.71591 h -0.20884 q -0.46849,0 -0.72249,0.23707 -0.254,0.23707 -0.254,0.68298 0,0.79586 0.77893,0.79586 z m -0.78457,-2.9351 q -0.14676,0 -0.24271,-0.0903 -0.096,-0.0903 -0.096,-0.27094 0,-0.18626 0.096,-0.27093 0.096,-0.0903 0.24271,-0.0903 0.15804,0 0.24835,0.096 0.0847,0.0903 0.0847,0.26529 0,0.16934 -0.0847,0.26529 -0.0903,0.096 -0.24835,0.096 z m 0.97084,0 q -0.15804,0 -0.24836,-0.096 -0.0903,-0.0959 -0.0903,-0.26529 0,-0.17497 0.0903,-0.26529 0.0903,-0.096 0.24836,-0.096 0.15804,0 0.24271,0.096 0.0903,0.096 0.0903,0.26529 0,0.16369 -0.0903,0.26529 -0.0847,0.096 -0.24271,0.096 z m -6.90315,-0.83538 h 0.61524 v 4.28977 h -0.61524 z m -2.47791,4.28977 q -0.0282,0 -0.0282,-0.0282 v -0.46849 q 0,-0.0226 0.0282,-0.0226 h 0.73378 v -3.77048 h 0.61524 v 4.28977 z m -1.63688,0 q -0.24836,0 -0.46849,-0.0903 -0.21449,-0.096 -0.42898,-0.31609 -0.13546,0.18627 -0.3556,0.29916 -0.21449,0.10724 -0.508,0.10724 h -2.03764 q -0.02822,0 -0.02822,-0.0282 v -0.46849 q 0,-0.0226 0.02822,-0.0226 h 0.773288 v -1.79493 h 0.598312 v 1.79493 h 0.57009 q 0.27093,0 0.41769,-0.16933 0.14675,-0.17498 0.14675,-0.48542 v -1.14018 h 0.59831 v 1.17969 q 0,0.0564 -0.006,0.10724 0,0.0508 -0.006,0.1016 0.14111,0.22578 0.29916,0.31609 0.15804,0.0903 0.40075,0.0903 h 0.34996 v -2.23519 h 0.59831 v 2.23519 h 0.75071 q 0.0282,0 0.0282,0.0226 v 0.46849 q 0,0.0282 -0.0282,0.0282 z m -1.03857,-3.61244 q -0.12418,0 -0.20885,-0.0734 -0.0903,-0.079 -0.0903,-0.24835 0,-0.16934 0.0903,-0.24272 0.0847,-0.079 0.20885,-0.079 0.12982,0 0.21448,0.0847 0.0903,0.079 0.0903,0.23707 0,0.15804 -0.0903,0.24271 -0.0847,0.079 -0.21448,0.079 z m -0.47978,0.8128 q -0.14676,0 -0.24271,-0.0903 -0.096,-0.0903 -0.096,-0.27094 0,-0.18626 0.096,-0.27093 0.096,-0.0903 0.24271,-0.0903 0.15804,0 0.24835,0.096 0.0847,0.096 0.0847,0.26529 0,0.16369 -0.0847,0.26529 -0.0903,0.096 -0.24835,0.096 z m 0.97084,0 q -0.15804,0 -0.24835,-0.096 -0.0903,-0.0959 -0.0903,-0.26529 0,-0.17497 0.0847,-0.26529 0.0903,-0.096 0.254,-0.096 0.15805,0 0.24271,0.096 0.0903,0.096 0.0903,0.26529 0,0.16369 -0.0903,0.26529 -0.0847,0.096 -0.24271,0.096 z m -3.19476,2.28035 q 0.02822,0 0.02822,0.0282 v 0.46848 q 0,0.0226 -0.02822,0.0226 h -3.595509 q -0.02822,0 -0.02822,-0.0282 v -0.46849 q 0,-0.0226 0.02822,-0.0226 h 0.841022 q -0.135467,-0.16369 -0.214489,-0.37817 -0.07338,-0.22014 -0.07338,-0.44027 0,-0.44027 0.191911,-0.75636 0.191911,-0.31608 0.547511,-0.48542 0.3556,-0.17497 0.841022,-0.17497 H 98.4643 v 2.23519 z m -1.230488,0 v -1.71591 h -0.214489 q -0.462844,0 -0.716844,0.24271 -0.254,0.23707 -0.254,0.67169 0,0.80151 0.778933,0.80151 z m -0.598307,-2.85044 q -0.1524,0 -0.242711,-0.096 -0.09031,-0.096 -0.09031,-0.26528 0,-0.17498 0.09031,-0.26529 0.08467,-0.096 0.242711,-0.096 0.163688,0 0.248355,0.096 0.09031,0.096 0.09031,0.26529 0,0.16368 -0.09031,0.26528 -0.09031,0.096 -0.248355,0.096 z m -3.352801,3.36973 q -0.716844,0 -1.111955,-0.34995 -0.395111,-0.34996 -0.395111,-0.98214 0,-0.44591 0.197555,-0.762 0.197556,-0.32173 0.553156,-0.49106 0.355599,-0.16933 0.829732,-0.16933 h 0.299156 v -0.33303 h 0.603955 v 2.56822 h 0.666044 q 0.02822,0 0.02822,0.0226 v 0.46849 q 0,0.0282 -0.02822,0.0282 z m 0.378177,-0.51929 v -1.71591 h -0.287866 q -0.468489,0 -0.722489,0.23707 -0.254,0.23142 -0.254,0.66604 0,0.39512 0.225778,0.60396 0.231422,0.20884 0.654755,0.20884 z m -1.072448,-3.21168 q -0.146756,0 -0.242711,-0.0903 -0.09596,-0.0903 -0.09596,-0.27093 0,-0.18627 0.09596,-0.27094 0.09596,-0.0903 0.242711,-0.0903 0.158044,0 0.248355,0.096 0.08467,0.0903 0.08467,0.26529 0,0.16933 -0.08467,0.26529 -0.09031,0.096 -0.248355,0.096 z m 0.970843,0 q -0.158044,0 -0.248355,-0.096 -0.09031,-0.096 -0.09031,-0.26529 0,-0.17498 0.09031,-0.26529 0.09031,-0.096 0.248355,-0.096 0.158045,0 0.242711,0.096 0.09031,0.0959 0.09031,0.26529 0,0.16369 -0.09031,0.26529 -0.08467,0.096 -0.242711,0.096 z m -5.915372,5.08564 q -0.632177,0 -1.078088,-0.28222 l 0.259645,-0.4572 q 0.197555,0.1016 0.39511,0.15804 0.197556,0.0621 0.423333,0.0621 0.366889,0 0.564444,-0.19756 0.2032,-0.19191 0.2032,-0.51928 v -0.11854 h -0.553155 q -0.603955,0 -0.931332,-0.33302 -0.327378,-0.33302 -0.327378,-0.9652 0,-0.45155 0.2032,-0.77893 0.208844,-0.32738 0.575733,-0.50236 0.366888,-0.17497 0.85231,-0.17497 h 0.778933 v 2.85044 q 0,0.59831 -0.3556,0.92569 -0.3556,0.33302 -1.010355,0.33302 z m 0.767644,-1.87396 v -1.71591 h -0.225777 q -0.451556,0 -0.705555,0.24271 -0.254,0.24272 -0.254,0.68298 0,0.4064 0.169333,0.59831 0.174978,0.19191 0.530577,0.19191 z m -5.311418,-3.77048 h 0.615244 v 4.28977 H 83.73231 Z m -2.477906,4.28977 q -0.02822,0 -0.02822,-0.0282 v -0.46849 q 0,-0.0226 0.02822,-0.0226 h 0.733777 v -3.77048 h 0.615244 v 4.28977 z m -2.026351,0 q -0.02822,0 -0.02822,-0.0282 v -0.46849 q 0,-0.0226 0.02822,-0.0226 h 0.733777 v -3.77048 h 0.615244 v 3.77048 h 0.733777 q 0.02822,0 0.02822,0.0226 v 0.46849 q 0,0.0282 -0.02822,0.0282 z m -4.013194,-0.51929 q -0.158044,-0.11289 -0.253999,-0.31608 -0.09596,-0.20885 -0.09596,-0.47414 0,-0.34995 0.158044,-0.62089 0.158045,-0.27093 0.423333,-0.41768 0.270934,-0.1524 0.603956,-0.1524 0.558799,0 0.857954,0.31608 0.299156,0.31609 0.299156,0.90311 v 0.762 h 0.75071 v -1.08373 q 0,-0.75071 -0.349955,-1.12324 -0.344311,-0.37254 -1.066799,-0.37254 -0.327378,0 -0.6096,0.0452 -0.276577,0.0452 -0.54751,0.13547 l -0.146756,-0.50236 q 0.3048,-0.10724 0.626533,-0.1524 0.321733,-0.0452 0.677333,-0.0452 0.982132,0 1.501421,0.508 0.519288,0.508 0.519288,1.45062 v 1.14017 h 0.722489 q 0.02822,0 0.02822,0.0226 v 0.46849 q 0,0.0282 -0.02822,0.0282 H 74.40206 q -0.02822,0 -0.02822,-0.0282 v -0.46849 q 0,-0.0226 0.02822,-0.0226 z m 1.021644,0 h 0.366889 v -0.69426 q 0,-0.37818 -0.141111,-0.54751 -0.141111,-0.17498 -0.423333,-0.17498 -0.259645,0 -0.4064,0.16933 -0.146755,0.16934 -0.146755,0.46849 0,0.36689 0.197555,0.57573 0.2032,0.2032 0.553155,0.2032 z m -1.777997,0 q 0.02822,0 0.02822,0.0226 v 0.46849 q 0,0.0282 -0.02822,0.0282 h -1.349021 v -4.28977 h 0.615244 v 3.77048 z m -3.635018,0.57574 q -0.649111,0 -0.999066,-0.33303 -0.344311,-0.33866 -0.344311,-0.97084 0,-0.42333 0.174978,-0.79022 0.174977,-0.36124 0.485422,-0.56444 0.310444,-0.20885 0.69991,-0.20885 0.361244,0 0.666044,0.2032 0.310444,0.20885 0.491066,0.58138 0.180622,0.36689 0.180622,0.77893 0,1.30387 -1.354665,1.30387 z m 0.0056,-0.51929 q 0.728133,0 0.728133,-0.79022 0,-0.46849 -0.2032,-0.75636 -0.197555,-0.28786 -0.530577,-0.28786 -0.208844,0 -0.378178,0.13546 -0.163688,0.12982 -0.259644,0.36689 -0.09596,0.23707 -0.09596,0.54187 0,0.79022 0.739421,0.79022 z m -0.603954,-2.90689 q -0.146756,0 -0.242711,-0.0903 -0.09596,-0.0903 -0.09596,-0.27093 0,-0.18627 0.09596,-0.27094 0.09596,-0.0903 0.242711,-0.0903 0.158044,0 0.248355,0.096 0.08467,0.0903 0.08467,0.26529 0,0.16933 -0.08467,0.26528 -0.09031,0.096 -0.248355,0.096 z m 0.970844,0 q -0.158045,0 -0.248356,-0.096 -0.09031,-0.096 -0.09031,-0.26528 0,-0.17498 0.09031,-0.26529 0.09031,-0.096 0.248356,-0.096 0.158044,0 0.242711,0.096 0.09031,0.096 0.09031,0.26529 0,0.16368 -0.09031,0.26528 -0.08467,0.096 -0.242711,0.096 z"
         id="path66"
         style="fill:#c9ada7;fill-opacity:1" />
      <path
         d="m 140.78915,205.28247 q -0.0282,0 -0.0282,-0.0282 v -0.46849 q 0,-0.0226 0.0282,-0.0226 h 2.37066 q -0.20884,-0.2032 -0.34995,-0.95955 -0.079,-0.4572 -0.23143,-0.63218 -0.1524,-0.18062 -0.46849,-0.18062 -0.38382,0 -0.79586,0.22013 l -0.21449,-0.46849 q 0.24271,-0.14675 0.508,-0.20884 0.26529,-0.0621 0.56444,-0.0621 0.33303,0 0.56445,0.1016 0.25964,0.11853 0.41204,0.36125 0.1524,0.24271 0.22578,0.69426 0.0734,0.47413 0.17498,0.75071 0.10724,0.27094 0.23706,0.38947 v 0.51364 z m 1.40546,1.29257 q -0.15804,0 -0.24835,-0.0959 -0.0903,-0.096 -0.0903,-0.26529 0,-0.17498 0.0903,-0.27093 0.0847,-0.0903 0.24835,-0.0903 0.15805,0 0.24271,0.0959 0.0903,0.096 0.0903,0.26529 0,0.16369 -0.0903,0.25964 -0.0847,0.1016 -0.24271,0.1016 z m -2.06022,-1.29257 v 0.11854 q 0,0.57573 -0.28223,0.90311 -0.27657,0.33302 -0.78457,0.33302 -0.18627,0 -0.36125,-0.0508 -0.17497,-0.0452 -0.36689,-0.15805 l 0.20885,-0.43462 q 0.14111,0.0734 0.23706,0.096 0.1016,0.0226 0.22014,0.0226 0.24835,0 0.38946,-0.19756 0.14112,-0.19191 0.14112,-0.508 v -2.87866 h 0.59831 v 2.23519 h 0.7112 q 0.0282,0 0.0282,0.0226 v 0.46849 q 0,0.0282 -0.0282,0.0282 z m -2.74885,-4.28977 h 0.61525 v 4.28977 h -0.61525 z m -3.92852,4.28977 q -0.0282,0 -0.0282,-0.0282 v -0.46849 q 0,-0.0226 0.0282,-0.0226 h 2.37066 q -0.20884,-0.2032 -0.34995,-0.95955 -0.079,-0.4572 -0.23143,-0.63218 -0.1524,-0.18062 -0.46849,-0.18062 -0.38382,0 -0.79586,0.22013 l -0.21449,-0.46849 q 0.24271,-0.14675 0.508,-0.20884 0.26529,-0.0621 0.56444,-0.0621 0.33303,0 0.56445,0.1016 0.25964,0.11853 0.41204,0.36125 0.1524,0.24271 0.22578,0.69426 0.0734,0.47413 0.17498,0.75071 0.10724,0.27094 0.23706,0.38947 v 0.51364 z m -1.58609,0 q -0.71685,0 -1.11196,-0.34995 -0.39511,-0.34996 -0.39511,-0.98214 0,-0.44591 0.19756,-0.76199 0.19755,-0.32174 0.55315,-0.49107 0.3556,-0.16933 0.82973,-0.16933 h 0.29916 v -0.33303 h 0.60395 v 2.56822 h 0.66605 q 0.0282,0 0.0282,0.0226 v 0.46849 q 0,0.0282 -0.0282,0.0282 z m 0.37817,-0.51929 v -1.71591 h -0.28786 q -0.46849,0 -0.72249,0.23707 -0.254,0.23142 -0.254,0.66604 0,0.39512 0.22578,0.60396 0.23142,0.20884 0.65475,0.20884 z m -1.07244,-3.21168 q -0.14675,0 -0.24271,-0.0903 -0.096,-0.0903 -0.096,-0.27093 0,-0.18627 0.096,-0.27094 0.096,-0.0903 0.24271,-0.0903 0.15805,0 0.24836,0.096 0.0847,0.0903 0.0847,0.26529 0,0.16933 -0.0847,0.26529 -0.0903,0.096 -0.24836,0.096 z m 0.97085,0 q -0.15805,0 -0.24836,-0.096 -0.0903,-0.096 -0.0903,-0.26529 0,-0.17498 0.0903,-0.26529 0.0903,-0.096 0.24836,-0.096 0.15804,0 0.24271,0.096 0.0903,0.0959 0.0903,0.26529 0,0.16369 -0.0903,0.26529 -0.0847,0.096 -0.24271,0.096 z m -5.24933,-0.5588 h 0.61524 v 4.28977 h -0.61524 z m -2.47791,4.28977 q -0.0282,0 -0.0282,-0.0282 v -0.46849 q 0,-0.0226 0.0282,-0.0226 h 0.73378 v -3.77048 h 0.61524 v 4.28977 z m -2.30858,0 q -0.0282,0 -0.0282,-0.0282 v -0.46849 q 0,-0.0226 0.0282,-0.0226 h 0.90311 v -2.23519 h 0.61524 v 2.23519 h 0.84667 q 0.0282,0 0.0282,0.0226 v 0.46849 q 0,0.0282 -0.0282,0.0282 z m 0.64347,1.19098 q -0.14675,0 -0.24271,-0.0903 -0.096,-0.0903 -0.096,-0.27094 0,-0.18626 0.096,-0.27658 0.096,-0.0847 0.24271,-0.0847 0.1524,0 0.24271,0.0903 0.0903,0.0959 0.0903,0.27093 0,0.16934 -0.0903,0.26529 -0.0903,0.096 -0.24271,0.096 z m 0.97085,0 q -0.15805,0 -0.24836,-0.096 -0.0903,-0.0959 -0.0903,-0.26529 0,-0.17498 0.0903,-0.27093 0.0903,-0.0903 0.24836,-0.0903 0.15804,0 0.24271,0.096 0.0903,0.1016 0.0903,0.26529 0,0.16369 -0.0903,0.25965 -0.0847,0.1016 -0.24271,0.1016 z m -4.70747,-1.71027 h 1.8796 q -0.0903,-0.53622 -0.25965,-0.9144 -0.16933,-0.36688 -0.42897,-0.64911 -0.254,-0.28786 -0.62654,-0.508 l 0.22578,-0.54751 q 0.67733,0.32738 1.10067,0.98214 0.42897,0.64911 0.59266,1.63688 h 0.66605 q 0.0282,0 0.0282,0.0226 v 0.46849 q 0,0.0282 -0.0282,0.0282 h -3.1496 z m -4.01884,1.87396 q -0.63218,0 -1.07809,-0.28222 l 0.25964,-0.4572 q 0.19756,0.1016 0.39511,0.15804 0.19756,0.0621 0.42334,0.0621 0.36688,0 0.56444,-0.19756 0.2032,-0.19191 0.2032,-0.51928 v -0.11854 h -0.55316 q -0.60395,0 -0.93133,-0.33302 -0.32738,-0.33302 -0.32738,-0.9652 0,-0.45155 0.2032,-0.77893 0.20885,-0.32738 0.57574,-0.50236 0.36689,-0.17497 0.85231,-0.17497 h 0.77893 v 2.85044 q 0,0.59831 -0.3556,0.92569 -0.3556,0.33302 -1.01035,0.33302 z m 0.76764,-1.87396 v -1.71591 h -0.22578 q -0.45155,0 -0.70555,0.24272 -0.254,0.24271 -0.254,0.68297 0,0.4064 0.16933,0.59831 0.17498,0.19191 0.53058,0.19191 z m -5.31142,-3.77048 h 0.61524 v 4.28977 h -0.61524 z m -2.26906,3.77048 q 0.58137,0 0.58137,-0.65475 v -3.11573 h 0.61525 v 3.18346 q 0,0.508 -0.29916,0.80716 -0.29351,0.29915 -0.79586,0.29915 h -2.02071 v -0.51929 z m -0.71121,0.0903 -0.75071,-3.0988 h 0.64347 l 0.72813,3.0988 z m -4.49297,0.42897 q -0.0282,0 -0.0282,-0.0282 v -0.46849 q 0,-0.0226 0.0282,-0.0226 h 0.86925 q -0.19191,-0.13546 -0.3048,-0.38382 -0.11289,-0.254 -0.11289,-0.5588 0,-0.63217 0.38382,-0.98777 0.38382,-0.36125 1.02729,-0.36125 0.24836,0 0.47413,0.0508 0.22578,0.0508 0.36689,0.11853 l -0.18062,0.50236 q -0.36124,-0.1524 -0.68298,-0.1524 -0.77893,0 -0.77893,0.85795 0,0.4064 0.19191,0.6604 0.19191,0.254 0.51364,0.254 h 1.01036 v 0.51929 z m -4.848565,0 q -0.02822,0 -0.02822,-0.0282 v -0.46849 q 0,-0.0226 0.02822,-0.0226 h 0.682977 v -2.12231 h 0.598311 v 1.02165 q 0.265288,-0.59267 0.660397,-0.89182 0.39511,-0.29916 0.89182,-0.29916 0.6604,0 0.99343,0.3556 0.33302,0.34996 0.33302,1.09502 v 0.84102 h 0.74506 q 0.0282,0 0.0282,0.0226 v 0.46849 q 0,0.0282 -0.0282,0.0282 z m 3.561645,-0.51929 v -0.82973 q 0,-0.48542 -0.21449,-0.7112 -0.21449,-0.23142 -0.65476,-0.23142 -0.835375,0 -1.411107,1.31515 v 0.4572 z m -3.505198,0 q 0.02822,0 0.02822,0.0226 v 0.46849 q 0,0.0282 -0.02822,0.0282 H 96.84154 v -4.28977 h 0.615244 v 3.77048 z m -5.0292,0.51929 q -0.496711,0 -0.790222,-0.29351 -0.287866,-0.29915 -0.287866,-0.8128 0,-0.19755 0.03951,-0.44026 0.04516,-0.24272 0.112889,-0.41205 h 0.553155 q -0.08467,0.38947 -0.08467,0.78458 0,0.28787 0.146756,0.47413 0.146755,0.18062 0.383822,0.18062 h 1.958621 v -2.23519 h 0.603955 v 2.75448 z m 0.841027,1.08374 q -0.158044,0 -0.248355,-0.096 -0.09031,-0.096 -0.09031,-0.26529 0,-0.17497 0.09031,-0.27093 0.08467,-0.0903 0.248355,-0.0903 0.158044,0 0.242711,0.0959 0.09031,0.096 0.09031,0.26529 0,0.16369 -0.09031,0.25965 -0.08467,0.1016 -0.242711,0.1016 z m -5.384804,-5.37351 h 0.615244 v 4.28977 h -0.615244 z m -2.477905,4.28977 q -0.02822,0 -0.02822,-0.0282 v -0.46849 q 0,-0.0226 0.02822,-0.0226 h 0.733778 v -3.77048 h 0.615243 v 4.28977 z m -2.833508,-0.51929 q -0.186267,-0.47977 -0.186267,-0.90311 0,-0.24835 0.05644,-0.49106 0.06209,-0.24836 0.174977,-0.44591 0.225778,-0.16934 0.508,-0.26529 0.282222,-0.096 0.553155,-0.096 0.174978,0 0.338666,0.0395 0.169334,0.0395 0.3048,0.11854 0.287867,0.16369 0.440267,0.4572 0.152399,0.28786 0.152399,0.6604 0,0.34995 -0.112888,0.63782 0.112888,0.16369 0.253999,0.22578 0.141111,0.0621 0.378178,0.0621 h 0.02822 q 0.02822,0 0.02822,0.0226 v 0.46849 q 0,0.0282 -0.02822,0.0282 h -0.02822 q -0.3048,0 -0.519289,-0.079 -0.208844,-0.0847 -0.406399,-0.29351 -0.191911,0.18627 -0.445911,0.28222 -0.248355,0.0903 -0.519289,0.0903 h -1.648176 q -0.02822,0 -0.02822,-0.0282 v -0.46849 q 0,-0.0226 0.02822,-0.0226 z m 0.412044,-0.92568 q 0,0.22013 0.03951,0.44591 0.03951,0.22013 0.146755,0.47977 h 0.338667 q 0.361244,0 0.570088,-0.24835 0.214489,-0.24836 0.214489,-0.67733 0,-0.33867 -0.180622,-0.54751 -0.180622,-0.20885 -0.440266,-0.20885 -0.163689,0 -0.321734,0.0564 -0.158044,0.0564 -0.29351,0.14675 -0.04516,0.12982 -0.06209,0.26529 -0.01129,0.13547 -0.01129,0.28787 z m -4.391369,1.44497 q -0.02822,0 -0.02822,-0.0282 v -0.46849 q 0,-0.0226 0.02822,-0.0226 h 2.376309 q -0.220133,-0.21448 -0.3556,-0.95955 -0.07902,-0.44591 -0.237066,-0.62653 -0.1524,-0.18627 -0.462844,-0.18627 -0.383822,0 -0.795867,0.22013 l -0.214488,-0.46849 q 0.242711,-0.14675 0.502355,-0.20884 0.265289,-0.0621 0.558799,-0.0621 0.349956,0 0.581378,0.10725 0.254,0.11853 0.4064,0.36124 0.152399,0.24271 0.225777,0.68862 0.129822,0.8636 0.400755,1.13453 h 0.372533 q 0.02822,0 0.02822,0.0226 v 0.46849 q 0,0.0282 -0.02822,0.0282 z m -2.308579,0 q -0.02822,0 -0.02822,-0.0282 v -0.46849 q 0,-0.0226 0.02822,-0.0226 h 0.90311 v -2.23519 h 0.615244 v 2.23519 h 0.846666 q 0.02822,0 0.02822,0.0226 v 0.46849 q 0,0.0282 -0.02822,0.0282 z m 0.64347,1.19098 q -0.146755,0 -0.24271,-0.0903 -0.09596,-0.0903 -0.09596,-0.27094 0,-0.18626 0.09596,-0.27658 0.09596,-0.0847 0.24271,-0.0847 0.1524,0 0.242711,0.0903 0.09031,0.0959 0.09031,0.27093 0,0.16934 -0.09031,0.26529 -0.09031,0.096 -0.242711,0.096 z m 0.970844,0 q -0.158044,0 -0.248355,-0.096 -0.09031,-0.0959 -0.09031,-0.26529 0,-0.17498 0.09031,-0.27093 0.09031,-0.0903 0.248355,-0.0903 0.158044,0 0.242711,0.096 0.09031,0.1016 0.09031,0.26529 0,0.16369 -0.09031,0.25965 -0.08467,0.1016 -0.242711,0.1016 z m -6.462884,-1.19098 q -0.02822,0 -0.02822,-0.0282 v -0.46849 q 0,-0.0226 0.02822,-0.0226 h 0.682977 v -3.77048 h 0.598311 v 2.66982 q 0.265289,-0.59267 0.6604,-0.89182 0.39511,-0.29916 0.891821,-0.29916 0.6604,0 0.993422,0.3556 0.333022,0.34996 0.333022,1.09502 v 0.84102 h 0.745066 q 0.02822,0 0.02822,0.0226 v 0.46849 q 0,0.0282 -0.02822,0.0282 z m 3.561642,-0.51929 v -0.82973 q 0,-0.48542 -0.214489,-0.7112 -0.214489,-0.23142 -0.654755,-0.23142 -0.835377,0 -1.41111,1.31515 v 0.4572 z m -5.87022,0.51929 q -0.02822,0 -0.02822,-0.0282 v -0.46849 q 0,-0.0226 0.02822,-0.0226 h 0.90311 v -2.23519 h 0.615244 v 2.23519 h 0.846666 q 0.02822,0 0.02822,0.0226 v 0.46849 q 0,0.0282 -0.02822,0.0282 z m 0.643471,1.19098 q -0.146756,0 -0.242711,-0.0903 -0.09596,-0.0903 -0.09596,-0.27094 0,-0.18626 0.09596,-0.27658 0.09595,-0.0847 0.242711,-0.0847 0.152399,0 0.242711,0.0903 0.09031,0.0959 0.09031,0.27093 0,0.16934 -0.09031,0.26529 -0.09031,0.096 -0.242711,0.096 z m 0.970843,0 q -0.158044,0 -0.248355,-0.096 -0.09031,-0.0959 -0.09031,-0.26529 0,-0.17498 0.09031,-0.27093 0.09031,-0.0903 0.248355,-0.0903 0.158045,0 0.242711,0.096 0.09031,0.1016 0.09031,0.26529 0,0.16369 -0.09031,0.25965 -0.08467,0.1016 -0.242711,0.1016 z m -3.200402,-1.19098 q -0.716844,0 -1.111955,-0.34995 -0.39511,-0.34996 -0.39511,-0.98214 0,-0.44591 0.197555,-0.76199 0.197555,-0.32174 0.553155,-0.49107 0.3556,-0.16933 0.829733,-0.16933 h 0.299155 v -0.33303 h 0.603955 v 2.56822 h 0.666044 q 0.02822,0 0.02822,0.0226 v 0.46849 q 0,0.0282 -0.02822,0.0282 z m 0.378178,-0.51929 v -1.71591 h -0.287867 q -0.468488,0 -0.722488,0.23707 -0.254,0.23142 -0.254,0.66604 0,0.39512 0.225778,0.60396 0.231422,0.20884 0.654755,0.20884 z m -1.072448,-3.21168 q -0.146756,0 -0.242711,-0.0903 -0.09596,-0.0903 -0.09596,-0.27093 0,-0.18627 0.09596,-0.27094 0.09596,-0.0903 0.242711,-0.0903 0.158044,0 0.248355,0.096 0.08467,0.0903 0.08467,0.26529 0,0.16933 -0.08467,0.26529 -0.09031,0.096 -0.248355,0.096 z m 0.970844,0 q -0.158045,0 -0.248356,-0.096 -0.09031,-0.096 -0.09031,-0.26529 0,-0.17498 0.09031,-0.26529 0.09031,-0.096 0.248356,-0.096 0.158044,0 0.24271,0.096 0.09031,0.0959 0.09031,0.26529 0,0.16369 -0.09031,0.26529 -0.08467,0.096 -0.24271,0.096 z"
         id="path67"
         style="fill:#c9ada7;fill-opacity:1" />
    </g>
    <g
       id="g5"
       transform="matrix(0.66690091,0,0,0.66690091,-32.626448,30.990807)">
      <rect
         style="fill:#4a4e69;fill-opacity:1;stroke:none;stroke-width:1.32292;stroke-linecap:round;stroke-linejoin:round"
         id="rect1-9"
         width="39.443054"
         height="39.443054"
         x="97.093719"
         y="-133.35498"
         rx="0"
         ry="0" />
      <rect
         style="fill:#9a8c98;fill-opacity:1;stroke:none;stroke-width:1.32292;stroke-linecap:round;stroke-linejoin:round"
         id="rect2"
         width="39.443054"
         height="39.443054"
         x="136.53677"
         y="-133.35498"
         rx="0"
         ry="0" />
      <rect
         style="fill:#c9ada7;fill-opacity:1;stroke:none;stroke-width:1.32292;stroke-linecap:round;stroke-linejoin:round"
         id="rect3"
         width="39.443054"
         height="39.443054"
         x="175.97983"
         y="-133.35498"
         rx="0"
         ry="0" />
      <rect
         style="fill:#f2e9e4;fill-opacity:1;stroke:none;stroke-width:1.32292;stroke-linecap:round;stroke-linejoin:round"
         id="rect4"
         width="39.443054"
         height="39.443054"
         x="215.42288"
         y="-133.35498"
         rx="0"
         ry="0" />
      <rect
         style="fill:#22223b;fill-opacity:1;stroke:none;stroke-width:1.32292;stroke-linecap:round;stroke-linejoin:round"
         id="rect5"
         width="39.443054"
         height="39.443054"
         x="57.650665"
         y="-133.35498"
         rx="0"
         ry="0" />
    </g>
  </g>
</svg>
