<?xml version="1.0" encoding="UTF-8" standalone="no"?>
<!-- Created with Inkscape (http://www.inkscape.org/) -->

<svg
   width="100"
   height="125"
   viewBox="0 0 26.458333 33.072917"
   version="1.1"
   id="svg1"
   inkscape:version="1.4.2 (ebf0e940, 2025-05-08)"
   sodipodi:docname="whatsbtn.svg"
   xmlns:inkscape="http://www.inkscape.org/namespaces/inkscape"
   xmlns:sodipodi="http://sodipodi.sourceforge.net/DTD/sodipodi-0.dtd"
   xmlns="http://www.w3.org/2000/svg"
   xmlns:svg="http://www.w3.org/2000/svg">
  <sodipodi:namedview
     id="namedview1"
     pagecolor="#ffffff"
     bordercolor="#000000"
     borderopacity="0.25"
     inkscape:showpageshadow="2"
     inkscape:pageopacity="0.0"
     inkscape:pagecheckerboard="0"
     inkscape:deskcolor="#d1d1d1"
     inkscape:document-units="px"
     showgrid="true"
     inkscape:zoom="9.7567327"
     inkscape:cx="55.14141"
     inkscape:cy="114.28006"
     inkscape:window-width="1440"
     inkscape:window-height="847"
     inkscape:window-x="0"
     inkscape:window-y="25"
     inkscape:window-maximized="1"
     inkscape:current-layer="layer1">
    <inkscape:grid
       id="grid1"
       units="px"
       originx="0"
       originy="0"
       spacingx="2.6458333"
       spacingy="2.6458333"
       empcolor="#0099e5"
       empopacity="0.30196078"
       color="#0099e5"
       opacity="0.14901961"
       empspacing="5"
       enabled="true"
       visible="true" />
  </sodipodi:namedview>
  <defs
     id="defs1" />
  <g
     inkscape:label="Layer 1"
     inkscape:groupmode="layer"
     id="layer1">
    <g
       id="g5"
       transform="matrix(0.13415966,0,0,0.13415966,-7.7343942,2.0158593)">
      <rect
         style="fill:#4a4e69;fill-opacity:1;stroke:none;stroke-width:1.32292;stroke-linecap:round;stroke-linejoin:round"
         id="rect1"
         width="39.443054"
         height="39.443054"
         x="97.093719"
         y="-133.35498"
         rx="0"
         ry="0" />
      <rect
         style="fill:#9a8c98;fill-opacity:1;stroke:none;stroke-width:1.32292;stroke-linecap:round;stroke-linejoin:round"
         id="rect2"
         width="39.443054"
         height="39.443054"
         x="136.53677"
         y="-133.35498"
         rx="0"
         ry="0" />
      <rect
         style="fill:#c9ada7;fill-opacity:1;stroke:none;stroke-width:1.32292;stroke-linecap:round;stroke-linejoin:round"
         id="rect3"
         width="39.443054"
         height="39.443054"
         x="175.97983"
         y="-133.35498"
         rx="0"
         ry="0" />
      <rect
         style="fill:#f2e9e4;fill-opacity:1;stroke:none;stroke-width:1.32292;stroke-linecap:round;stroke-linejoin:round"
         id="rect4"
         width="39.443054"
         height="39.443054"
         x="215.42288"
         y="-133.35498"
         rx="0"
         ry="0" />
      <rect
         style="fill:#22223b;fill-opacity:1;stroke:none;stroke-width:1.32292;stroke-linecap:round;stroke-linejoin:round"
         id="rect5"
         width="39.443054"
         height="39.443054"
         x="57.650665"
         y="-133.35498"
         rx="0"
         ry="0" />
    </g>
    <rect
       style="fill:#4a4e69;fill-opacity:1;stroke:none;stroke-width:0.314127;stroke-linecap:round;stroke-linejoin:round"
       id="rect6"
       width="26.458332"
       height="33.072918"
       x="0"
       y="0" />
    <rect
       style="fill:#f2e9e4;fill-opacity:1;stroke:none;stroke-width:0.253842;stroke-linecap:round;stroke-linejoin:round"
       id="rect7"
       width="23.8125"
       height="23.8125"
       x="1.3229166"
       y="1.3229166" />
    <rect
       style="fill:#4a4e69;fill-opacity:1;stroke:none;stroke-width:0.264583;stroke-linecap:round;stroke-linejoin:round"
       id="rect8"
       width="21.166666"
       height="5.2916665"
       x="2.6458333"
       y="26.45833" />
    <path
       style="font-weight:500;font-size:3.175px;font-family:Montserrat;-inkscape-font-specification:'Montserrat Medium';text-align:center;letter-spacing:0px;word-spacing:0px;text-anchor:middle;fill:#f2e9e4;stroke-width:0.264583;stroke-linecap:round;stroke-linejoin:round"
       d="m 4.6044081,30.215413 -0.74295,-2.2225 h 0.327025 l 0.682625,2.05105 h -0.1651 l 0.708025,-2.05105 h 0.2921 l 0.6921499,2.05105 h -0.15875 l 0.69215,-2.05105 h 0.301625 l -0.74295,2.2225 H 6.156983 L 5.5092831,28.313588 h 0.085725 l -0.650875,1.901825 z m 4.6101,0 v -2.2225 h 0.3175 v 2.2225 z m -1.59385,0 v -2.2225 h 0.3175 v 2.2225 z m 0.28575,-0.9906 v -0.276225 h 1.336675 v 0.276225 z m 1.955801,0.9906 1.0064749,-2.2225 h 0.314325 l 1.00965,2.2225 h -0.333375 l -0.898525,-2.0447 h 0.127 l -0.898525,2.0447 z m 0.4286249,-0.555625 0.08573,-0.254 h 1.25095 l 0.09208,0.254 z m 2.562226,0.555625 v -1.946275 h -0.762 v -0.276225 h 1.838325 v 0.276225 h -0.762 v 1.946275 z m 2.041262,0.0254 q -0.254,0 -0.485775,-0.0762 -0.231775,-0.07938 -0.365125,-0.2032 l 0.117475,-0.24765 q 0.127,0.111125 0.32385,0.18415 0.19685,0.07302 0.409575,0.07302 0.193675,0 0.314325,-0.04445 0.12065,-0.04445 0.1778,-0.12065 0.05715,-0.07937 0.05715,-0.1778 0,-0.1143 -0.0762,-0.18415 -0.07302,-0.06985 -0.193675,-0.111125 -0.117475,-0.04445 -0.26035,-0.0762 -0.142875,-0.03175 -0.288925,-0.07302 -0.142875,-0.04445 -0.263525,-0.111125 -0.117475,-0.06668 -0.1905,-0.1778 -0.07302,-0.1143 -0.07302,-0.2921 0,-0.17145 0.0889,-0.314325 0.09207,-0.14605 0.2794,-0.231775 0.1905,-0.0889 0.4826,-0.0889 0.193675,0 0.384175,0.0508 0.1905,0.0508 0.3302,0.14605 l -0.104775,0.254 q -0.142875,-0.09525 -0.301625,-0.136525 -0.15875,-0.04445 -0.307975,-0.04445 -0.187325,0 -0.307975,0.04763 -0.12065,0.04763 -0.1778,0.127 -0.05397,0.07937 -0.05397,0.1778 0,0.117475 0.07302,0.187325 0.0762,0.06985 0.193675,0.111125 0.12065,0.04127 0.263525,0.0762 0.142875,0.03175 0.28575,0.07302 0.14605,0.04128 0.263525,0.10795 0.12065,0.06668 0.193675,0.1778 0.07302,0.111125 0.07302,0.28575 0,0.168275 -0.09207,0.314325 -0.09207,0.142875 -0.28575,0.231775 -0.1905,0.08572 -0.4826,0.08572 z m 0.987425,-0.0254 1.006475,-2.2225 h 0.314325 l 1.00965,2.2225 h -0.333375 l -0.898525,-2.0447 h 0.127 l -0.898525,2.0447 z m 0.428625,-0.555625 0.08573,-0.254 h 1.25095 l 0.09207,0.254 z m 2.232027,0.555625 v -2.2225 h 0.866775 q 0.2921,0 0.498475,0.09208 0.206375,0.09207 0.3175,0.2667 0.111125,0.174625 0.111125,0.415925 0,0.2413 -0.111125,0.415925 -0.111125,0.17145 -0.3175,0.2667 -0.206375,0.09207 -0.498475,0.09207 h -0.69215 l 0.142875,-0.149225 v 0.822325 z m 0.3175,-0.790575 -0.142875,-0.15875 h 0.682625 q 0.3048,0 0.460375,-0.130175 0.15875,-0.130175 0.15875,-0.3683 0,-0.238125 -0.15875,-0.3683 -0.155575,-0.130175 -0.460375,-0.130175 h -0.682625 l 0.142875,-0.15875 z m 1.9431,0.790575 v -2.2225 h 0.866775 q 0.2921,0 0.498475,0.09208 0.206375,0.09207 0.3175,0.2667 0.111125,0.174625 0.111125,0.415925 0,0.2413 -0.111125,0.415925 -0.111125,0.17145 -0.3175,0.2667 -0.206375,0.09207 -0.498475,0.09207 h -0.69215 l 0.142875,-0.149225 v 0.822325 z m 0.3175,-0.790575 -0.142875,-0.15875 h 0.682625 q 0.3048,0 0.460375,-0.130175 0.15875,-0.130175 0.15875,-0.3683 0,-0.238125 -0.15875,-0.3683 -0.155575,-0.130175 -0.460375,-0.130175 h -0.682625 l 0.142875,-0.15875 z"
       id="text8"
       aria-label="WHATSAPP" />
    <path
       d="m 21.143362,17.29051 -0.720955,3.125233 c -0.101274,0.441811 -0.489629,0.750924 -0.944528,0.750924 C 11.654672,21.166046 5.2916665,14.803966 5.2916665,6.9815825 c 0,-0.454523 0.309127,-0.843317 0.751033,-0.944081 l 3.125687,-0.720849 c 0.455209,-0.105477 0.9203405,0.130776 1.1094945,0.561797 l 1.442529,3.363966 c 0.168626,0.396235 0.05489,0.8578895 -0.278459,1.1301065 l -1.6695145,1.340316 c 1.0536795,2.146117 2.7988555,3.891039 4.9459035,4.945185 l 1.366868,-1.668031 c 0.269404,-0.334227 0.734598,-0.449873 1.13089,-0.278264 l 3.364454,1.44201 c 0.404665,0.212844 0.66824,0.684109 0.56281,1.136772 z"
       id="path1"
       style="fill:#4a4e69;fill-opacity:1;stroke-width:0.0310066" />
  </g>
</svg>
